<svg xmlns="http://www.w3.org/2000/svg" xmlns:xlink="http://www.w3.org/1999/xlink" style="margin:auto;background:rgba(241, 242, 243, 0.47143145161290323);display:block;z-index:1;position:relative" width="1366" height="625" preserveAspectRatio="xMidYMid" viewBox="0 0 1366 625">
<g transform="translate(683,312.5) scale(1,1) translate(-683,-312.5)"><path id="path0" d="M 236.42250242374232 64.23919736063726
c 0 33.27617073238431 -8.142041774945096 9.55804904015294 -17.700090815098037 9.55804904015294
S 201.02232079354624 97.51536809302158 201.02232079354624 64.23919736063726
s 8.142041774945096 -9.55804904015294 17.700090815098037 -9.55804904015294
S 236.42250242374232 30.963026628252955 236.42250242374232 64.23919736063726
z" fill="none" stroke="none"></path>
<circle cx="0" cy="0" r="6.947565989494663" fill="#0054ae" opacity="0.9">
  <animateMotion begin="-0.36473062498760367s" dur="10s" repeatCount="indefinite">
    <mpath xlink:href="#path0"></mpath>
  </animateMotion>
</circle><path id="path1" d="M 112.76649767098289 230.02434913168477
c 0 30.900054722902397 -7.5606516875186704 8.875547633174094 -16.436199320692765 8.875547633174094
S 79.89409902959736 260.9244038545872 79.89409902959736 230.02434913168477
s 7.5606516875186704 -8.875547633174094 16.436199320692765 -8.875547633174094
S 112.76649767098289 199.12429440878236 112.76649767098289 230.02434913168477
z" fill="none" stroke="none"></path>
<circle cx="0" cy="0" r="6.930461834185486" fill="#251815" opacity="0.9">
  <animateMotion begin="-0.8668152786835992s" dur="10s" repeatCount="indefinite">
    <mpath xlink:href="#path1"></mpath>
  </animateMotion>
</circle><path id="path2" d="M 1129.2916338652876 428.2466299882949
c 0 25.78037957255848 -6.307965214562181 7.4050026431816915 -13.712967857743871 7.4050026431816915
S 1101.8656981497998 454.0270095608534 1101.8656981497998 428.2466299882949
s 6.307965214562181 -7.4050026431816915 13.712967857743871 -7.4050026431816915
S 1129.2916338652876 402.4662504157364 1129.2916338652876 428.2466299882949
z" fill="none" stroke="none"></path>
<circle cx="0" cy="0" r="4.039882352755672" fill="#251815" opacity="0.9">
  <animateMotion begin="-5.828423447672517s" dur="10s" repeatCount="indefinite">
    <mpath xlink:href="#path2"></mpath>
  </animateMotion>
</circle><path id="path3" d="M 1095.2950468589922 526.849385900771
c 0 19.331577323232338 -4.73006679185472 5.552687103481629 -10.282753895336349 5.552687103481629
S 1074.7295390683196 546.1809632240033 1074.7295390683196 526.849385900771
s 4.73006679185472 -5.552687103481629 10.282753895336349 -5.552687103481629
S 1095.2950468589922 507.5178085775387 1095.2950468589922 526.849385900771
z" fill="none" stroke="none"></path>
<circle cx="0" cy="0" r="5.050044965055593" fill="#f90013" opacity="0.9">
  <animateMotion begin="-0.17812977699367627s" dur="10s" repeatCount="indefinite">
    <mpath xlink:href="#path3"></mpath>
  </animateMotion>
</circle><path id="path4" d="M 244.6492637453491 113.78545384443476
c 0 34.5795295535458 -8.460948720548439 9.932418063252516 -18.393366783800957 9.932418063252516
S 207.86253017774717 148.36498339798055 207.86253017774717 113.78545384443476
s 8.460948720548439 -9.932418063252516 18.393366783800957 -9.932418063252516
S 244.6492637453491 79.20592429088896 244.6492637453491 113.78545384443476
z" fill="none" stroke="none"></path>
<circle cx="0" cy="0" r="4.090839464138468" fill="#f90013" opacity="0.9">
  <animateMotion begin="-5.2373427267482136s" dur="10s" repeatCount="indefinite">
    <mpath xlink:href="#path4"></mpath>
  </animateMotion>
</circle><path id="path5" d="M 463.2684928169606 71.59693806009473
c 0 23.890925854762756 -5.845652070846205 6.862287213602068 -12.707939284448273 6.862287213602068
S 437.852614248064 95.48786391485748 437.852614248064 71.59693806009473
s 5.845652070846205 -6.862287213602068 12.707939284448273 -6.862287213602068
S 463.2684928169606 47.70601220533197 463.2684928169606 71.59693806009473
z" fill="none" stroke="none"></path>
<circle cx="0" cy="0" r="5.084205442196493" fill="#251815" opacity="0.9">
  <animateMotion begin="-7.190047464056848s" dur="10s" repeatCount="indefinite">
    <mpath xlink:href="#path5"></mpath>
  </animateMotion>
</circle><path id="path6" d="M 1036.080148058445 462.26345999216636
c 0 22.830615675423147 -5.586214473773748 6.557730034430053 -12.143944508203802 6.557730034430053
S 1011.7922590420374 485.0940756675895 1011.7922590420374 462.26345999216636
s 5.586214473773748 -6.557730034430053 12.143944508203802 -6.557730034430053
S 1036.080148058445 439.4328443167432 1036.080148058445 462.26345999216636
z" fill="none" stroke="none"></path>
<circle cx="0" cy="0" r="7.181580273200348" fill="#f90013" opacity="0.9">
  <animateMotion begin="-0.30725654924808055s" dur="10s" repeatCount="indefinite">
    <mpath xlink:href="#path6"></mpath>
  </animateMotion>
</circle><path id="path7" d="M 612.3218603860065 210.01723644719223
c 0 31.108218166659864 -7.6115852960976245 8.935339260636344 -16.54692455673397 8.935339260636344
S 579.2280112725385 241.1254546138521 579.2280112725385 210.01723644719223
s 7.6115852960976245 -8.935339260636344 16.54692455673397 -8.935339260636344
S 612.3218603860065 178.90901828053236 612.3218603860065 210.01723644719223
z" fill="none" stroke="none"></path>
<circle cx="0" cy="0" r="4.1838279017663424" fill="#251815" opacity="0.9">
  <animateMotion begin="-0.8233096446724586s" dur="10s" repeatCount="indefinite">
    <mpath xlink:href="#path7"></mpath>
  </animateMotion>
</circle><path id="path8" d="M 414.60702702562764 283.0824256708007
c 0 29.73399724951141 -7.275339752540026 8.54061623124264 -15.815955983782665 8.54061623124264
S 382.97511505806233 312.8164229203121 382.97511505806233 283.0824256708007
s 7.275339752540026 -8.54061623124264 15.815955983782665 -8.54061623124264
S 414.60702702562764 253.3484284212893 414.60702702562764 283.0824256708007
z" fill="none" stroke="none"></path>
<circle cx="0" cy="0" r="5.580969421617982" fill="#251815" opacity="0.9">
  <animateMotion begin="-0.102952995032497s" dur="10s" repeatCount="indefinite">
    <mpath xlink:href="#path8"></mpath>
  </animateMotion>
</circle><path id="path9" d="M 166.37423968811257 26.750524491782627
c 0 23.885213008009412 -5.8442542466406 6.8606462895346185 -12.704900536175218 6.8606462895346185
S 140.96443861576213 50.63573749979204 140.96443861576213 26.750524491782627
s 5.8442542466406 -6.8606462895346185 12.704900536175218 -6.8606462895346185
S 166.37423968811257 2.8653114837732154 166.37423968811257 26.750524491782627
z" fill="none" stroke="none"></path>
<circle cx="0" cy="0" r="5.251401036861985" fill="#ffffff" opacity="0.9">
  <animateMotion begin="-7.669173258611499s" dur="10s" repeatCount="indefinite">
    <mpath xlink:href="#path9"></mpath>
  </animateMotion>
</circle><path id="path10" d="M 870.7756621820154 605.7705409583415
c 0 28.10402524272982 -6.876516814710487 8.072432782486224 -14.948949597196712 8.072432782486224
S 840.877762987622 633.8745662010713 840.877762987622 605.7705409583415
s 6.876516814710487 -8.072432782486224 14.948949597196712 -8.072432782486224
S 870.7756621820154 577.6665157156117 870.7756621820154 605.7705409583415
z" fill="none" stroke="none"></path>
<circle cx="0" cy="0" r="6.910586582532285" fill="#ffffff" opacity="0.9">
  <animateMotion begin="-7.502111915429683s" dur="10s" repeatCount="indefinite">
    <mpath xlink:href="#path10"></mpath>
  </animateMotion>
</circle><path id="path11" d="M 352.58998643996506 498.1976937502197
c 0 27.66251928094337 -6.768488760230824 7.945617240270968 -14.714106000501792 7.945617240270968
S 323.1617744389615 525.8602130311631 323.1617744389615 498.1976937502197
s 6.768488760230824 -7.945617240270968 14.714106000501792 -7.945617240270968
S 352.58998643996506 470.5351744692763 352.58998643996506 498.1976937502197
z" fill="none" stroke="none"></path>
<circle cx="0" cy="0" r="7.8330320793042" fill="#ffe700" opacity="0.9">
  <animateMotion begin="-5.168567247578149s" dur="10s" repeatCount="indefinite">
    <mpath xlink:href="#path11"></mpath>
  </animateMotion>
</circle><path id="path12" d="M 285.3494674869965 125.85533061622866
c 0 31.452936101906356 -7.6959311738707035 9.034353986717784 -16.730285160588487 9.034353986717784
S 251.88889716581951 157.308266718135 251.88889716581951 125.85533061622866
s 7.6959311738707035 -9.034353986717784 16.730285160588487 -9.034353986717784
S 285.3494674869965 94.4023945143223 285.3494674869965 125.85533061622866
z" fill="none" stroke="none"></path>
<circle cx="0" cy="0" r="6.474889101797759" fill="#ffffff" opacity="0.9">
  <animateMotion begin="-3.66736336417518s" dur="10s" repeatCount="indefinite">
    <mpath xlink:href="#path12"></mpath>
  </animateMotion>
</circle><path id="path13" d="M 114.78520036658533 360.88594461394257
c 0 34.00622401227187 -8.320671832789925 9.767745195014262 -18.088417027804187 9.767745195014262
S 78.60836631097696 394.89216862621447 78.60836631097696 360.88594461394257
s 8.320671832789925 -9.767745195014262 18.088417027804187 -9.767745195014262
S 114.78520036658533 326.87972060167067 114.78520036658533 360.88594461394257
z" fill="none" stroke="none"></path>
<circle cx="0" cy="0" r="5.52093570012105" fill="#251815" opacity="0.9">
  <animateMotion begin="-7.874429582162481s" dur="10s" repeatCount="indefinite">
    <mpath xlink:href="#path13"></mpath>
  </animateMotion>
</circle><path id="path14" d="M 1148.34884762407 558.2231182703698
c 0 25.858121623218878 -6.326987205681214 7.427332806669253 -13.754320012350467 7.427332806669253
S 1120.840207599369 584.0812398935886 1120.840207599369 558.2231182703698
s 6.326987205681214 -7.427332806669253 13.754320012350467 -7.427332806669253
S 1148.34884762407 532.364996647151 1148.34884762407 558.2231182703698
z" fill="none" stroke="none"></path>
<circle cx="0" cy="0" r="4.4099221995815965" fill="#f90013" opacity="0.9">
  <animateMotion begin="-6.2250538747485s" dur="10s" repeatCount="indefinite">
    <mpath xlink:href="#path14"></mpath>
  </animateMotion>
</circle><path id="path15" d="M 829.8147654946771 521.9483009033756
c 0 35.62425859464363 -8.716573911455354 10.232499809099766 -18.94907372055512 10.232499809099766
S 791.9166180535668 557.5725594980192 791.9166180535668 521.9483009033756
s 8.716573911455354 -10.232499809099766 18.94907372055512 -10.232499809099766
S 829.8147654946771 486.32404230873203 829.8147654946771 521.9483009033756
z" fill="none" stroke="none"></path>
<circle cx="0" cy="0" r="7.734270171786138" fill="#251815" opacity="0.9">
  <animateMotion begin="-2.0308846059008268s" dur="10s" repeatCount="indefinite">
    <mpath xlink:href="#path15"></mpath>
  </animateMotion>
</circle><path id="path16" d="M 1371.828185117288 267.13919424803163
c 0 27.177825460018664 -6.649893463621587 7.806396674686212 -14.4562901383078 7.806396674686212
S 1342.9156048406724 294.3170197080503 1342.9156048406724 267.13919424803163
s 6.649893463621587 -7.806396674686212 14.4562901383078 -7.806396674686212
S 1371.828185117288 239.96136878801298 1371.828185117288 267.13919424803163
z" fill="none" stroke="none"></path>
<circle cx="0" cy="0" r="5.437828682466169" fill="#0054ae" opacity="0.9">
  <animateMotion begin="-8.353263473352024s" dur="10s" repeatCount="indefinite">
    <mpath xlink:href="#path16"></mpath>
  </animateMotion>
</circle><path id="path17" d="M 859.7952248502995 45.00603368238471
c 0 25.915071605241753 -6.340921775750641 7.443690780229015 -13.784612555979656 7.443690780229015
S 832.2259997383403 70.92110528762646 832.2259997383403 45.00603368238471
s 6.340921775750641 -7.443690780229015 13.784612555979656 -7.443690780229015
S 859.7952248502995 19.090962077142958 859.7952248502995 45.00603368238471
z" fill="none" stroke="none"></path>
<circle cx="0" cy="0" r="5.567484702454285" fill="#f90013" opacity="0.9">
  <animateMotion begin="-4.606028773502004s" dur="10s" repeatCount="indefinite">
    <mpath xlink:href="#path17"></mpath>
  </animateMotion>
</circle><path id="path18" d="M 590.7165556115103 387.97436044164346
c 0 21.40086094795747 -5.236380870244912 6.14705580420055 -11.383436674445463 6.14705580420055
S 567.9496822626195 409.37522138960094 567.9496822626195 387.97436044164346
s 5.236380870244912 -6.14705580420055 11.383436674445463 -6.14705580420055
S 590.7165556115103 366.573499493686 590.7165556115103 387.97436044164346
z" fill="none" stroke="none"></path>
<circle cx="0" cy="0" r="7.693406351423956" fill="#0054ae" opacity="0.9">
  <animateMotion begin="-4.606567053232391s" dur="10s" repeatCount="indefinite">
    <mpath xlink:href="#path18"></mpath>
  </animateMotion>
</circle><path id="path19" d="M 1281.7561765105343 339.6772047648718
c 0 34.14158594634385 -8.353792306020305 9.806625750545575 -18.16041805656588 9.806625750545575
S 1245.4353403974023 373.8187907112157 1245.4353403974023 339.6772047648718
s 8.353792306020305 -9.806625750545575 18.16041805656588 -9.806625750545575
S 1281.7561765105343 305.53561881852795 1281.7561765105343 339.6772047648718
z" fill="none" stroke="none"></path>
<circle cx="0" cy="0" r="6.335937103652839" fill="#f90013" opacity="0.9">
  <animateMotion begin="-0.9923380608998955s" dur="10s" repeatCount="indefinite">
    <mpath xlink:href="#path19"></mpath>
  </animateMotion>
</circle><path id="path20" d="M 105.02790973878669 129.57361790656245
c 0 27.30669889538717 -6.681426325467073 7.843413512504826 -14.5248398379719 7.843413512504826
S 75.9782300628429 156.88031680194962 75.9782300628429 129.57361790656245
s 6.681426325467073 -7.843413512504826 14.5248398379719 -7.843413512504826
S 105.02790973878669 102.26691901117528 105.02790973878669 129.57361790656245
z" fill="none" stroke="none"></path>
<circle cx="0" cy="0" r="4.8117833047297465" fill="#ffffff" opacity="0.9">
  <animateMotion begin="-2.1511329191568507s" dur="10s" repeatCount="indefinite">
    <mpath xlink:href="#path20"></mpath>
  </animateMotion>
</circle><path id="path21" d="M 417.8948983868124 161.54780515232247
c 0 24.10850581602943 -5.89888972094337 6.924783585455263 -12.823673306398632 6.924783585455263
S 392.2475517740151 185.6563109683519 392.2475517740151 161.54780515232247
s 5.89888972094337 -6.924783585455263 12.823673306398632 -6.924783585455263
S 417.8948983868124 137.43929933629303 417.8948983868124 161.54780515232247
z" fill="none" stroke="none"></path>
<circle cx="0" cy="0" r="7.413922863572546" fill="#0054ae" opacity="0.9">
  <animateMotion begin="-2.358744403446016s" dur="10s" repeatCount="indefinite">
    <mpath xlink:href="#path21"></mpath>
  </animateMotion>
</circle><path id="path22" d="M 116.10103361869984 175.97192173455042
c 0 35.30772469924328 -8.63912412853825 10.141580498718815 -18.780704627257062 10.141580498718815
S 78.53962436418571 211.2796464337937 78.53962436418571 175.97192173455042
s 8.63912412853825 -10.141580498718815 18.780704627257062 -10.141580498718815
S 116.10103361869984 140.66419703530715 116.10103361869984 175.97192173455042
z" fill="none" stroke="none"></path>
<circle cx="0" cy="0" r="5.820137771487273" fill="#ffffff" opacity="0.9">
  <animateMotion begin="-5.216849836339785s" dur="10s" repeatCount="indefinite">
    <mpath xlink:href="#path22"></mpath>
  </animateMotion>
</circle><path id="path23" d="M 420.1688919896124 477.86848891830317
c 0 30.930745096381717 -7.568161034221057 8.884362953216025 -16.452523987437083 8.884362953216025
S 387.26384401473825 508.7992340146849 387.26384401473825 477.86848891830317
s 7.568161034221057 -8.884362953216025 16.452523987437083 -8.884362953216025
S 420.1688919896124 446.93774382192146 420.1688919896124 477.86848891830317
z" fill="none" stroke="none"></path>
<circle cx="0" cy="0" r="6.9344658073793575" fill="#0054ae" opacity="0.9">
  <animateMotion begin="-4.573625304313156s" dur="10s" repeatCount="indefinite">
    <mpath xlink:href="#path23"></mpath>
  </animateMotion>
</circle><path id="path24" d="M 1046.0099654777118 460.9816489856827
c 0 30.946033044189097 -7.571901702301587 8.888754172267081 -16.46065587456867 8.888754172267081
S 1013.0886537285745 491.9276820298718 1013.0886537285745 460.9816489856827
s 7.571901702301587 -8.888754172267081 16.46065587456867 -8.888754172267081
S 1046.0099654777118 430.0356159414936 1046.0099654777118 460.9816489856827
z" fill="none" stroke="none"></path>
<circle cx="0" cy="0" r="5.450048102027821" fill="#ffe700" opacity="0.9">
  <animateMotion begin="-3.9308727914491026s" dur="10s" repeatCount="indefinite">
    <mpath xlink:href="#path24"></mpath>
  </animateMotion>
</circle><path id="path25" d="M 1202.9687412680587 123.66275531154969
c 0 34.34867466024728 -8.404462948783909 9.8661086790072 -18.270571627791107 9.8661086790072
S 1166.4275980124767 158.01142997179699 1166.4275980124767 123.66275531154969
s 8.404462948783909 -9.8661086790072 18.270571627791107 -9.8661086790072
S 1202.9687412680587 89.3140806513024 1202.9687412680587 123.66275531154969
z" fill="none" stroke="none"></path>
<circle cx="0" cy="0" r="4.791614358441201" fill="#251815" opacity="0.9">
  <animateMotion begin="-3.8046800479945286s" dur="10s" repeatCount="indefinite">
    <mpath xlink:href="#path25"></mpath>
  </animateMotion>
</circle><path id="path26" d="M 459.83497413866496 229.45917782998737
c 0 23.165686118765052 -5.668199795016981 6.653973672411238 -12.322173467428218 6.653973672411238
S 435.1906272038085 252.62486394875242 435.1906272038085 229.45917782998737
s 5.668199795016981 -6.653973672411238 12.322173467428218 -6.653973672411238
S 459.83497413866496 206.29349171122232 459.83497413866496 229.45917782998737
z" fill="none" stroke="none"></path>
<circle cx="0" cy="0" r="4.2911611325391" fill="#251815" opacity="0.9">
  <animateMotion begin="-6.02162906992157s" dur="10s" repeatCount="indefinite">
    <mpath xlink:href="#path26"></mpath>
  </animateMotion>
</circle><path id="path27" d="M 858.4815105031527 469.2093638586691
c 0 32.95789712139991 -8.064166316938275 9.466630024231888 -17.530796341170163 9.466630024231888
S 823.4199178208124 502.16726098006905 823.4199178208124 469.2093638586691
s 8.064166316938275 -9.466630024231888 17.530796341170163 -9.466630024231888
S 858.4815105031527 436.2514667372692 858.4815105031527 469.2093638586691
z" fill="none" stroke="none"></path>
<circle cx="0" cy="0" r="5.301131493493575" fill="#0054ae" opacity="0.9">
  <animateMotion begin="-6.400722261849157s" dur="10s" repeatCount="indefinite">
    <mpath xlink:href="#path27"></mpath>
  </animateMotion>
</circle><path id="path28" d="M 839.6850323112844 189.69797758123988
c 0 34.241634418817824 -8.378272251412872 9.835363077745546 -18.213635329158418 9.835363077745546
S 803.2577616529677 223.9396120000577 803.2577616529677 189.69797758123988
s 8.378272251412872 -9.835363077745546 18.213635329158418 -9.835363077745546
S 839.6850323112844 155.45634316242206 839.6850323112844 189.69797758123988
z" fill="none" stroke="none"></path>
<circle cx="0" cy="0" r="6.79885424501764" fill="#ffffff" opacity="0.9">
  <animateMotion begin="-8.98638867161141s" dur="10s" repeatCount="indefinite">
    <mpath xlink:href="#path28"></mpath>
  </animateMotion>
</circle><path id="path29" d="M 1215.6221199624988 578.6029643247064
c 0 18.926936330681468 -4.631058889422061 5.436460435408507 -10.067519324830567 5.436460435408507
S 1195.4870813128377 597.5299006553878 1195.4870813128377 578.6029643247064
s 4.631058889422061 -5.436460435408507 10.067519324830567 -5.436460435408507
S 1215.6221199624988 559.6760279940249 1215.6221199624988 578.6029643247064
z" fill="none" stroke="none"></path>
<circle cx="0" cy="0" r="5.450334099816134" fill="#251815" opacity="0.9">
  <animateMotion begin="-6.281499474286192s" dur="10s" repeatCount="indefinite">
    <mpath xlink:href="#path29"></mpath>
  </animateMotion>
</circle><path id="path30" d="M 482.94387768463565 249.87674831614052
c 0 22.53339159276242 -5.513489432271656 6.4723571596232485 -11.985846591894905 6.4723571596232485
S 458.9721845008458 272.4101399089029 458.9721845008458 249.87674831614052
s 5.513489432271656 -6.4723571596232485 11.985846591894905 -6.4723571596232485
S 482.94387768463565 227.3433567233781 482.94387768463565 249.87674831614052
z" fill="none" stroke="none"></path>
<circle cx="0" cy="0" r="6.149215925219011" fill="#251815" opacity="0.9">
  <animateMotion begin="-0.021560428403522014s" dur="10s" repeatCount="indefinite">
    <mpath xlink:href="#path30"></mpath>
  </animateMotion>
</circle><path id="path31" d="M 1218.573627207157 403.9338222119753
c 0 30.141107495835147 -7.374951834087322 8.657552153059031 -16.032503987146352 8.657552153059031
S 1186.5086192328642 434.0749297078105 1186.5086192328642 403.9338222119753
s 7.374951834087322 -8.657552153059031 16.032503987146352 -8.657552153059031
S 1218.573627207157 373.79271471614015 1218.573627207157 403.9338222119753
z" fill="none" stroke="none"></path>
<circle cx="0" cy="0" r="4.155629555017281" fill="#f90013" opacity="0.9">
  <animateMotion begin="-6.359910847726324s" dur="10s" repeatCount="indefinite">
    <mpath xlink:href="#path31"></mpath>
  </animateMotion>
</circle><path id="path32" d="M 1270.6247724599284 246.16210068973777
c 0 25.944643286951845 -6.348157399998855 7.452184773911701 -13.800342173910556 7.452184773911701
S 1243.0240881121072 272.1067439766896 1243.0240881121072 246.16210068973777
s 6.348157399998855 -7.452184773911701 13.800342173910556 -7.452184773911701
S 1270.6247724599284 220.21745740278593 1270.6247724599284 246.16210068973777
z" fill="none" stroke="none"></path>
<circle cx="0" cy="0" r="7.48597306602376" fill="#0054ae" opacity="0.9">
  <animateMotion begin="-8.524834302626731s" dur="10s" repeatCount="indefinite">
    <mpath xlink:href="#path32"></mpath>
  </animateMotion>
</circle><path id="path33" d="M 456.9660827313023 353.6148205678645
c 0 36.37999267902897 -8.901487570400706 10.449572365253005 -19.35105993565371 10.449572365253005
S 418.2639628599949 389.9948132468935 418.2639628599949 353.6148205678645
s 8.901487570400706 -10.449572365253005 19.35105993565371 -10.449572365253005
S 456.9660827313023 317.2348278888355 456.9660827313023 353.6148205678645
z" fill="none" stroke="none"></path>
<circle cx="0" cy="0" r="7.801644911911203" fill="#ffffff" opacity="0.9">
  <animateMotion begin="-0.8710370513044863s" dur="10s" repeatCount="indefinite">
    <mpath xlink:href="#path33"></mpath>
  </animateMotion>
</circle><path id="path34" d="M 216.9331658285343 500.94834099450304
c 0 21.169255053417835 -5.179711342857554 6.080530706832782 -11.260242049690337 6.080530706832782
S 194.41268172915363 522.1175960479209 194.41268172915363 500.94834099450304
s 5.179711342857554 -6.080530706832782 11.260242049690337 -6.080530706832782
S 216.9331658285343 479.7790859410852 216.9331658285343 500.94834099450304
z" fill="none" stroke="none"></path>
<circle cx="0" cy="0" r="4.003869310308114" fill="#f90013" opacity="0.9">
  <animateMotion begin="-6.475671892735657s" dur="10s" repeatCount="indefinite">
    <mpath xlink:href="#path34"></mpath>
  </animateMotion>
</circle><path id="path35" d="M 235.78795590977006 51.4286949969597
c 0 21.567395977776993 -5.277128803073094 6.194890334042328 -11.47201913711542 6.194890334042328
S 212.84391763553924 72.99609097473669 212.84391763553924 51.4286949969597
s 5.277128803073094 -6.194890334042328 11.47201913711542 -6.194890334042328
S 235.78795590977006 29.861299019182706 235.78795590977006 51.4286949969597
z" fill="none" stroke="none"></path>
<circle cx="0" cy="0" r="7.7430715209673435" fill="#0054ae" opacity="0.9">
  <animateMotion begin="-7.599259586389325s" dur="10s" repeatCount="indefinite">
    <mpath xlink:href="#path35"></mpath>
  </animateMotion>
</circle><path id="path36" d="M 1065.5700502483116 479.198407349251
c 0 30.44350376387946 -7.44894241031093 8.744410655582397 -16.193353065893326 8.744410655582397
S 1033.1833441165252 509.64191111313045 1033.1833441165252 479.198407349251
s 7.44894241031093 -8.744410655582397 16.193353065893326 -8.744410655582397
S 1065.5700502483116 448.75490358537155 1065.5700502483116 479.198407349251
z" fill="none" stroke="none"></path>
<circle cx="0" cy="0" r="6.596045140244" fill="#ffe700" opacity="0.9">
  <animateMotion begin="-8.065771828100885s" dur="10s" repeatCount="indefinite">
    <mpath xlink:href="#path36"></mpath>
  </animateMotion>
</circle><path id="path37" d="M 1079.7200865399084 455.53991033900195
c 0 25.206058921467765 -6.167439948869772 7.240038200847124 -13.407478149716896 7.240038200847124
S 1052.9051302404744 480.74596926046974 1052.9051302404744 455.53991033900195
s 6.167439948869772 -7.240038200847124 13.407478149716896 -7.240038200847124
S 1079.7200865399084 430.33385141753416 1079.7200865399084 455.53991033900195
z" fill="none" stroke="none"></path>
<circle cx="0" cy="0" r="5.061603825635565" fill="#f90013" opacity="0.9">
  <animateMotion begin="-6.716174894203293s" dur="10s" repeatCount="indefinite">
    <mpath xlink:href="#path37"></mpath>
  </animateMotion>
</circle><path id="path38" d="M 419.4792170521952 558.702184114414
c 0 20.981202764963097 -5.133698548873949 6.026515687808549 -11.160214236682497 6.026515687808549
S 397.1587885788302 579.683386879377 397.1587885788302 558.702184114414
s 5.133698548873949 -6.026515687808549 11.160214236682497 -6.026515687808549
S 419.4792170521952 537.7209813494509 419.4792170521952 558.702184114414
z" fill="none" stroke="none"></path>
<circle cx="0" cy="0" r="4.963606981520939" fill="#251815" opacity="0.9">
  <animateMotion begin="-8.584427170556136s" dur="10s" repeatCount="indefinite">
    <mpath xlink:href="#path38"></mpath>
  </animateMotion>
</circle><path id="path39" d="M 965.0189605678734 209.04527316333653
c 0 19.824139503198076 -4.850587325250593 5.694167729642001 -10.544755054892594 5.694167729642001
S 943.9294504580882 228.8694126665346 943.9294504580882 209.04527316333653
s 4.850587325250593 -5.694167729642001 10.544755054892594 -5.694167729642001
S 965.0189605678734 189.22113366013846 965.0189605678734 209.04527316333653
z" fill="none" stroke="none"></path>
<circle cx="0" cy="0" r="5.512685070108945" fill="#ffffff" opacity="0.9">
  <animateMotion begin="-1.3533637169594748s" dur="10s" repeatCount="indefinite">
    <mpath xlink:href="#path39"></mpath>
  </animateMotion>
</circle><path id="path40" d="M 487.24702312821603 412.21330862869064
c 0 25.46095464718924 -6.229808051971835 7.313252930575633 -13.543060982547468 7.313252930575633
S 460.16090116312114 437.67426327587987 460.16090116312114 412.21330862869064
s 6.229808051971835 -7.313252930575633 13.543060982547468 -7.313252930575633
S 487.24702312821603 386.7523539815014 487.24702312821603 412.21330862869064
z" fill="none" stroke="none"></path>
<circle cx="0" cy="0" r="5.859820360107242" fill="#ffffff" opacity="0.9">
  <animateMotion begin="-2.092296799531117s" dur="10s" repeatCount="indefinite">
    <mpath xlink:href="#path40"></mpath>
  </animateMotion>
</circle><path id="path41" d="M 71.39649415488057 426.2994335355026
c 0 19.782557863971732 -4.8404130943760615 5.68222406731103 -10.522637161687092 5.68222406731103
S 50.35121983150639 446.0819913994743 50.35121983150639 426.2994335355026
s 4.8404130943760615 -5.68222406731103 10.522637161687092 -5.68222406731103
S 71.39649415488057 406.5168756715309 71.39649415488057 426.2994335355026
z" fill="none" stroke="none"></path>
<circle cx="0" cy="0" r="5.7478049438189" fill="#ffffff" opacity="0.9">
  <animateMotion begin="-2.922799511687697s" dur="10s" repeatCount="indefinite">
    <mpath xlink:href="#path41"></mpath>
  </animateMotion>
</circle><path id="path42" d="M 659.4624015553904 438.1338061911509
c 0 24.71304432576035 -6.046808718005192 7.098427625484357 -13.145236343489549 7.098427625484357
S 633.1719288684114 462.8468505169112 633.1719288684114 438.1338061911509
s 6.046808718005192 -7.098427625484357 13.145236343489549 -7.098427625484357
S 659.4624015553904 413.42076186539055 659.4624015553904 438.1338061911509
z" fill="none" stroke="none"></path>
<circle cx="0" cy="0" r="6.822442616650664" fill="#251815" opacity="0.9">
  <animateMotion begin="-7.6560927108837635s" dur="10s" repeatCount="indefinite">
    <mpath xlink:href="#path42"></mpath>
  </animateMotion>
</circle><path id="path43" d="M 491.9957944999629 80.859649258041
c 0 37.019082697783446 -9.057860660095947 10.633140774895246 -19.691001434991193 10.633140774895246
S 452.6137916299806 117.87873195582445 452.6137916299806 80.859649258041
s 9.057860660095947 -10.633140774895246 19.691001434991193 -10.633140774895246
S 491.9957944999629 43.84056656025756 491.9957944999629 80.859649258041
z" fill="none" stroke="none"></path>
<circle cx="0" cy="0" r="4.401002235653825" fill="#0054ae" opacity="0.9">
  <animateMotion begin="-4.3705489131979665s" dur="10s" repeatCount="indefinite">
    <mpath xlink:href="#path43"></mpath>
  </animateMotion>
</circle><path id="path44" d="M 129.176272114919 528.4096884552083
c 0 23.788204957206823 -5.820518234210179 6.832782274942386 -12.653300509152565 6.832782274942386
S 103.86967109661387 552.1978934124152 103.86967109661387 528.4096884552083
s 5.820518234210179 -6.832782274942386 12.653300509152565 -6.832782274942386
S 129.176272114919 504.6214834980015 129.176272114919 528.4096884552083
z" fill="none" stroke="none"></path>
<circle cx="0" cy="0" r="4.409858350946457" fill="#f90013" opacity="0.9">
  <animateMotion begin="-5.24087344639857s" dur="10s" repeatCount="indefinite">
    <mpath xlink:href="#path44"></mpath>
  </animateMotion>
</circle><path id="path45" d="M 986.8080209856226 240.50918100595797
c 0 34.28266640074846 -8.388311991672495 9.847148859789451 -18.235460851461948 9.847148859789451
S 950.3370992826987 274.79184740670644 950.3370992826987 240.50918100595797
s 8.388311991672495 -9.847148859789451 18.235460851461948 -9.847148859789451
S 986.8080209856226 206.2265146052095 986.8080209856226 240.50918100595797
z" fill="none" stroke="none"></path>
<circle cx="0" cy="0" r="5.112920300520242" fill="#251815" opacity="0.9">
  <animateMotion begin="-2.5621826504067613s" dur="10s" repeatCount="indefinite">
    <mpath xlink:href="#path45"></mpath>
  </animateMotion>
</circle><path id="path46" d="M 896.1079589970341 449.0905080251957
c 0 35.48767259585757 -8.683153933028978 10.19326766051228 -18.876421593541256 10.19326766051228
S 858.3551158099515 484.57818062105326 858.3551158099515 449.0905080251957
s 8.683153933028978 -10.19326766051228 18.876421593541256 -10.19326766051228
S 896.1079589970341 413.6028354293381 896.1079589970341 449.0905080251957
z" fill="none" stroke="none"></path>
<circle cx="0" cy="0" r="6.8582585756933945" fill="#ffe700" opacity="0.9">
  <animateMotion begin="-8.629259770355269s" dur="10s" repeatCount="indefinite">
    <mpath xlink:href="#path46"></mpath>
  </animateMotion>
</circle><path id="path47" d="M 937.4704435048385 145.45721607307357
c 0 33.15072632622973 -8.111347930885996 9.522017136257475 -17.633365067143473 9.522017136257475
S 902.2037133705516 178.60794239930328 902.2037133705516 145.45721607307357
s 8.111347930885996 -9.522017136257475 17.633365067143473 -9.522017136257475
S 937.4704435048385 112.30648974684384 937.4704435048385 145.45721607307357
z" fill="none" stroke="none"></path>
<circle cx="0" cy="0" r="6.079806366856579" fill="#0054ae" opacity="0.9">
  <animateMotion begin="-6.94735426066533s" dur="10s" repeatCount="indefinite">
    <mpath xlink:href="#path47"></mpath>
  </animateMotion>
</circle><path id="path48" d="M 143.74021954009646 545.98405667403
c 0 35.16967369005449 -8.605345690119714 10.10192754927097 -18.707273239390684 10.10192754927097
S 106.32567306131509 581.1537303640845 106.32567306131509 545.98405667403
s 8.605345690119714 -10.10192754927097 18.707273239390684 -10.10192754927097
S 143.74021954009646 510.81438298397546 143.74021954009646 545.98405667403
z" fill="none" stroke="none"></path>
<circle cx="0" cy="0" r="7.311541483253437" fill="#ffe700" opacity="0.9">
  <animateMotion begin="-7.404308664508308s" dur="10s" repeatCount="indefinite">
    <mpath xlink:href="#path48"></mpath>
  </animateMotion>
</circle></g>
</svg>