<?xml version="1.0" encoding="utf-8"?>
<!-- Generator: Adobe Illustrator 17.0.0, SVG Export Plug-In . SVG Version: 6.00 Build 0)  -->
<!DOCTYPE svg PUBLIC "-//W3C//DTD SVG 1.1//EN" "http://www.w3.org/Graphics/SVG/1.1/DTD/svg11.dtd">
<svg version="1.1" xmlns="http://www.w3.org/2000/svg" xmlns:xlink="http://www.w3.org/1999/xlink" x="0px" y="0px" width="1400px"
	 height="980px" viewBox="0 0 1400 980" enable-background="new 0 0 1400 980" xml:space="preserve">
<g id="Layer_1">
	<g>
		<linearGradient id="SVGID_1_" gradientUnits="userSpaceOnUse" x1="700" y1="980" x2="700" y2="-3.142668e-008">
			<stop  offset="0" style="stop-color:#BA2BA0"/>
			<stop  offset="1" style="stop-color:#470B96"/>
		</linearGradient>
		<rect fill-rule="evenodd" clip-rule="evenodd" fill="url(#SVGID_1_)" width="1400" height="980"/>
		<linearGradient id="SVGID_2_" gradientUnits="userSpaceOnUse" x1="700" y1="725.1465" x2="700" y2="176.8346">
			<stop  offset="0" style="stop-color:#BA2BA0"/>
			<stop  offset="1" style="stop-color:#470B96"/>
		</linearGradient>
		<path fill-rule="evenodd" clip-rule="evenodd" fill="url(#SVGID_2_)" d="M0,185c93-33.2,126.2,223.9,256.2,106
			c66.2-60,152.7-139.1,238.1-106.6c66.4,25.3,158.6,264.1,191.9,248.4c95.6-45,200.9-192.9,278.1-76.1
			c18.5,27.9-34.4,69.4,21.1,90.7c32.6,12.5,31.6,64.4,57.8,87.4c24.1,21.1,63.2,19,87.5,40c32.3,27.9,25.8,70.8,76.3,102.2
			c72.6,45.1,163-77.2,193-25.5v73.7c-50-87.5-143.3,7.7-190-14.1c-40.2-18.8-111.1,10.2-131.6-17.8
			c-24.2-33.1,28.8-94.2,13.6-113.3c-29.9-37.6-100.8,2.7-128.9-31.8c-14.4-17.7,10.2-52.1,0.1-72.6c-21.5-43.3-72.7-10.2-93.7-80.3
			c-27.3-91-115.2,73.2-244.3,108.5c-72.7,19.9-41.6-158-180.2-108.6c-135.2,48.1-137.4-70.6-222.7-49.7
			C130.1,367.9,73,237.9,0,377.5V185z"/>
		<linearGradient id="SVGID_3_" gradientUnits="userSpaceOnUse" x1="1197.9429" y1="630.0412" x2="1197.9429" y2="-9.071300e-009">
			<stop  offset="0" style="stop-color:#BA2BA0"/>
			<stop  offset="1" style="stop-color:#470B96"/>
		</linearGradient>
		<path fill-rule="evenodd" clip-rule="evenodd" fill="url(#SVGID_3_)" d="M1219.3,603c6.3,40,122.7,41.5,180.7-36.3V0h-128.2
			c9.5,14.8,15,32.8,15,51.9c0,53.6-43,96.9-96.1,96.9c-53.1,0-96.1-43.3-96.1-96.9c0-19.1,5.5-37.1,15-52h-77.8
			c-122.5,188.8,103.5,139.1,170.3,240.5c63.8,97-86.1,155.2-20.1,181.9C1296.7,469.1,1210.3,546,1219.3,603L1219.3,603z
			 M1143,456.9c8,0,14.6,6.6,14.6,14.7c0,8.1-6.6,14.7-14.6,14.7c-8.1,0-14.6-6.6-14.6-14.7C1128.4,463.5,1135,456.9,1143,456.9
			L1143,456.9z M1242,373.8c8.1,0,14.6,6.5,14.6,14.7c0,8.1-6.5,14.7-14.6,14.7c-8,0-14.5-6.6-14.5-14.7
			C1227.4,380.3,1233.9,373.8,1242,373.8L1242,373.8z M1311.7,124.8c16.1,0,29.1,13.1,29.1,29.4c0,16.2-13,29.3-29.1,29.3
			c-16.1,0-29.1-13.1-29.1-29.3C1282.6,137.9,1295.7,124.8,1311.7,124.8L1311.7,124.8z"/>
	</g>
	<g>
		<path fill-rule="evenodd" clip-rule="evenodd" fill="#FFFFFF" d="M416.1,65.5c3.6,0,6.5-2.9,6.5-6.5c0-3.6-2.9-6.5-6.5-6.5
			c-3.6,0-6.5,2.9-6.5,6.5C409.6,62.6,412.5,65.5,416.1,65.5L416.1,65.5z"/>
		<path fill-rule="evenodd" clip-rule="evenodd" fill="#FFFFFF" d="M191,629.4c3.6,0,6.5-2.9,6.5-6.5s-2.9-6.5-6.5-6.5
			c-3.6,0-6.5,2.9-6.5,6.5S187.4,629.4,191,629.4L191,629.4z"/>
		<path fill-rule="evenodd" clip-rule="evenodd" fill="#FFFFFF" d="M606.2,390.6c3.6,0,6.5-2.9,6.5-6.5c0-3.6-2.9-6.5-6.5-6.5
			c-3.6,0-6.5,2.9-6.5,6.5C599.7,387.7,602.6,390.6,606.2,390.6L606.2,390.6z"/>
		<path fill-rule="evenodd" clip-rule="evenodd" fill="#FFFFFF" d="M1023.2,449.8c3.6,0,6.5-2.9,6.5-6.5c0-3.6-2.9-6.5-6.5-6.5
			s-6.5,2.9-6.5,6.5C1016.7,446.9,1019.7,449.8,1023.2,449.8L1023.2,449.8z"/>
		<path fill-rule="evenodd" clip-rule="evenodd" fill="#FFFFFF" d="M834.2,261c3.6,0,6.5-2.9,6.5-6.5c0-3.6-2.9-6.5-6.5-6.5
			c-3.6,0-6.5,2.9-6.5,6.5C827.7,258.1,830.6,261,834.2,261L834.2,261z"/>
		<path fill-rule="evenodd" clip-rule="evenodd" fill="#FFFFFF" d="M884.2,896c3.6,0,6.5-2.9,6.5-6.5s-2.9-6.5-6.5-6.5
			c-3.6,0-6.5,2.9-6.5,6.5S880.6,896,884.2,896L884.2,896z"/>
		<path fill-rule="evenodd" clip-rule="evenodd" fill="#FFFFFF" d="M483.9,616.4c3.6,0,6.5-2.9,6.5-6.5c0-3.6-2.9-6.5-6.5-6.5
			c-3.6,0-6.5,2.9-6.5,6.5C477.4,613.5,480.3,616.4,483.9,616.4L483.9,616.4z"/>
		<path fill-rule="evenodd" clip-rule="evenodd" fill="#FFFFFF" d="M289.7,460.9c1.8,0,3.3-1.5,3.3-3.3c0-1.8-1.5-3.2-3.3-3.2
			c-1.8,0-3.2,1.4-3.2,3.2C286.5,459.5,287.9,460.9,289.7,460.9L289.7,460.9z"/>
		<path fill-rule="evenodd" clip-rule="evenodd" fill="#FFFFFF" d="M377.1,529.8c1.8,0,3.3-1.5,3.3-3.3c0-1.8-1.5-3.2-3.3-3.2
			c-1.8,0-3.2,1.4-3.2,3.2C373.9,528.3,375.3,529.8,377.1,529.8L377.1,529.8z"/>
		<path fill-rule="evenodd" clip-rule="evenodd" fill="#FFFFFF" d="M860.4,59.1c1.8,0,3.3-1.5,3.3-3.3c0-1.8-1.5-3.3-3.3-3.3
			c-1.8,0-3.2,1.5-3.2,3.3C857.2,57.6,858.6,59.1,860.4,59.1L860.4,59.1z"/>
		<path fill-rule="evenodd" clip-rule="evenodd" fill="#FFFFFF" d="M974.9,599.2c1.8,0,3.2-1.4,3.2-3.2c0-1.8-1.4-3.3-3.2-3.3
			c-1.8,0-3.3,1.4-3.3,3.3C971.6,597.8,973.1,599.2,974.9,599.2L974.9,599.2z"/>
		<path fill-rule="evenodd" clip-rule="evenodd" fill="#FFFFFF" d="M823.5,910.8c1.8,0,3.3-1.5,3.3-3.3c0-1.8-1.5-3.3-3.3-3.3
			s-3.2,1.5-3.2,3.3C820.3,909.4,821.7,910.8,823.5,910.8L823.5,910.8z"/>
		<path fill-rule="evenodd" clip-rule="evenodd" fill="#FFFFFF" d="M528.8,536.8c1.8,0,3.2-1.5,3.2-3.3c0-1.8-1.4-3.3-3.2-3.3
			c-1.8,0-3.3,1.5-3.3,3.3C525.6,535.4,527,536.8,528.8,536.8L528.8,536.8z"/>
		<path fill-rule="evenodd" clip-rule="evenodd" fill="#FFFFFF" d="M54.3,348c1.8,0,3.2-1.4,3.2-3.3c0-1.8-1.4-3.2-3.2-3.2
			c-1.8,0-3.3,1.4-3.3,3.2C51.1,346.6,52.5,348,54.3,348L54.3,348z"/>
		<path fill-rule="evenodd" clip-rule="evenodd" fill="#FFFFFF" d="M995.9,327.6c1.8,0,3.2-1.5,3.2-3.3s-1.4-3.2-3.2-3.2
			c-1.8,0-3.3,1.4-3.3,3.2S994.1,327.6,995.9,327.6L995.9,327.6z"/>
		<path fill-rule="evenodd" clip-rule="evenodd" fill="#FFFFFF" d="M797.8,352.2c0.9,0,1.6-0.7,1.6-1.6c0-0.9-0.7-1.6-1.6-1.6
			c-0.9,0-1.6,0.7-1.6,1.6C796.2,351.4,796.9,352.2,797.8,352.2L797.8,352.2z"/>
		<path fill-rule="evenodd" clip-rule="evenodd" fill="#FFFFFF" d="M703,233.7c0.9,0,1.6-0.7,1.6-1.6c0-0.9-0.7-1.6-1.6-1.6
			c-0.9,0-1.6,0.7-1.6,1.6C701.4,233,702.1,233.7,703,233.7L703,233.7z"/>
		<path fill-rule="evenodd" clip-rule="evenodd" fill="#FFFFFF" d="M360.1,394.7c0.9,0,1.6-0.7,1.6-1.6c0-0.9-0.7-1.6-1.6-1.6
			c-0.9,0-1.6,0.7-1.6,1.6C358.5,394,359.3,394.7,360.1,394.7L360.1,394.7z"/>
		<path fill-rule="evenodd" clip-rule="evenodd" fill="#FFFFFF" d="M243.4,587.3c0.9,0,1.6-0.7,1.6-1.6c0-0.9-0.7-1.6-1.6-1.6
			c-0.9,0-1.6,0.7-1.6,1.6C241.8,586.6,242.5,587.3,243.4,587.3L243.4,587.3z"/>
		<path fill-rule="evenodd" clip-rule="evenodd" fill="#FFFFFF" d="M946.6,560.3c0.9,0,1.6-0.7,1.6-1.6c0-0.9-0.7-1.6-1.6-1.6
			c-0.9,0-1.6,0.7-1.6,1.6C945,559.6,945.7,560.3,946.6,560.3L946.6,560.3z"/>
		<path fill-rule="evenodd" clip-rule="evenodd" fill="#FFFFFF" d="M499.2,674.3c0.9,0,1.6-0.7,1.6-1.6c0-0.9-0.7-1.6-1.6-1.6
			c-0.9,0-1.6,0.7-1.6,1.6C497.5,673.6,498.2,674.3,499.2,674.3L499.2,674.3z"/>
		<path fill-rule="evenodd" clip-rule="evenodd" fill="#FFFFFF" d="M712.3,861.3c0.9,0,1.6-0.7,1.6-1.6c0-0.9-0.7-1.6-1.6-1.6
			c-0.9,0-1.6,0.7-1.6,1.6C710.7,860.5,711.4,861.3,712.3,861.3L712.3,861.3z"/>
		<path fill-rule="evenodd" clip-rule="evenodd" fill="#FFFFFF" d="M1147.7,66c0.9,0,1.6-0.7,1.6-1.6c0-0.9-0.7-1.6-1.6-1.6
			c-0.9,0-1.6,0.7-1.6,1.6C1146.1,65.3,1146.8,66,1147.7,66L1147.7,66z"/>
		<path fill-rule="evenodd" clip-rule="evenodd" fill="#FFFFFF" d="M936.6,365.1c0.9,0,1.6-0.7,1.6-1.6c0-0.9-0.7-1.6-1.6-1.6
			c-0.9,0-1.6,0.7-1.6,1.6C935,364.4,935.7,365.1,936.6,365.1L936.6,365.1z"/>
		<path fill-rule="evenodd" clip-rule="evenodd" fill="#FFFFFF" d="M84.8,542.8c0.9,0,1.6-0.7,1.6-1.6c0-0.9-0.7-1.6-1.6-1.6
			c-0.9,0-1.6,0.7-1.6,1.6C83.2,542.1,83.9,542.8,84.8,542.8L84.8,542.8z"/>
		<path fill-rule="evenodd" clip-rule="evenodd" fill="#FFFFFF" d="M687.7,411.7c0.9,0,1.6-0.7,1.6-1.6s-0.7-1.6-1.6-1.6
			c-0.9,0-1.6,0.7-1.6,1.6S686.8,411.7,687.7,411.7L687.7,411.7z"/>
		<path fill-rule="evenodd" clip-rule="evenodd" fill="#FFFFFF" d="M622.8,533.9c0.9,0,1.6-0.7,1.6-1.6c0-0.9-0.7-1.6-1.6-1.6
			c-0.9,0-1.6,0.7-1.6,1.6C621.2,533.2,621.9,533.9,622.8,533.9L622.8,533.9z"/>
		<path fill-rule="evenodd" clip-rule="evenodd" fill="#FFFFFF" d="M1013.9,680.2c0.9,0,1.6-0.7,1.6-1.6c0-0.9-0.7-1.6-1.6-1.6
			c-0.9,0-1.6,0.7-1.6,1.6C1012.3,679.5,1013,680.2,1013.9,680.2L1013.9,680.2z"/>
		<path fill-rule="evenodd" clip-rule="evenodd" fill="#FFFFFF" d="M1205.4,103.3c0.9,0,1.6-0.7,1.6-1.6c0-0.9-0.7-1.6-1.6-1.6
			c-0.9,0-1.6,0.7-1.6,1.6C1203.8,102.5,1204.5,103.3,1205.4,103.3L1205.4,103.3z"/>
		<path fill-rule="evenodd" clip-rule="evenodd" fill="#FFFFFF" d="M307.7,658c0.9,0,1.6-0.7,1.6-1.6c0-0.9-0.7-1.6-1.6-1.6
			c-0.9,0-1.6,0.7-1.6,1.6C306.1,657.2,306.8,658,307.7,658L307.7,658z"/>
		<path fill-rule="evenodd" clip-rule="evenodd" fill="#FFFFFF" d="M211.3,167.4c0.9,0,1.6-0.7,1.6-1.6c0-0.9-0.7-1.6-1.6-1.6
			c-0.9,0-1.6,0.7-1.6,1.6C209.7,166.7,210.5,167.4,211.3,167.4L211.3,167.4z"/>
		<path fill-rule="evenodd" clip-rule="evenodd" fill="#FFFFFF" d="M515.3,65.5c0.9,0,1.6-0.7,1.6-1.6c0-0.9-0.7-1.6-1.6-1.6
			c-0.9,0-1.6,0.7-1.6,1.6C513.7,64.8,514.4,65.5,515.3,65.5L515.3,65.5z"/>
		<path fill-rule="evenodd" clip-rule="evenodd" fill="#FFFFFF" d="M1101,167.4c0.9,0,1.6-0.7,1.6-1.6c0-0.9-0.7-1.6-1.6-1.6
			c-0.9,0-1.6,0.7-1.6,1.6C1099.4,166.7,1100.1,167.4,1101,167.4L1101,167.4z"/>
		<path fill-rule="evenodd" clip-rule="evenodd" fill="#FFFFFF" d="M586,213.9c1.8,0,3.2-1.5,3.2-3.3c0-1.8-1.4-3.2-3.2-3.2
			c-1.8,0-3.3,1.4-3.3,3.2C582.7,212.4,584.2,213.9,586,213.9L586,213.9z"/>
		<path fill-rule="evenodd" clip-rule="evenodd" fill="#FFFFFF" d="M947.4,106.5c1.8,0,3.2-1.5,3.2-3.3s-1.4-3.3-3.2-3.3
			s-3.3,1.5-3.3,3.3S945.6,106.5,947.4,106.5L947.4,106.5z"/>
		<path fill-rule="evenodd" clip-rule="evenodd" fill="#FFFFFF" d="M1084.6,273.1c1.8,0,3.3-1.4,3.3-3.2c0-1.8-1.4-3.3-3.3-3.3
			c-1.8,0-3.2,1.4-3.2,3.3C1081.3,271.7,1082.8,273.1,1084.6,273.1L1084.6,273.1z"/>
		<path fill-rule="evenodd" clip-rule="evenodd" fill="#FFFFFF" d="M1294,208.3c1.8,0,3.3-1.4,3.3-3.3c0-1.8-1.5-3.2-3.3-3.2
			s-3.3,1.4-3.3,3.2C1290.8,206.9,1292.2,208.3,1294,208.3L1294,208.3z"/>
		<path fill-rule="evenodd" clip-rule="evenodd" fill="#FFFFFF" d="M899.2,456.4c1.8,0,3.2-1.5,3.2-3.3c0-1.8-1.4-3.2-3.2-3.2
			s-3.3,1.4-3.3,3.2C896,454.9,897.4,456.4,899.2,456.4L899.2,456.4z"/>
		<path fill-rule="evenodd" clip-rule="evenodd" fill="#FFFFFF" d="M1229.1,602.7c1.8,0,3.3-1.4,3.3-3.2s-1.5-3.3-3.3-3.3
			s-3.3,1.5-3.3,3.3S1227.4,602.7,1229.1,602.7L1229.1,602.7z"/>
		<path fill-rule="evenodd" clip-rule="evenodd" fill="#FFFFFF" d="M1053.6,883.6c1.8,0,3.3-1.5,3.3-3.3c0-1.8-1.4-3.2-3.3-3.2
			c-1.8,0-3.2,1.4-3.2,3.2C1050.4,882.2,1051.8,883.6,1053.6,883.6L1053.6,883.6z"/>
		<path fill-rule="evenodd" clip-rule="evenodd" fill="#FFFFFF" d="M391.8,753.4c1.8,0,3.2-1.4,3.2-3.2c0-1.8-1.4-3.3-3.2-3.3
			s-3.3,1.4-3.3,3.3C388.5,751.9,390,753.4,391.8,753.4L391.8,753.4z"/>
		<path fill-rule="evenodd" clip-rule="evenodd" fill="#FFFFFF" d="M502.5,471.6c1.8,0,3.2-1.5,3.2-3.3c0-1.8-1.4-3.2-3.2-3.2
			c-1.8,0-3.3,1.4-3.3,3.2C499.3,470.1,500.7,471.6,502.5,471.6L502.5,471.6z"/>
		<path fill-rule="evenodd" clip-rule="evenodd" fill="#FFFFFF" d="M712,89.8c1.8,0,3.3-1.4,3.3-3.2s-1.5-3.3-3.3-3.3
			c-1.8,0-3.2,1.5-3.2,3.3S710.2,89.8,712,89.8L712,89.8z"/>
		<path fill-rule="evenodd" clip-rule="evenodd" fill="#FFFFFF" d="M1261.6,163c3.6,0,6.5-2.9,6.5-6.5c0-3.6-2.9-6.5-6.5-6.5
			c-3.6,0-6.5,2.9-6.5,6.5C1255.1,160.1,1258,163,1261.6,163L1261.6,163z"/>
		<path fill-rule="evenodd" clip-rule="evenodd" fill="#FFFFFF" d="M1309.8,96.3c3.6,0,6.5-2.9,6.5-6.5c0-3.6-2.9-6.5-6.5-6.5
			c-3.6,0-6.5,2.9-6.5,6.5C1303.3,93.4,1306.2,96.3,1309.8,96.3L1309.8,96.3z"/>
		<path fill-rule="evenodd" clip-rule="evenodd" fill="#FFFFFF" d="M1067,588.8c3.6,0,6.5-2.9,6.5-6.5c0-3.6-2.9-6.5-6.5-6.5
			c-3.6,0-6.5,2.9-6.5,6.5C1060.5,585.9,1063.4,588.8,1067,588.8L1067,588.8z"/>
		<path fill-rule="evenodd" clip-rule="evenodd" fill="#FFFFFF" d="M544.3,839.1c3.6,0,6.5-2.9,6.5-6.5c0-3.6-2.9-6.5-6.5-6.5
			c-3.6,0-6.5,2.9-6.5,6.5C537.8,836.2,540.7,839.1,544.3,839.1L544.3,839.1z"/>
		<path fill-rule="evenodd" clip-rule="evenodd" fill="#FFFFFF" d="M420.1,538.8c3.6,0,6.5-2.9,6.5-6.5c0-3.6-2.9-6.5-6.5-6.5
			s-6.5,2.9-6.5,6.5C413.6,535.9,416.5,538.8,420.1,538.8L420.1,538.8z"/>
		<path fill-rule="evenodd" clip-rule="evenodd" fill="#FFFFFF" d="M99.4,407.4c3.6,0,6.5-2.9,6.5-6.5c0-3.6-2.9-6.5-6.5-6.5
			c-3.6,0-6.5,2.9-6.5,6.5C93,404.5,95.9,407.4,99.4,407.4L99.4,407.4z"/>
		<path fill-rule="evenodd" clip-rule="evenodd" fill="#FFFFFF" d="M1349.6,43.4c0.9,0,1.6-0.7,1.6-1.6c0-0.9-0.7-1.6-1.6-1.6
			c-0.9,0-1.6,0.7-1.6,1.6C1348,42.7,1348.7,43.4,1349.6,43.4L1349.6,43.4z"/>
	</g>
</g>
<g id="Layer_2">
	<g>
		<linearGradient id="SVGID_4_" gradientUnits="userSpaceOnUse" x1="279.1928" y1="980" x2="279.1928" y2="607.845">
			<stop  offset="0" style="stop-color:#FFB977"/>
			<stop  offset="1" style="stop-color:#8C22F7"/>
		</linearGradient>
		<path fill-rule="evenodd" clip-rule="evenodd" fill="url(#SVGID_4_)" d="M0,980V607.8c70.3,10.5,87,56.9,83.7,116.4
			c57.4-32.6,114-7.9,112.8,74.3c30.4-10.4,44.1,3.8,43.8,38.3c24.2-58.9,101.2-62.9,103.6,19.9c27.1-30.4,97.9,0,72.1,58.5
			c56.5-49.7,150.6-16.9,141.9,64.8H0z"/>
		<linearGradient id="SVGID_5_" gradientUnits="userSpaceOnUse" x1="244.1615" y1="980" x2="244.1615" y2="699.8057">
			<stop  offset="0" style="stop-color:#FF7C58"/>
			<stop  offset="1" style="stop-color:#720BDA"/>
		</linearGradient>
		<path fill-rule="evenodd" clip-rule="evenodd" fill="url(#SVGID_5_)" d="M0,980V700c24-3.4,73.9,48.6,28,102
			c14.8-6,75,14.1,70.2,107.6c15.5-10,19-38.4,7.6-51.6c21.5-22.9,99.1-15.1,79.7,64c44.9-53.3,111.3-26.8,125.8,8.7
			c-19.1-6.8-35.4,8.6-41.3,23.7c23.7-19,71.9-14.5,77.7,12.9c49.4-31.1,119.1-32.2,140.7,12.7H0z"/>
	</g>
	<g>
		<g>
			<linearGradient id="SVGID_6_" gradientUnits="userSpaceOnUse" x1="1178.0737" y1="916.4896" x2="1275.921" y2="747.0131">
				<stop  offset="0" style="stop-color:#FFB977"/>
				<stop  offset="1" style="stop-color:#8C22F7;stop-opacity:0"/>
			</linearGradient>
			<path fill-rule="evenodd" clip-rule="evenodd" fill="url(#SVGID_6_)" d="M1160.7,873c8.2-8.1,105.7-89.5,131.5-109.9
				c3.2-2.5,7.9-3.2,11.1,0c3.2,3.2,2.7,7.4,0,11.1c-19.5,25.9-102.7,124.1-110,131.3c-9,9-23.6,9-32.6,0
				C1151.7,896.6,1152.6,881.2,1160.7,873L1160.7,873z"/>
			<linearGradient id="SVGID_7_" gradientUnits="userSpaceOnUse" x1="1175.6797" y1="902.9145" x2="1175.6797" y2="876.2195">
				<stop  offset="0" style="stop-color:#FF7C58"/>
				<stop  offset="1" style="stop-color:#720BDA"/>
			</linearGradient>
			<path fill-rule="evenodd" clip-rule="evenodd" fill="url(#SVGID_7_)" d="M1175.7,876.2c7.4,0,13.3,6,13.3,13.4s-6,13.3-13.3,13.3
				s-13.4-5.9-13.4-13.3S1168.3,876.2,1175.7,876.2L1175.7,876.2z"/>
		</g>
		<g>
			<linearGradient id="SVGID_8_" gradientUnits="userSpaceOnUse" x1="1226.0476" y1="782.726" x2="1273.387" y2="700.7318">
				<stop  offset="0" style="stop-color:#FFB977"/>
				<stop  offset="1" style="stop-color:#8C22F7;stop-opacity:0"/>
			</linearGradient>
			<path fill-rule="evenodd" clip-rule="evenodd" fill="url(#SVGID_8_)" d="M1211.8,754.7c4.9-3.3,62.6-34.5,77.7-42.1
				c1.9-0.9,4.3-0.8,5.6,1.2c1.3,1.9,0.6,4-1.1,5.6c-12.5,11.1-64.6,52.2-69,55.1c-5.5,3.6-12.8,2.1-16.5-3.3
				C1204.8,765.7,1206.9,758,1211.8,754.7L1211.8,754.7z"/>
			<linearGradient id="SVGID_9_" gradientUnits="userSpaceOnUse" x1="1217.6764" y1="771.4958" x2="1217.6764" y2="757.7161">
				<stop  offset="0" style="stop-color:#FF7C58"/>
				<stop  offset="1" style="stop-color:#720BDA"/>
			</linearGradient>
			<path fill-rule="evenodd" clip-rule="evenodd" fill="url(#SVGID_9_)" d="M1219,757.9c3.7,0.7,6.2,4.4,5.4,8.1
				c-0.7,3.7-4.4,6.1-8.1,5.4c-3.7-0.8-6.2-4.4-5.4-8.1C1211.7,759.5,1215.3,757.1,1219,757.9L1219,757.9z"/>
		</g>
	</g>
	<g>
		<g>
			<linearGradient id="SVGID_10_" gradientUnits="userSpaceOnUse" x1="303.6641" y1="378.5451" x2="104.1086" y2="178.9896">
				<stop  offset="0" style="stop-color:#FFB977"/>
				<stop  offset="1" style="stop-color:#8C22F7;stop-opacity:0"/>
			</linearGradient>
			<path fill-rule="evenodd" clip-rule="evenodd" fill="url(#SVGID_10_)" d="M303.7,332.9c-11.4-11.4-148-125.4-184.1-153.9
				c-4.5-3.5-11.1-4.5-15.6,0c-4.5,4.5-3.9,10.4,0,15.5c27.3,36.3,143.8,173.7,154,183.9c12.6,12.6,33,12.6,45.6,0
				C316.3,365.9,315.1,344.4,303.7,332.9L303.7,332.9z"/>
			<linearGradient id="SVGID_11_" gradientUnits="userSpaceOnUse" x1="282.7487" y1="374.8236" x2="282.7487" y2="337.4227">
				<stop  offset="0" style="stop-color:#FF7C58"/>
				<stop  offset="1" style="stop-color:#720BDA"/>
			</linearGradient>
			<path fill-rule="evenodd" clip-rule="evenodd" fill="url(#SVGID_11_)" d="M282.7,337.4c-10.3,0-18.7,8.4-18.7,18.7
				c0,10.3,8.4,18.7,18.7,18.7c10.3,0,18.7-8.4,18.7-18.7C301.5,345.8,293.1,337.4,282.7,337.4L282.7,337.4z"/>
		</g>
		<g>
			<linearGradient id="SVGID_12_" gradientUnits="userSpaceOnUse" x1="244.9772" y1="130.5316" x2="86.1738" y2="38.8464">
				<stop  offset="0" style="stop-color:#FFB977"/>
				<stop  offset="1" style="stop-color:#8C22F7;stop-opacity:0"/>
			</linearGradient>
			<path fill-rule="evenodd" clip-rule="evenodd" fill="url(#SVGID_12_)" d="M236.6,101.5c-9.2-4.9-115.9-49.6-143.8-60.4
				c-3.5-1.3-7.7-0.7-9.7,3c-1.9,3.7-0.4,7.2,3,9.7C110,71.1,208.7,134.1,217,138.6c10.3,5.4,22.9,1.5,28.4-8.7
				C250.8,119.6,245.9,106.4,236.6,101.5L236.6,101.5z"/>
			<linearGradient id="SVGID_13_" gradientUnits="userSpaceOnUse" x1="228.0548" y1="132.0751" x2="228.0548" y2="107.7604">
				<stop  offset="0" style="stop-color:#FF7C58"/>
				<stop  offset="1" style="stop-color:#720BDA"/>
			</linearGradient>
			<path fill-rule="evenodd" clip-rule="evenodd" fill="url(#SVGID_13_)" d="M224.5,108.3c-6.4,2-10,8.8-8.1,15.2
				c2,6.4,8.8,10,15.2,8c6.4-2,10-8.8,8.1-15.2C237.7,109.9,230.9,106.3,224.5,108.3L224.5,108.3z"/>
		</g>
		<g>
			<linearGradient id="SVGID_14_" gradientUnits="userSpaceOnUse" x1="672.4807" y1="156.7506" x2="568.3498" y2="96.6306">
				<stop  offset="0" style="stop-color:#FFB977"/>
				<stop  offset="1" style="stop-color:#8C22F7;stop-opacity:0"/>
			</linearGradient>
			<path fill-rule="evenodd" clip-rule="evenodd" fill="url(#SVGID_14_)" d="M667.5,132.5c-6.6-2.3-81.1-21.4-100.4-25.8
				c-2.4-0.6-5.1,0.3-6.1,2.9c-0.9,2.6,0.4,4.8,2.9,6.1c17.4,9.1,88.4,41.1,94.3,43.1c7.3,2.6,15.2-1.2,17.8-8.5
				C678.5,143,674,134.8,667.5,132.5L667.5,132.5z"/>
			<linearGradient id="SVGID_15_" gradientUnits="userSpaceOnUse" x1="663.6095" y1="153.5171" x2="663.6095" y2="137.3632">
				<stop  offset="0" style="stop-color:#FF7C58"/>
				<stop  offset="1" style="stop-color:#720BDA"/>
			</linearGradient>
			<path fill-rule="evenodd" clip-rule="evenodd" fill="url(#SVGID_15_)" d="M660.1,138.1c-4,1.9-5.7,6.8-3.8,10.8
				c1.9,4,6.7,5.7,10.8,3.8c4-1.9,5.7-6.7,3.8-10.8C669,137.9,664.2,136.2,660.1,138.1L660.1,138.1z"/>
		</g>
	</g>
	<g>
		<g>
			<linearGradient id="SVGID_16_" gradientUnits="userSpaceOnUse" x1="1351.7626" y1="554.509" x2="1267.5739" y2="408.6899">
				<stop  offset="0" style="stop-color:#FFB977"/>
				<stop  offset="1" style="stop-color:#8C22F7;stop-opacity:0"/>
			</linearGradient>
			<path fill-rule="evenodd" clip-rule="evenodd" fill="url(#SVGID_16_)" d="M1239.4,427.5c-3.8,72.5,71.9,86.4,107.9,129.6
				c-15-54.1,16.8-124.2-45-162.4l-33.2,13.1L1239.4,427.5z"/>
			<linearGradient id="SVGID_17_" gradientUnits="userSpaceOnUse" x1="1313.8224" y1="487.1116" x2="1268.3027" y2="408.2691">
				<stop  offset="0" style="stop-color:#FFB977"/>
				<stop  offset="1" style="stop-color:#8C22F7;stop-opacity:0"/>
			</linearGradient>
			<path fill-rule="evenodd" clip-rule="evenodd" fill="url(#SVGID_17_)" d="M1253.1,418.5c-2.1,39.2,38.9,46.7,58.3,70
				c-8.1-29.3,9.1-67.2-24.3-87.8l-18,7.1L1253.1,418.5z"/>
		</g>
		<g>
			<g>
				<linearGradient id="SVGID_18_" gradientUnits="userSpaceOnUse" x1="1240.8685" y1="419.95" x2="1240.8685" y2="234.0367">
					<stop  offset="0" style="stop-color:#FF4998"/>
					<stop  offset="1" style="stop-color:#5600AC"/>
				</linearGradient>
				<path fill-rule="evenodd" clip-rule="evenodd" fill="url(#SVGID_18_)" d="M1176.7,234c-26,45.1-59.8,154.3-42.9,183.4
					c7.8,13.4,76.8-30.3,113.2-49.3c36.4-19,111.7-50.8,105-64.8C1337.7,272.9,1228.7,238.4,1176.7,234L1176.7,234z"/>
				<linearGradient id="SVGID_19_" gradientUnits="userSpaceOnUse" x1="1233.2982" y1="409.4255" x2="1233.2982" y2="253.9442">
					<stop  offset="0" style="stop-color:#BA2BA0"/>
					<stop  offset="1" style="stop-color:#470B96"/>
				</linearGradient>
				<path fill-rule="evenodd" clip-rule="evenodd" fill="url(#SVGID_19_)" d="M1143.3,317.1c-1,3.4-2,6.8-2.9,10.1
					c12.8,18.4,27.5,37.3,51.1,58.7c2.5-1.3,4.9-2.6,7.4-3.8C1174.4,361.5,1157.8,339.5,1143.3,317.1L1143.3,317.1z M1135.1,348.9
					c-0.7,3.4-1.4,6.7-2,10c10,12.8,21.9,26.1,37.8,40.6c2.5-1.3,4.9-2.6,7.4-3.8C1160.4,380.7,1146.8,365,1135.1,348.9
					L1135.1,348.9z M1130,380.6c-0.4,3.6-0.6,7-0.6,10.3c5.6,6,11.9,12.1,18.9,18.5c2.5-1.3,4.9-2.6,7.4-3.8
					C1145.9,397.5,1137.5,389.1,1130,380.6L1130,380.6z M1332.8,284.6c-2.7-1.8-5.6-3.6-8.8-5.3c2.7,11.1,4.7,22.7,5.8,35.3
					c2.5-1.3,4.9-2.6,7.4-3.9C1336,301.2,1334.5,292.6,1332.8,284.6L1332.8,284.6z M1304.4,269.4c-3-1.4-6.2-2.7-9.4-4.1
					c6.5,18.8,11.7,38.9,13.8,62.1c2.5-1.3,4.9-2.6,7.4-3.9C1313.4,302.2,1309.2,284.9,1304.4,269.4L1304.4,269.4z M1274.1,257.3
					c-3.3-1.2-6.6-2.3-9.9-3.4c10.1,24.7,18.8,50.8,21.7,82.6c2.5-1.3,4.9-2.6,7.4-3.8C1289,301.1,1281.9,278.3,1274.1,257.3
					L1274.1,257.3z"/>
			</g>
			<g>
				<linearGradient id="SVGID_20_" gradientUnits="userSpaceOnUse" x1="1154.0413" y1="227.809" x2="1154.0413" y2="149.3438">
					<stop  offset="0" style="stop-color:#FF7C58"/>
					<stop  offset="1" style="stop-color:#720BDA"/>
				</linearGradient>
				<path fill-rule="evenodd" clip-rule="evenodd" fill="url(#SVGID_20_)" d="M1132.5,149.5c3.1-1.6,13.1,8.7,20.7,23.4
					c8.6,16.3,16.1,33.2,23.6,50.1l-9.1,4.8c-9.6-15.8-19.2-31.6-27.8-47.9C1132.2,165.3,1129.4,151.1,1132.5,149.5L1132.5,149.5z"
					/>
				<linearGradient id="SVGID_21_" gradientUnits="userSpaceOnUse" x1="1176.4109" y1="279.3795" x2="1176.4109" y2="190.1192">
					<stop  offset="0" style="stop-color:#FF7C58"/>
					<stop  offset="1" style="stop-color:#720BDA"/>
				</linearGradient>
				<path fill-rule="evenodd" clip-rule="evenodd" fill="url(#SVGID_21_)" d="M1155.5,193.3c13.1-6.9,34.9-2.6,42.5,12
					c8.5,16.3,12.6,35.1,16.6,53.7l-38.8,20.3c-13.1-14-26.2-28-34.7-44.3C1133.4,220.4,1142.3,200.2,1155.5,193.3L1155.5,193.3z"/>
				<linearGradient id="SVGID_22_" gradientUnits="userSpaceOnUse" x1="1200.3899" y1="364.5025" x2="1200.3899" y2="198.8543">
					<stop  offset="0" style="stop-color:#FF7C58"/>
					<stop  offset="1" style="stop-color:#720BDA"/>
				</linearGradient>
				<path fill-rule="evenodd" clip-rule="evenodd" fill="url(#SVGID_22_)" d="M1161.4,204.8c24.4-12.7,64.7-4.8,78.9,22.4
					c15.9,30.3,23.4,65,30.9,99.7l-72,37.6c-24.3-25.9-48.5-51.9-64.4-82.2C1120.6,255.1,1137,217.6,1161.4,204.8L1161.4,204.8z"/>
			</g>
			<g>
				<linearGradient id="SVGID_23_" gradientUnits="userSpaceOnUse" x1="1213.022" y1="364.6074" x2="1213.022" y2="223.3218">
					<stop  offset="0" style="stop-color:#BA2BA0"/>
					<stop  offset="1" style="stop-color:#470B96"/>
				</linearGradient>
				<path fill-rule="evenodd" clip-rule="evenodd" fill="url(#SVGID_23_)" d="M1226.8,251.4c20.2,22.4,32.9,52.3,40.3,81.5
					l-60.6,31.7c-19.8-22.7-37.1-50.2-44-79.6C1147.3,220.5,1182.4,202.1,1226.8,251.4L1226.8,251.4z"/>
				<linearGradient id="SVGID_24_" gradientUnits="userSpaceOnUse" x1="1213.5878" y1="353.7615" x2="1213.5878" y2="236.0306">
					<stop  offset="0" style="stop-color:#FFB977"/>
					<stop  offset="1" style="stop-color:#8C22F7"/>
				</linearGradient>
				<path fill-rule="evenodd" clip-rule="evenodd" fill="url(#SVGID_24_)" d="M1224.6,259.6c17,18.9,28.9,40.5,35.1,65l-55.7,29.1
					c-16.6-19.1-27.6-41.1-33.5-65.8C1157.7,233.6,1187.3,218.2,1224.6,259.6L1224.6,259.6z"/>
				<path fill-rule="evenodd" clip-rule="evenodd" fill="#FFFFFF" d="M1187.5,257.1c3.7,9.1-6.8,18.5-0.8,35.6
					c1.6,4.5-1.6,8.5-3.5,3.6c-3.2-8.3-7.9-22.3-7.1-33.3C1176.9,250.4,1183,246.1,1187.5,257.1L1187.5,257.1z M1189.9,307
					c1.6-0.8,3.9,0.4,5.1,2.7c1.2,2.3,0.9,4.9-0.7,5.7s-3.9-0.4-5.1-2.7C1188,310.3,1188.3,307.8,1189.9,307L1189.9,307z"/>
			</g>
			<g>
				<linearGradient id="SVGID_25_" gradientUnits="userSpaceOnUse" x1="1256.1945" y1="416.9419" x2="1256.1945" y2="355.8257">
					<stop  offset="0" style="stop-color:#FF4998"/>
					<stop  offset="1" style="stop-color:#5600AC"/>
				</linearGradient>
				<path fill-rule="evenodd" clip-rule="evenodd" fill="url(#SVGID_25_)" d="M1226.2,416.5l72.4-37.8c2.1-1,2.8-3.6,1.8-5.6
					l-9-17.2l-79.8,41.7l9,17.2C1221.6,416.7,1224.2,417.5,1226.2,416.5L1226.2,416.5z"/>
				<linearGradient id="SVGID_26_" gradientUnits="userSpaceOnUse" x1="1255.0872" y1="408.0736" x2="1255.0872" y2="359.7443">
					<stop  offset="0" style="stop-color:#FF7C58"/>
					<stop  offset="1" style="stop-color:#720BDA"/>
				</linearGradient>
				<path fill-rule="evenodd" clip-rule="evenodd" fill="url(#SVGID_26_)" d="M1227.9,408l3.6-1.9c0.5-0.3,0.6-1.2,0.2-2l-7-13.4
					l-5.6,2.9l7,13.4C1226.5,407.8,1227.3,408.3,1227.9,408L1227.9,408z M1287,377.1l3.6-1.9c0.6-0.3,0.7-1.2,0.2-2l-7-13.4
					l-5.6,2.9l7,13.4C1285.7,376.9,1286.5,377.3,1287,377.1L1287,377.1z M1275.2,383.3l3.6-1.9c0.6-0.3,0.7-1.2,0.2-2l-7-13.4
					l-5.6,3l7,13.4C1273.8,383.1,1274.6,383.5,1275.2,383.3L1275.2,383.3z M1263.4,389.4l3.6-1.9c0.6-0.3,0.7-1.2,0.2-2.1l-7-13.4
					l-5.6,2.9l7,13.4C1262,389.3,1262.8,389.7,1263.4,389.4L1263.4,389.4z M1251.5,395.6l3.6-1.9c0.5-0.3,0.6-1.2,0.2-2.1l-7-13.4
					l-5.6,2.9l7,13.4C1250.2,395.4,1251,395.9,1251.5,395.6L1251.5,395.6z M1239.7,401.8l3.6-1.9c0.5-0.3,0.6-1.2,0.2-2.1l-7-13.4
					l-5.6,2.9l7,13.4C1238.3,401.6,1239.1,402.1,1239.7,401.8L1239.7,401.8z"/>
			</g>
			<g>
				<linearGradient id="SVGID_27_" gradientUnits="userSpaceOnUse" x1="1241.2985" y1="398.3978" x2="1241.2985" y2="316.1421">
					<stop  offset="0" style="stop-color:#FF7C58"/>
					<stop  offset="1" style="stop-color:#720BDA"/>
				</linearGradient>
				<path fill-rule="evenodd" clip-rule="evenodd" fill="url(#SVGID_27_)" d="M1191.2,358.7L1271,317c3.8-2,8.5-0.5,10.5,3.3
					l13.1,25c2,3.8,0.5,8.5-3.3,10.5l-79.8,41.7c-3.8,2-8.5,0.5-10.5-3.3l-13.1-25.1C1186,365.4,1187.4,360.7,1191.2,358.7
					L1191.2,358.7z"/>
				<linearGradient id="SVGID_28_" gradientUnits="userSpaceOnUse" x1="1241.2843" y1="388.3635" x2="1241.2843" y2="326.1569">
					<stop  offset="0" style="stop-color:#FFB977"/>
					<stop  offset="1" style="stop-color:#8C22F7"/>
				</linearGradient>
				<path fill-rule="evenodd" clip-rule="evenodd" fill="url(#SVGID_28_)" d="M1191,375.1l93.6-48.9l2.1,4.1l-93.6,48.9L1191,375.1z
					 M1195.8,384.3l93.6-48.9l2.1,4.1l-93.6,48.9L1195.8,384.3z"/>
			</g>
		</g>
	</g>
	<g>
		<g>
			<linearGradient id="SVGID_29_" gradientUnits="userSpaceOnUse" x1="769.4246" y1="845.5711" x2="769.4246" y2="471.5971">
				<stop  offset="0" style="stop-color:#FF7C58"/>
				<stop  offset="1" style="stop-color:#720BDA"/>
			</linearGradient>
			<path opacity="0" fill-rule="evenodd" clip-rule="evenodd" fill="url(#SVGID_29_)" d="M769.4,471.6c103.4,0,187.2,83.7,187.2,187
				c0,103.2-83.8,187-187.2,187s-187.2-83.7-187.2-187C582.2,555.3,666,471.6,769.4,471.6L769.4,471.6z"/>
			<linearGradient id="SVGID_30_" gradientUnits="userSpaceOnUse" x1="769.4246" y1="844.8817" x2="769.4246" y2="472.2865">
				<stop  offset="0" style="stop-color:#FF7C58"/>
				<stop  offset="1" style="stop-color:#720BDA"/>
			</linearGradient>
			<path opacity="9.803922e-003" fill-rule="evenodd" clip-rule="evenodd" fill="url(#SVGID_30_)" d="M769.4,472.3
				c103,0,186.5,83.4,186.5,186.3c0,102.9-83.5,186.3-186.5,186.3c-103,0-186.5-83.4-186.5-186.3
				C582.9,555.7,666.4,472.3,769.4,472.3L769.4,472.3z"/>
			<linearGradient id="SVGID_31_" gradientUnits="userSpaceOnUse" x1="769.4246" y1="844.1922" x2="769.4246" y2="472.976">
				<stop  offset="0" style="stop-color:#FF7C58"/>
				<stop  offset="1" style="stop-color:#720BDA"/>
			</linearGradient>
			<path opacity="1.960784e-002" fill-rule="evenodd" clip-rule="evenodd" fill="url(#SVGID_31_)" d="M769.4,473
				c102.6,0,185.8,83.1,185.8,185.6c0,102.5-83.2,185.6-185.8,185.6c-102.6,0-185.8-83.1-185.8-185.6
				C583.6,556.1,666.8,473,769.4,473L769.4,473z"/>
			<linearGradient id="SVGID_32_" gradientUnits="userSpaceOnUse" x1="769.4246" y1="843.5027" x2="769.4246" y2="473.6654">
				<stop  offset="0" style="stop-color:#FF7C58"/>
				<stop  offset="1" style="stop-color:#720BDA"/>
			</linearGradient>
			<path opacity="2.941176e-002" fill-rule="evenodd" clip-rule="evenodd" fill="url(#SVGID_32_)" d="M769.4,473.7
				c102.3,0,185.1,82.8,185.1,184.9c0,102.1-82.9,184.9-185.1,184.9c-102.3,0-185.1-82.8-185.1-184.9
				C584.3,556.5,667.2,473.7,769.4,473.7L769.4,473.7z"/>
			<linearGradient id="SVGID_33_" gradientUnits="userSpaceOnUse" x1="769.4246" y1="842.8133" x2="769.4246" y2="474.3549">
				<stop  offset="0" style="stop-color:#FF7C58"/>
				<stop  offset="1" style="stop-color:#720BDA"/>
			</linearGradient>
			<path opacity="3.921569e-002" fill-rule="evenodd" clip-rule="evenodd" fill="url(#SVGID_33_)" d="M769.4,474.4
				c101.9,0,184.5,82.5,184.5,184.2c0,101.7-82.6,184.2-184.5,184.2c-101.9,0-184.5-82.5-184.5-184.2
				C585,556.8,667.6,474.4,769.4,474.4L769.4,474.4z"/>
			<linearGradient id="SVGID_34_" gradientUnits="userSpaceOnUse" x1="769.4246" y1="842.1238" x2="769.4246" y2="475.0443">
				<stop  offset="0" style="stop-color:#FF7C58"/>
				<stop  offset="1" style="stop-color:#720BDA"/>
			</linearGradient>
			<path opacity="4.901961e-002" fill-rule="evenodd" clip-rule="evenodd" fill="url(#SVGID_34_)" d="M769.4,475
				c101.5,0,183.8,82.2,183.8,183.6c0,101.3-82.3,183.5-183.8,183.5c-101.5,0-183.8-82.2-183.8-183.5
				C585.7,557.2,667.9,475,769.4,475L769.4,475z"/>
			<linearGradient id="SVGID_35_" gradientUnits="userSpaceOnUse" x1="769.4246" y1="841.4344" x2="769.4246" y2="475.7338">
				<stop  offset="0" style="stop-color:#FF7C58"/>
				<stop  offset="1" style="stop-color:#720BDA"/>
			</linearGradient>
			<path opacity="5.882353e-002" fill-rule="evenodd" clip-rule="evenodd" fill="url(#SVGID_35_)" d="M769.4,475.7
				c101.1,0,183.1,81.9,183.1,182.9c0,101-82,182.8-183.1,182.8c-101.1,0-183.1-81.9-183.1-182.8
				C586.4,557.6,668.3,475.7,769.4,475.7L769.4,475.7z"/>
			<linearGradient id="SVGID_36_" gradientUnits="userSpaceOnUse" x1="769.4246" y1="840.745" x2="769.4246" y2="476.4232">
				<stop  offset="0" style="stop-color:#FF7C58"/>
				<stop  offset="1" style="stop-color:#720BDA"/>
			</linearGradient>
			<path opacity="6.862745e-002" fill-rule="evenodd" clip-rule="evenodd" fill="url(#SVGID_36_)" d="M769.4,476.4
				c100.7,0,182.4,81.6,182.4,182.2c0,100.6-81.7,182.1-182.4,182.1c-100.7,0-182.4-81.6-182.4-182.1
				C587,558,668.7,476.4,769.4,476.4L769.4,476.4z"/>
			<linearGradient id="SVGID_37_" gradientUnits="userSpaceOnUse" x1="769.4247" y1="840.0555" x2="769.4247" y2="477.1126">
				<stop  offset="0" style="stop-color:#FF7C58"/>
				<stop  offset="1" style="stop-color:#720BDA"/>
			</linearGradient>
			<path opacity="7.843138e-002" fill-rule="evenodd" clip-rule="evenodd" fill="url(#SVGID_37_)" d="M769.4,477.1
				c100.3,0,181.7,81.3,181.7,181.5c0,100.2-81.3,181.5-181.7,181.5c-100.3,0-181.7-81.3-181.7-181.5
				C587.7,558.4,669.1,477.1,769.4,477.1L769.4,477.1z"/>
			<linearGradient id="SVGID_38_" gradientUnits="userSpaceOnUse" x1="769.4247" y1="839.3661" x2="769.4247" y2="477.8021">
				<stop  offset="0" style="stop-color:#FF7C58"/>
				<stop  offset="1" style="stop-color:#720BDA"/>
			</linearGradient>
			<path opacity="8.823530e-002" fill-rule="evenodd" clip-rule="evenodd" fill="url(#SVGID_38_)" d="M769.4,477.8
				c100,0,181,80.9,181,180.8c0,99.8-81,180.8-181,180.8c-100,0-181-80.9-181-180.8C588.4,558.7,669.5,477.8,769.4,477.8
				L769.4,477.8z"/>
			<linearGradient id="SVGID_39_" gradientUnits="userSpaceOnUse" x1="769.4247" y1="838.6766" x2="769.4247" y2="478.4915">
				<stop  offset="0" style="stop-color:#FF7C58"/>
				<stop  offset="1" style="stop-color:#720BDA"/>
			</linearGradient>
			<path opacity="9.803922e-002" fill-rule="evenodd" clip-rule="evenodd" fill="url(#SVGID_39_)" d="M769.4,478.5
				c99.6,0,180.3,80.6,180.3,180.1c0,99.4-80.7,180.1-180.3,180.1c-99.6,0-180.3-80.6-180.3-180.1
				C589.1,559.1,669.8,478.5,769.4,478.5L769.4,478.5z"/>
			<linearGradient id="SVGID_40_" gradientUnits="userSpaceOnUse" x1="769.4247" y1="837.9872" x2="769.4247" y2="479.181">
				<stop  offset="0" style="stop-color:#FF7C58"/>
				<stop  offset="1" style="stop-color:#720BDA"/>
			</linearGradient>
			<path opacity="0.1078" fill-rule="evenodd" clip-rule="evenodd" fill="url(#SVGID_40_)" d="M769.4,479.2
				c99.2,0,179.6,80.3,179.6,179.4c0,99.1-80.4,179.4-179.6,179.4c-99.2,0-179.6-80.3-179.6-179.4
				C589.8,559.5,670.2,479.2,769.4,479.2L769.4,479.2z"/>
			<linearGradient id="SVGID_41_" gradientUnits="userSpaceOnUse" x1="769.4247" y1="837.2977" x2="769.4247" y2="479.8704">
				<stop  offset="0" style="stop-color:#FF7C58"/>
				<stop  offset="1" style="stop-color:#720BDA"/>
			</linearGradient>
			<path opacity="0.1176" fill-rule="evenodd" clip-rule="evenodd" fill="url(#SVGID_41_)" d="M769.4,479.9
				c98.8,0,178.9,80,178.9,178.7c0,98.7-80.1,178.7-178.9,178.7c-98.8,0-178.9-80-178.9-178.7C590.5,559.9,670.6,479.9,769.4,479.9
				L769.4,479.9z"/>
			<linearGradient id="SVGID_42_" gradientUnits="userSpaceOnUse" x1="769.4247" y1="836.6083" x2="769.4247" y2="480.5599">
				<stop  offset="0" style="stop-color:#FF7C58"/>
				<stop  offset="1" style="stop-color:#720BDA"/>
			</linearGradient>
			<path opacity="0.1275" fill-rule="evenodd" clip-rule="evenodd" fill="url(#SVGID_42_)" d="M769.4,480.6
				c98.4,0,178.2,79.7,178.2,178c0,98.3-79.8,178-178.2,178c-98.4,0-178.2-79.7-178.2-178C591.2,560.3,671,480.6,769.4,480.6
				L769.4,480.6z"/>
			<linearGradient id="SVGID_43_" gradientUnits="userSpaceOnUse" x1="769.4247" y1="835.9188" x2="769.4247" y2="481.2493">
				<stop  offset="0" style="stop-color:#FF7C58"/>
				<stop  offset="1" style="stop-color:#720BDA"/>
			</linearGradient>
			<path opacity="0.1373" fill-rule="evenodd" clip-rule="evenodd" fill="url(#SVGID_43_)" d="M769.4,481.2
				c98.1,0,177.5,79.4,177.5,177.4c0,97.9-79.5,177.3-177.5,177.3c-98.1,0-177.5-79.4-177.5-177.3
				C591.9,560.7,671.4,481.2,769.4,481.2L769.4,481.2z"/>
			<linearGradient id="SVGID_44_" gradientUnits="userSpaceOnUse" x1="769.4247" y1="835.2294" x2="769.4247" y2="481.9388">
				<stop  offset="0" style="stop-color:#FF7C58"/>
				<stop  offset="1" style="stop-color:#720BDA"/>
			</linearGradient>
			<path opacity="0.1471" fill-rule="evenodd" clip-rule="evenodd" fill="url(#SVGID_44_)" d="M769.4,481.9
				c97.7,0,176.9,79.1,176.9,176.7c0,97.5-79.2,176.6-176.9,176.6c-97.7,0-176.9-79.1-176.9-176.6
				C592.6,561,671.7,481.9,769.4,481.9L769.4,481.9z"/>
			<linearGradient id="SVGID_45_" gradientUnits="userSpaceOnUse" x1="769.4247" y1="834.5399" x2="769.4247" y2="482.6282">
				<stop  offset="0" style="stop-color:#FF7C58"/>
				<stop  offset="1" style="stop-color:#720BDA"/>
			</linearGradient>
			<path opacity="0.1569" fill-rule="evenodd" clip-rule="evenodd" fill="url(#SVGID_45_)" d="M769.4,482.6
				c97.3,0,176.2,78.8,176.2,176c0,97.2-78.9,175.9-176.2,175.9c-97.3,0-176.2-78.8-176.2-175.9
				C593.3,561.4,672.1,482.6,769.4,482.6L769.4,482.6z"/>
			<linearGradient id="SVGID_46_" gradientUnits="userSpaceOnUse" x1="769.4247" y1="833.8505" x2="769.4247" y2="483.3176">
				<stop  offset="0" style="stop-color:#FF7C58"/>
				<stop  offset="1" style="stop-color:#720BDA"/>
			</linearGradient>
			<path opacity="0.1667" fill-rule="evenodd" clip-rule="evenodd" fill="url(#SVGID_46_)" d="M769.4,483.3
				c96.9,0,175.5,78.5,175.5,175.3c0,96.8-78.6,175.2-175.5,175.2c-96.9,0-175.5-78.5-175.5-175.2
				C594,561.8,672.5,483.3,769.4,483.3L769.4,483.3z"/>
			<linearGradient id="SVGID_47_" gradientUnits="userSpaceOnUse" x1="769.4247" y1="833.1611" x2="769.4247" y2="484.0071">
				<stop  offset="0" style="stop-color:#FF7C58"/>
				<stop  offset="1" style="stop-color:#720BDA"/>
			</linearGradient>
			<path opacity="0.1765" fill-rule="evenodd" clip-rule="evenodd" fill="url(#SVGID_47_)" d="M769.4,484
				c96.5,0,174.8,78.2,174.8,174.6c0,96.4-78.3,174.6-174.8,174.6c-96.5,0-174.8-78.2-174.8-174.6C594.6,562.2,672.9,484,769.4,484
				L769.4,484z"/>
			<linearGradient id="SVGID_48_" gradientUnits="userSpaceOnUse" x1="769.4247" y1="832.4716" x2="769.4247" y2="484.6965">
				<stop  offset="0" style="stop-color:#FF7C58"/>
				<stop  offset="1" style="stop-color:#720BDA"/>
			</linearGradient>
			<path opacity="0.1863" fill-rule="evenodd" clip-rule="evenodd" fill="url(#SVGID_48_)" d="M769.4,484.7
				c96.1,0,174.1,77.9,174.1,173.9c0,96-77.9,173.9-174.1,173.9c-96.2,0-174.1-77.9-174.1-173.9
				C595.3,562.6,673.3,484.7,769.4,484.7L769.4,484.7z"/>
			<linearGradient id="SVGID_49_" gradientUnits="userSpaceOnUse" x1="769.4247" y1="831.7822" x2="769.4247" y2="485.386">
				<stop  offset="0" style="stop-color:#FF7C58"/>
				<stop  offset="1" style="stop-color:#720BDA"/>
			</linearGradient>
			<path opacity="0.1961" fill-rule="evenodd" clip-rule="evenodd" fill="url(#SVGID_49_)" d="M769.4,485.4
				c95.8,0,173.4,77.5,173.4,173.2c0,95.6-77.6,173.2-173.4,173.2c-95.8,0-173.4-77.5-173.4-173.2
				C596,562.9,673.6,485.4,769.4,485.4L769.4,485.4z"/>
			<linearGradient id="SVGID_50_" gradientUnits="userSpaceOnUse" x1="769.4247" y1="831.0927" x2="769.4247" y2="486.0754">
				<stop  offset="0" style="stop-color:#FF7C58"/>
				<stop  offset="1" style="stop-color:#720BDA"/>
			</linearGradient>
			<path opacity="0.2059" fill-rule="evenodd" clip-rule="evenodd" fill="url(#SVGID_50_)" d="M769.4,486.1
				c95.4,0,172.7,77.2,172.7,172.5c0,95.3-77.3,172.5-172.7,172.5c-95.4,0-172.7-77.2-172.7-172.5
				C596.7,563.3,674,486.1,769.4,486.1L769.4,486.1z"/>
			<linearGradient id="SVGID_51_" gradientUnits="userSpaceOnUse" x1="769.4247" y1="830.4033" x2="769.4247" y2="486.7649">
				<stop  offset="0" style="stop-color:#FF7C58"/>
				<stop  offset="1" style="stop-color:#720BDA"/>
			</linearGradient>
			<path opacity="0.2157" fill-rule="evenodd" clip-rule="evenodd" fill="url(#SVGID_51_)" d="M769.4,486.8c95,0,172,76.9,172,171.8
				c0,94.9-77,171.8-172,171.8c-95,0-172-76.9-172-171.8C597.4,563.7,674.4,486.8,769.4,486.8L769.4,486.8z"/>
			<linearGradient id="SVGID_52_" gradientUnits="userSpaceOnUse" x1="769.4248" y1="829.7138" x2="769.4248" y2="487.4543">
				<stop  offset="0" style="stop-color:#FF7C58"/>
				<stop  offset="1" style="stop-color:#720BDA"/>
			</linearGradient>
			<path opacity="0.2255" fill-rule="evenodd" clip-rule="evenodd" fill="url(#SVGID_52_)" d="M769.4,487.5
				c94.6,0,171.3,76.6,171.3,171.1c0,94.5-76.7,171.1-171.3,171.1c-94.6,0-171.3-76.6-171.3-171.1
				C598.1,564.1,674.8,487.5,769.4,487.5L769.4,487.5z"/>
			<linearGradient id="SVGID_53_" gradientUnits="userSpaceOnUse" x1="769.4248" y1="829.0244" x2="769.4248" y2="488.1437">
				<stop  offset="0" style="stop-color:#FF7C58"/>
				<stop  offset="1" style="stop-color:#720BDA"/>
			</linearGradient>
			<path opacity="0.2353" fill-rule="evenodd" clip-rule="evenodd" fill="url(#SVGID_53_)" d="M769.4,488.1
				c94.2,0,170.6,76.3,170.6,170.5c0,94.1-76.4,170.4-170.6,170.4c-94.3,0-170.6-76.3-170.6-170.4
				C598.8,564.5,675.2,488.1,769.4,488.1L769.4,488.1z"/>
			<linearGradient id="SVGID_54_" gradientUnits="userSpaceOnUse" x1="769.4248" y1="828.3349" x2="769.4248" y2="488.8332">
				<stop  offset="0" style="stop-color:#FF7C58"/>
				<stop  offset="1" style="stop-color:#720BDA"/>
			</linearGradient>
			<path opacity="0.2451" fill-rule="evenodd" clip-rule="evenodd" fill="url(#SVGID_54_)" d="M769.4,488.8
				c93.9,0,169.9,76,169.9,169.8c0,93.7-76.1,169.7-169.9,169.7c-93.9,0-169.9-76-169.9-169.7C599.5,564.8,675.6,488.8,769.4,488.8
				L769.4,488.8z"/>
			<linearGradient id="SVGID_55_" gradientUnits="userSpaceOnUse" x1="769.4248" y1="827.6454" x2="769.4248" y2="489.5226">
				<stop  offset="0" style="stop-color:#FF7C58"/>
				<stop  offset="1" style="stop-color:#720BDA"/>
			</linearGradient>
			<path opacity="0.2549" fill-rule="evenodd" clip-rule="evenodd" fill="url(#SVGID_55_)" d="M769.4,489.5
				c93.5,0,169.3,75.7,169.3,169.1c0,93.3-75.8,169-169.3,169c-93.5,0-169.3-75.7-169.3-169C600.2,565.2,675.9,489.5,769.4,489.5
				L769.4,489.5z"/>
			<linearGradient id="SVGID_56_" gradientUnits="userSpaceOnUse" x1="769.4248" y1="826.956" x2="769.4248" y2="490.2121">
				<stop  offset="0" style="stop-color:#FF7C58"/>
				<stop  offset="1" style="stop-color:#720BDA"/>
			</linearGradient>
			<path opacity="0.2647" fill-rule="evenodd" clip-rule="evenodd" fill="url(#SVGID_56_)" d="M769.4,490.2
				c93.1,0,168.6,75.4,168.6,168.4c0,93-75.5,168.4-168.6,168.4c-93.1,0-168.6-75.4-168.6-168.4
				C600.9,565.6,676.3,490.2,769.4,490.2L769.4,490.2z"/>
			<linearGradient id="SVGID_57_" gradientUnits="userSpaceOnUse" x1="769.4248" y1="826.2666" x2="769.4248" y2="490.9015">
				<stop  offset="0" style="stop-color:#FF7C58"/>
				<stop  offset="1" style="stop-color:#720BDA"/>
			</linearGradient>
			<path opacity="0.2745" fill-rule="evenodd" clip-rule="evenodd" fill="url(#SVGID_57_)" d="M769.4,490.9
				c92.7,0,167.9,75.1,167.9,167.7c0,92.6-75.2,167.7-167.9,167.7c-92.7,0-167.9-75.1-167.9-167.7
				C601.6,566,676.7,490.9,769.4,490.9L769.4,490.9z"/>
			<linearGradient id="SVGID_58_" gradientUnits="userSpaceOnUse" x1="769.4248" y1="825.5771" x2="769.4248" y2="491.591">
				<stop  offset="0" style="stop-color:#FF7C58"/>
				<stop  offset="1" style="stop-color:#720BDA"/>
			</linearGradient>
			<path opacity="0.2843" fill-rule="evenodd" clip-rule="evenodd" fill="url(#SVGID_58_)" d="M769.4,491.6
				c92.3,0,167.2,74.8,167.2,167c0,92.2-74.9,167-167.2,167c-92.3,0-167.2-74.8-167.2-167C602.2,566.4,677.1,491.6,769.4,491.6
				L769.4,491.6z"/>
			<linearGradient id="SVGID_59_" gradientUnits="userSpaceOnUse" x1="769.4248" y1="824.8877" x2="769.4248" y2="492.2804">
				<stop  offset="0" style="stop-color:#FF7C58"/>
				<stop  offset="1" style="stop-color:#720BDA"/>
			</linearGradient>
			<path opacity="0.2941" fill-rule="evenodd" clip-rule="evenodd" fill="url(#SVGID_59_)" d="M769.4,492.3
				c91.9,0,166.5,74.5,166.5,166.3c0,91.8-74.5,166.3-166.5,166.3c-92,0-166.5-74.5-166.5-166.3
				C602.9,566.7,677.5,492.3,769.4,492.3L769.4,492.3z"/>
			<linearGradient id="SVGID_60_" gradientUnits="userSpaceOnUse" x1="769.4249" y1="824.1982" x2="769.4249" y2="492.9698">
				<stop  offset="0" style="stop-color:#FF7C58"/>
				<stop  offset="1" style="stop-color:#720BDA"/>
			</linearGradient>
			<path opacity="0.3039" fill-rule="evenodd" clip-rule="evenodd" fill="url(#SVGID_60_)" d="M769.4,493
				c91.6,0,165.8,74.2,165.8,165.6c0,91.4-74.2,165.6-165.8,165.6c-91.6,0-165.8-74.2-165.8-165.6C603.6,567.1,677.8,493,769.4,493
				L769.4,493z"/>
			<linearGradient id="SVGID_61_" gradientUnits="userSpaceOnUse" x1="769.4249" y1="823.5088" x2="769.4249" y2="493.6593">
				<stop  offset="0" style="stop-color:#FF7C58"/>
				<stop  offset="1" style="stop-color:#720BDA"/>
			</linearGradient>
			<path opacity="0.3137" fill-rule="evenodd" clip-rule="evenodd" fill="url(#SVGID_61_)" d="M769.4,493.7
				c91.2,0,165.1,73.8,165.1,164.9c0,91.1-73.9,164.9-165.1,164.9c-91.2,0-165.1-73.8-165.1-164.9
				C604.3,567.5,678.2,493.7,769.4,493.7L769.4,493.7z"/>
			<linearGradient id="SVGID_62_" gradientUnits="userSpaceOnUse" x1="769.4249" y1="822.8193" x2="769.4249" y2="494.3487">
				<stop  offset="0" style="stop-color:#FF7C58"/>
				<stop  offset="1" style="stop-color:#720BDA"/>
			</linearGradient>
			<path opacity="0.3235" fill-rule="evenodd" clip-rule="evenodd" fill="url(#SVGID_62_)" d="M769.4,494.3
				c90.8,0,164.4,73.5,164.4,164.3c0,90.7-73.6,164.2-164.4,164.2c-90.8,0-164.4-73.5-164.4-164.2
				C605,567.9,678.6,494.3,769.4,494.3L769.4,494.3z"/>
			<linearGradient id="SVGID_63_" gradientUnits="userSpaceOnUse" x1="769.4249" y1="822.1299" x2="769.4249" y2="495.0382">
				<stop  offset="0" style="stop-color:#FF7C58"/>
				<stop  offset="1" style="stop-color:#720BDA"/>
			</linearGradient>
			<path opacity="0.3333" fill-rule="evenodd" clip-rule="evenodd" fill="url(#SVGID_63_)" d="M769.4,495
				c90.4,0,163.7,73.2,163.7,163.6c0,90.3-73.3,163.5-163.7,163.5c-90.4,0-163.7-73.2-163.7-163.5C605.7,568.3,679,495,769.4,495
				L769.4,495z"/>
			<linearGradient id="SVGID_64_" gradientUnits="userSpaceOnUse" x1="769.4249" y1="821.4404" x2="769.4249" y2="495.7276">
				<stop  offset="0" style="stop-color:#FF7C58"/>
				<stop  offset="1" style="stop-color:#720BDA"/>
			</linearGradient>
			<path opacity="0.3431" fill-rule="evenodd" clip-rule="evenodd" fill="url(#SVGID_64_)" d="M769.4,495.7c90,0,163,72.9,163,162.9
				c0,89.9-73,162.8-163,162.8c-90.1,0-163-72.9-163-162.8C606.4,568.6,679.4,495.7,769.4,495.7L769.4,495.7z"/>
			<linearGradient id="SVGID_65_" gradientUnits="userSpaceOnUse" x1="769.4249" y1="820.751" x2="769.4249" y2="496.4171">
				<stop  offset="0" style="stop-color:#FF7C58"/>
				<stop  offset="1" style="stop-color:#720BDA"/>
			</linearGradient>
			<path opacity="0.3529" fill-rule="evenodd" clip-rule="evenodd" fill="url(#SVGID_65_)" d="M769.4,496.4
				c89.7,0,162.3,72.6,162.3,162.2c0,89.5-72.7,162.1-162.3,162.1c-89.7,0-162.3-72.6-162.3-162.1
				C607.1,569,679.7,496.4,769.4,496.4L769.4,496.4z"/>
			<linearGradient id="SVGID_66_" gradientUnits="userSpaceOnUse" x1="769.4249" y1="820.0615" x2="769.4249" y2="497.1065">
				<stop  offset="0" style="stop-color:#FF7C58"/>
				<stop  offset="1" style="stop-color:#720BDA"/>
			</linearGradient>
			<path opacity="0.3627" fill-rule="evenodd" clip-rule="evenodd" fill="url(#SVGID_66_)" d="M769.4,497.1
				c89.3,0,161.7,72.3,161.7,161.5c0,89.2-72.4,161.5-161.7,161.5c-89.3,0-161.7-72.3-161.7-161.5
				C607.8,569.4,680.1,497.1,769.4,497.1L769.4,497.1z"/>
			<linearGradient id="SVGID_67_" gradientUnits="userSpaceOnUse" x1="769.4249" y1="819.3721" x2="769.4249" y2="497.796">
				<stop  offset="0" style="stop-color:#FF7C58"/>
				<stop  offset="1" style="stop-color:#720BDA"/>
			</linearGradient>
			<path opacity="0.3725" fill-rule="evenodd" clip-rule="evenodd" fill="url(#SVGID_67_)" d="M769.4,497.8c88.9,0,161,72,161,160.8
				c0,88.8-72.1,160.8-161,160.8c-88.9,0-161-72-161-160.8C608.5,569.8,680.5,497.8,769.4,497.8L769.4,497.8z"/>
			<linearGradient id="SVGID_68_" gradientUnits="userSpaceOnUse" x1="769.4249" y1="818.6827" x2="769.4249" y2="498.4854">
				<stop  offset="0" style="stop-color:#FF7C58"/>
				<stop  offset="1" style="stop-color:#720BDA"/>
			</linearGradient>
			<path opacity="0.3824" fill-rule="evenodd" clip-rule="evenodd" fill="url(#SVGID_68_)" d="M769.4,498.5
				c88.5,0,160.3,71.7,160.3,160.1c0,88.4-71.8,160.1-160.3,160.1c-88.5,0-160.3-71.7-160.3-160.1
				C609.2,570.2,680.9,498.5,769.4,498.5L769.4,498.5z"/>
			<linearGradient id="SVGID_69_" gradientUnits="userSpaceOnUse" x1="769.4249" y1="817.9932" x2="769.4249" y2="499.1748">
				<stop  offset="0" style="stop-color:#FF7C58"/>
				<stop  offset="1" style="stop-color:#720BDA"/>
			</linearGradient>
			<path opacity="0.3922" fill-rule="evenodd" clip-rule="evenodd" fill="url(#SVGID_69_)" d="M769.4,499.2
				c88.1,0,159.6,71.4,159.6,159.4c0,88-71.5,159.4-159.6,159.4c-88.2,0-159.6-71.4-159.6-159.4
				C609.8,570.5,681.3,499.2,769.4,499.2L769.4,499.2z"/>
			<linearGradient id="SVGID_70_" gradientUnits="userSpaceOnUse" x1="769.4249" y1="817.3038" x2="769.4249" y2="499.8643">
				<stop  offset="0" style="stop-color:#FF7C58"/>
				<stop  offset="1" style="stop-color:#720BDA"/>
			</linearGradient>
			<path opacity="0.402" fill-rule="evenodd" clip-rule="evenodd" fill="url(#SVGID_70_)" d="M769.4,499.9
				c87.7,0,158.9,71.1,158.9,158.7c0,87.6-71.1,158.7-158.9,158.7c-87.8,0-158.9-71.1-158.9-158.7
				C610.5,570.9,681.7,499.9,769.4,499.9L769.4,499.9z"/>
			<linearGradient id="SVGID_71_" gradientUnits="userSpaceOnUse" x1="769.4249" y1="816.6143" x2="769.4249" y2="500.5537">
				<stop  offset="0" style="stop-color:#FF7C58"/>
				<stop  offset="1" style="stop-color:#720BDA"/>
			</linearGradient>
			<path opacity="0.4118" fill-rule="evenodd" clip-rule="evenodd" fill="url(#SVGID_71_)" d="M769.4,500.6
				c87.4,0,158.2,70.8,158.2,158c0,87.3-70.8,158-158.2,158c-87.4,0-158.2-70.8-158.2-158C611.2,571.3,682,500.6,769.4,500.6
				L769.4,500.6z"/>
			<linearGradient id="SVGID_72_" gradientUnits="userSpaceOnUse" x1="769.4249" y1="815.9249" x2="769.4249" y2="501.2432">
				<stop  offset="0" style="stop-color:#FF7C58"/>
				<stop  offset="1" style="stop-color:#720BDA"/>
			</linearGradient>
			<path opacity="0.4216" fill-rule="evenodd" clip-rule="evenodd" fill="url(#SVGID_72_)" d="M769.4,501.2
				c87,0,157.5,70.4,157.5,157.4c0,86.9-70.5,157.3-157.5,157.3c-87,0-157.5-70.4-157.5-157.3C611.9,571.7,682.4,501.2,769.4,501.2
				L769.4,501.2z"/>
			<linearGradient id="SVGID_73_" gradientUnits="userSpaceOnUse" x1="769.4249" y1="815.2354" x2="769.4249" y2="501.9326">
				<stop  offset="0" style="stop-color:#FF7C58"/>
				<stop  offset="1" style="stop-color:#720BDA"/>
			</linearGradient>
			<path opacity="0.4314" fill-rule="evenodd" clip-rule="evenodd" fill="url(#SVGID_73_)" d="M769.4,501.9
				c86.6,0,156.8,70.1,156.8,156.7c0,86.5-70.2,156.6-156.8,156.6c-86.6,0-156.8-70.1-156.8-156.6
				C612.6,572.1,682.8,501.9,769.4,501.9L769.4,501.9z"/>
			<linearGradient id="SVGID_74_" gradientUnits="userSpaceOnUse" x1="769.4249" y1="814.546" x2="769.4249" y2="502.6221">
				<stop  offset="0" style="stop-color:#FF7C58"/>
				<stop  offset="1" style="stop-color:#720BDA"/>
			</linearGradient>
			<path opacity="0.4412" fill-rule="evenodd" clip-rule="evenodd" fill="url(#SVGID_74_)" d="M769.4,502.6
				c86.2,0,156.1,69.8,156.1,156c0,86.1-69.9,155.9-156.1,155.9c-86.2,0-156.1-69.8-156.1-155.9
				C613.3,572.5,683.2,502.6,769.4,502.6L769.4,502.6z"/>
			<linearGradient id="SVGID_75_" gradientUnits="userSpaceOnUse" x1="769.425" y1="813.8565" x2="769.425" y2="503.3115">
				<stop  offset="0" style="stop-color:#FF7C58"/>
				<stop  offset="1" style="stop-color:#720BDA"/>
			</linearGradient>
			<path opacity="0.451" fill-rule="evenodd" clip-rule="evenodd" fill="url(#SVGID_75_)" d="M769.4,503.3
				c85.8,0,155.4,69.5,155.4,155.3c0,85.7-69.6,155.3-155.4,155.3c-85.9,0-155.4-69.5-155.4-155.3
				C614,572.8,683.6,503.3,769.4,503.3L769.4,503.3z"/>
			<linearGradient id="SVGID_76_" gradientUnits="userSpaceOnUse" x1="769.425" y1="813.1671" x2="769.425" y2="504.0009">
				<stop  offset="0" style="stop-color:#FF7C58"/>
				<stop  offset="1" style="stop-color:#720BDA"/>
			</linearGradient>
			<path opacity="0.4608" fill-rule="evenodd" clip-rule="evenodd" fill="url(#SVGID_76_)" d="M769.4,504
				c85.5,0,154.7,69.2,154.7,154.6c0,85.4-69.3,154.6-154.7,154.6c-85.5,0-154.7-69.2-154.7-154.6C614.7,573.2,683.9,504,769.4,504
				L769.4,504z"/>
			<linearGradient id="SVGID_77_" gradientUnits="userSpaceOnUse" x1="769.425" y1="812.4776" x2="769.425" y2="504.6904">
				<stop  offset="0" style="stop-color:#FF7C58"/>
				<stop  offset="1" style="stop-color:#720BDA"/>
			</linearGradient>
			<path opacity="0.4706" fill-rule="evenodd" clip-rule="evenodd" fill="url(#SVGID_77_)" d="M769.4,504.7
				c85.1,0,154.1,68.9,154.1,153.9c0,85-69,153.9-154.1,153.9c-85.1,0-154.1-68.9-154.1-153.9C615.4,573.6,684.3,504.7,769.4,504.7
				L769.4,504.7z"/>
			<linearGradient id="SVGID_78_" gradientUnits="userSpaceOnUse" x1="769.425" y1="811.7881" x2="769.425" y2="505.3798">
				<stop  offset="0" style="stop-color:#FF7C58"/>
				<stop  offset="1" style="stop-color:#720BDA"/>
			</linearGradient>
			<path opacity="0.4804" fill-rule="evenodd" clip-rule="evenodd" fill="url(#SVGID_78_)" d="M769.4,505.4
				c84.7,0,153.4,68.6,153.4,153.2c0,84.6-68.7,153.2-153.4,153.2c-84.7,0-153.4-68.6-153.4-153.2
				C616.1,574,684.7,505.4,769.4,505.4L769.4,505.4z"/>
			<linearGradient id="SVGID_79_" gradientUnits="userSpaceOnUse" x1="769.425" y1="811.0988" x2="769.425" y2="506.0693">
				<stop  offset="0" style="stop-color:#FF7C58"/>
				<stop  offset="1" style="stop-color:#720BDA"/>
			</linearGradient>
			<path opacity="0.4902" fill-rule="evenodd" clip-rule="evenodd" fill="url(#SVGID_79_)" d="M769.4,506.1
				c84.3,0,152.7,68.3,152.7,152.5c0,84.2-68.4,152.5-152.7,152.5c-84.3,0-152.7-68.3-152.7-152.5
				C616.8,574.4,685.1,506.1,769.4,506.1L769.4,506.1z"/>
			<linearGradient id="SVGID_80_" gradientUnits="userSpaceOnUse" x1="769.425" y1="810.4093" x2="769.425" y2="506.7587">
				<stop  offset="0" style="stop-color:#FF7C58"/>
				<stop  offset="1" style="stop-color:#720BDA"/>
			</linearGradient>
			<path opacity="0.5" fill-rule="evenodd" clip-rule="evenodd" fill="url(#SVGID_80_)" d="M769.4,506.8c83.9,0,152,68,152,151.8
				c0,83.8-68.1,151.8-152,151.8c-84,0-152-68-152-151.8C617.4,574.7,685.5,506.8,769.4,506.8L769.4,506.8z"/>
		</g>
		<g>
			<linearGradient id="SVGID_81_" gradientUnits="userSpaceOnUse" x1="769.4246" y1="810.4094" x2="769.4246" y2="506.7589">
				<stop  offset="0" style="stop-color:#BA2BA0"/>
				<stop  offset="1" style="stop-color:#470B96"/>
			</linearGradient>
			<path fill-rule="evenodd" clip-rule="evenodd" fill="url(#SVGID_81_)" d="M769.4,506.8c83.9,0,152,68,152,151.8
				c0,83.8-68.1,151.8-152,151.8c-84,0-152-68-152-151.8C617.4,574.7,685.5,506.8,769.4,506.8L769.4,506.8z"/>
			<g>
				<linearGradient id="SVGID_82_" gradientUnits="userSpaceOnUse" x1="679.9844" y1="652.0941" x2="679.9844" y2="603.0425">
					<stop  offset="0" style="stop-color:#BA2BA0"/>
					<stop  offset="1" style="stop-color:#470B96"/>
				</linearGradient>
				<path fill-rule="evenodd" clip-rule="evenodd" fill="url(#SVGID_82_)" d="M680.9,652.1L668.2,638l22.2,13.4L680.9,652.1z
					 M681.4,615.8l0.9-12.3l9.5-0.5L681.4,615.8z"/>
				<linearGradient id="SVGID_83_" gradientUnits="userSpaceOnUse" x1="828.0415" y1="807.3655" x2="828.0415" y2="670.847">
					<stop  offset="0" style="stop-color:#BA2BA0"/>
					<stop  offset="1" style="stop-color:#470B96"/>
				</linearGradient>
				<path fill-rule="evenodd" clip-rule="evenodd" fill="url(#SVGID_83_)" d="M881.3,761.4c-2.8,3.1-5.8,6.1-8.9,8.9l-20-4.5
					l11.6-24.5l20.8-2.8l18.1-67.6l-13,72.7l-20.9,0.9l-3.7,13.4L881.3,761.4z M808.5,805.3c-2.9,0.8-5.8,1.4-8.8,2l-2-11.1
					l-40.3-12.5l-4.2-35.2l7.4,27.3l50,16.2L808.5,805.3z"/>
				<linearGradient id="SVGID_84_" gradientUnits="userSpaceOnUse" x1="829.8103" y1="621.5506" x2="829.8103" y2="506.7589">
					<stop  offset="0" style="stop-color:#BA2BA0"/>
					<stop  offset="1" style="stop-color:#470B96"/>
				</linearGradient>
				<path fill-rule="evenodd" clip-rule="evenodd" fill="url(#SVGID_84_)" d="M769.4,506.8c4.4,0,8.8,0.2,13.1,0.6l22.6,23.5
					l22.2,6.5l-23.6,21.8l-4.2,17.1l-24.1,4.6l-23.2,40.7l16.2-45.8l14.4-6.5l13.9-36.6l-29.5-25.9
					C768,506.8,768.7,506.8,769.4,506.8L769.4,506.8z M897.2,576.6c3.7,5.8,7.1,12.4,10.1,18.4h-26.2l-39.8,7.7l29.2-11.7l27.3-2.8
					L897.2,576.6z"/>
				<linearGradient id="SVGID_85_" gradientUnits="userSpaceOnUse" x1="734.9585" y1="758.559" x2="734.9585" y2="615.5328">
					<stop  offset="0" style="stop-color:#BA2BA0"/>
					<stop  offset="1" style="stop-color:#470B96"/>
				</linearGradient>
				<path fill-rule="evenodd" clip-rule="evenodd" fill="url(#SVGID_85_)" d="M619.4,634.1c0.9-5.6,2.1-11,3.6-16.3l21.8,4.3
					l32.9,46.3l15.7-1.9l29.7-12.5l46.3,4.7l34.3-43.1l46.8,13.9l-44.9-5.1l-33.4,38.9l13,23.1l-10.7,30.1l36.1,42.1l-44-35.2
					l10.6-30.1l-9.3-19l-34.3-12.9l-26.9,5.5l-4.6,18.1l24.6,43.5l-32-39.4l-2.3-13.9l-21.3-1.9L642,629L619.4,634.1z"/>
				<linearGradient id="SVGID_86_" gradientUnits="userSpaceOnUse" x1="656.7794" y1="702.0552" x2="656.7794" y2="665.0742">
					<stop  offset="0" style="stop-color:#BA2BA0"/>
					<stop  offset="1" style="stop-color:#470B96"/>
				</linearGradient>
				<path fill-rule="evenodd" clip-rule="evenodd" fill="url(#SVGID_86_)" d="M676.2,697.2l-18.4,4.9l22.1-13.6L676.2,697.2z
					 M644.1,680.2l-10.5-6.4l4-8.6L644.1,680.2z"/>
				<linearGradient id="SVGID_87_" gradientUnits="userSpaceOnUse" x1="885.3799" y1="648.1406" x2="885.3799" y2="611.1595">
					<stop  offset="0" style="stop-color:#BA2BA0"/>
					<stop  offset="1" style="stop-color:#470B96"/>
				</linearGradient>
				<path fill-rule="evenodd" clip-rule="evenodd" fill="url(#SVGID_87_)" d="M904.8,643.3l-18.4,4.9l22.1-13.6L904.8,643.3z
					 M872.7,626.2l-10.5-6.4l3.9-8.6L872.7,626.2z"/>
				<linearGradient id="SVGID_88_" gradientUnits="userSpaceOnUse" x1="722.7343" y1="792.0763" x2="722.7343" y2="755.0952">
					<stop  offset="0" style="stop-color:#BA2BA0"/>
					<stop  offset="1" style="stop-color:#470B96"/>
				</linearGradient>
				<path fill-rule="evenodd" clip-rule="evenodd" fill="url(#SVGID_88_)" d="M742.2,787.2l-18.4,4.9l22.1-13.6L742.2,787.2z
					 M710.1,770.2l-10.5-6.4l4-8.7L710.1,770.2z"/>
			</g>
			<g>
				<g>
					<linearGradient id="SVGID_89_" gradientUnits="userSpaceOnUse" x1="711.0354" y1="596.8541" x2="711.0354" y2="511.1125">
						<stop  offset="0" style="stop-color:#FF4998"/>
						<stop  offset="1" style="stop-color:#5600AC"/>
					</linearGradient>
					<path fill-rule="evenodd" clip-rule="evenodd" fill="url(#SVGID_89_)" d="M694.3,516.3c25.5-11.3,53.6-3.6,62.9,17.1
						c9.2,20.8-3.9,46.8-29.4,58.1c-25.5,11.3-53.7,3.6-62.9-17.1C655.6,553.7,668.8,527.6,694.3,516.3L694.3,516.3z"/>
					<linearGradient id="SVGID_90_" gradientUnits="userSpaceOnUse" x1="706.6046" y1="581.4211" x2="706.6046" y2="503.768">
						<stop  offset="0" style="stop-color:#FF7C58"/>
						<stop  offset="1" style="stop-color:#720BDA"/>
					</linearGradient>
					<path fill-rule="evenodd" clip-rule="evenodd" fill="url(#SVGID_90_)" d="M697.4,505.7c21.4-6.7,42.8,4.4,47.8,24.8
						c5,20.4-8.2,42.3-29.5,48.9c-21.4,6.6-42.8-4.5-47.8-24.8C662.9,534.3,676.1,512.4,697.4,505.7L697.4,505.7z"/>
				</g>
				<g>
					<linearGradient id="SVGID_91_" gradientUnits="userSpaceOnUse" x1="662.924" y1="774.9924" x2="662.924" y2="731.0096">
						<stop  offset="0" style="stop-color:#FF4998"/>
						<stop  offset="1" style="stop-color:#5600AC"/>
					</linearGradient>
					<path fill-rule="evenodd" clip-rule="evenodd" fill="url(#SVGID_91_)" d="M648.3,765.8c-8.7-9.9-9.1-23.6-1.1-30.7
						c8.1-7.1,21.6-4.8,30.3,5.1c8.7,9.9,9.1,23.6,1.1,30.7C670.5,777.9,657,775.7,648.3,765.8L648.3,765.8z"/>
					<linearGradient id="SVGID_92_" gradientUnits="userSpaceOnUse" x1="658.4005" y1="774.8383" x2="658.4005" y2="738.361">
						<stop  offset="0" style="stop-color:#FF7C58"/>
						<stop  offset="1" style="stop-color:#720BDA"/>
					</linearGradient>
					<path fill-rule="evenodd" clip-rule="evenodd" fill="url(#SVGID_92_)" d="M643,765.9c-6-8.7-4-19.9,4.5-25
						c8.5-5.1,20.2-2.2,26.2,6.4c6,8.7,4,19.8-4.5,25C660.8,777.4,649,774.5,643,765.9L643,765.9z"/>
				</g>
				<g>
					<linearGradient id="SVGID_93_" gradientUnits="userSpaceOnUse" x1="845.397" y1="728.5198" x2="845.397" y2="656.2017">
						<stop  offset="0" style="stop-color:#FF4998"/>
						<stop  offset="1" style="stop-color:#5600AC"/>
					</linearGradient>
					<path fill-rule="evenodd" clip-rule="evenodd" fill="url(#SVGID_93_)" d="M881.6,688.4c1.1,19.8-14.3,37.7-34.3,39.9
						c-20,2.2-37.1-12.1-38.1-31.9c-1.1-19.8,14.3-37.7,34.3-39.9C863.4,654.2,880.5,668.5,881.6,688.4L881.6,688.4z"/>
					<linearGradient id="SVGID_94_" gradientUnits="userSpaceOnUse" x1="852.2623" y1="720.6209" x2="852.2623" y2="662.3948">
						<stop  offset="0" style="stop-color:#FF7C58"/>
						<stop  offset="1" style="stop-color:#720BDA"/>
					</linearGradient>
					<path fill-rule="evenodd" clip-rule="evenodd" fill="url(#SVGID_94_)" d="M883.9,692.6c-1.4,16.1-16.8,28.6-34.2,28
						c-17.5-0.6-30.5-14.1-29-30.2c1.4-16.1,16.8-28.6,34.3-28C872.3,663,885.3,676.5,883.9,692.6L883.9,692.6z"/>
				</g>
				<g>
					<linearGradient id="SVGID_95_" gradientUnits="userSpaceOnUse" x1="857.267" y1="558.4302" x2="857.267" y2="527.9085">
						<stop  offset="0" style="stop-color:#FF4998"/>
						<stop  offset="1" style="stop-color:#5600AC"/>
					</linearGradient>
					<path fill-rule="evenodd" clip-rule="evenodd" fill="url(#SVGID_95_)" d="M866.3,532.6c-7.1-6.1-17-6.3-22-0.5
						c-5,5.8-3.2,15.5,3.9,21.6c7.1,6.1,17,6.4,21.9,0.5C875.2,548.4,873.4,538.7,866.3,532.6L866.3,532.6z"/>
					<linearGradient id="SVGID_96_" gradientUnits="userSpaceOnUse" x1="859.8008" y1="553.313" x2="859.8008" y2="526.5282">
						<stop  offset="0" style="stop-color:#FF7C58"/>
						<stop  offset="1" style="stop-color:#720BDA"/>
					</linearGradient>
					<path fill-rule="evenodd" clip-rule="evenodd" fill="url(#SVGID_96_)" d="M866.3,528.9c-6.2-4.2-14.2-2.7-17.8,3.4
						c-3.6,6.1-1.4,14.4,4.8,18.6c6.3,4.2,14.2,2.7,17.8-3.4S872.5,533.1,866.3,528.9L866.3,528.9z"/>
				</g>
				<g>
					<linearGradient id="SVGID_97_" gradientUnits="userSpaceOnUse" x1="769.1672" y1="816.5166" x2="769.1672" y2="801.2233">
						<stop  offset="0" style="stop-color:#FF4998"/>
						<stop  offset="1" style="stop-color:#5600AC"/>
					</linearGradient>
					<path fill-rule="evenodd" clip-rule="evenodd" fill="url(#SVGID_97_)" d="M765.6,816.3c9.1,0.9,18.1-1.6,20.1-5.8
						c2-4.1-3.8-8.2-12.9-9.1c-9.1-0.9-18.1,1.6-20.1,5.8C750.7,811.3,756.5,815.4,765.6,816.3L765.6,816.3z"/>
					<linearGradient id="SVGID_98_" gradientUnits="userSpaceOnUse" x1="768.7764" y1="825.9435" x2="768.7764" y2="806.246">
						<stop  offset="0" style="stop-color:#FF7C58"/>
						<stop  offset="1" style="stop-color:#720BDA"/>
					</linearGradient>
					<path fill-rule="evenodd" clip-rule="evenodd" fill="url(#SVGID_98_)" d="M767.8,825.9c7.5,0,14.4-7.5,14.5-12.9
						c0.1-5.5-6.6-6.8-14.1-6.8c-7.5,0-12.9,1.4-13,6.9C755.1,818.6,760.4,825.9,767.8,825.9L767.8,825.9z"/>
				</g>
			</g>
		</g>
	</g>
	<g>
		<g>
			<linearGradient id="SVGID_99_" gradientUnits="userSpaceOnUse" x1="390.3852" y1="311.3225" x2="390.3852" y2="117.8455">
				<stop  offset="0" style="stop-color:#FF7C58"/>
				<stop  offset="1" style="stop-color:#720BDA"/>
			</linearGradient>
			<path opacity="0" fill-rule="evenodd" clip-rule="evenodd" fill="url(#SVGID_99_)" d="M390.4,311.3c53.3,0,96.8-43.5,96.8-96.7
				s-43.5-96.7-96.8-96.7s-96.9,43.5-96.9,96.7S337.1,311.3,390.4,311.3L390.4,311.3z"/>
			<linearGradient id="SVGID_100_" gradientUnits="userSpaceOnUse" x1="390.3852" y1="310.878" x2="390.3852" y2="118.29">
				<stop  offset="0" style="stop-color:#FF7C58"/>
				<stop  offset="1" style="stop-color:#720BDA"/>
			</linearGradient>
			<path opacity="9.803922e-003" fill-rule="evenodd" clip-rule="evenodd" fill="url(#SVGID_100_)" d="M390.4,310.9
				c53.1,0,96.4-43.3,96.4-96.3s-43.3-96.3-96.4-96.3c-53.1,0-96.4,43.3-96.4,96.3S337.3,310.9,390.4,310.9L390.4,310.9z"/>
			<linearGradient id="SVGID_101_" gradientUnits="userSpaceOnUse" x1="390.3852" y1="310.4334" x2="390.3852" y2="118.7346">
				<stop  offset="0" style="stop-color:#FF7C58"/>
				<stop  offset="1" style="stop-color:#720BDA"/>
			</linearGradient>
			<path opacity="1.960784e-002" fill-rule="evenodd" clip-rule="evenodd" fill="url(#SVGID_101_)" d="M390.4,310.4
				c52.9,0,96-43.1,96-95.8s-43.1-95.8-96-95.8c-52.9,0-96,43.1-96,95.8S337.5,310.4,390.4,310.4L390.4,310.4z"/>
			<linearGradient id="SVGID_102_" gradientUnits="userSpaceOnUse" x1="390.3852" y1="309.9889" x2="390.3852" y2="119.1791">
				<stop  offset="0" style="stop-color:#FF7C58"/>
				<stop  offset="1" style="stop-color:#720BDA"/>
			</linearGradient>
			<path opacity="2.941176e-002" fill-rule="evenodd" clip-rule="evenodd" fill="url(#SVGID_102_)" d="M390.4,310
				c52.6,0,95.5-42.9,95.5-95.4s-42.9-95.4-95.5-95.4c-52.6,0-95.5,42.9-95.5,95.4S337.8,310,390.4,310L390.4,310z"/>
			<linearGradient id="SVGID_103_" gradientUnits="userSpaceOnUse" x1="390.3852" y1="309.5443" x2="390.3852" y2="119.6236">
				<stop  offset="0" style="stop-color:#FF7C58"/>
				<stop  offset="1" style="stop-color:#720BDA"/>
			</linearGradient>
			<path opacity="3.921569e-002" fill-rule="evenodd" clip-rule="evenodd" fill="url(#SVGID_103_)" d="M390.4,309.5
				c52.4,0,95.1-42.7,95.1-95s-42.7-95-95.1-95c-52.4,0-95.1,42.7-95.1,95S338,309.5,390.4,309.5L390.4,309.5z"/>
			<linearGradient id="SVGID_104_" gradientUnits="userSpaceOnUse" x1="390.3852" y1="309.0998" x2="390.3852" y2="120.0682">
				<stop  offset="0" style="stop-color:#FF7C58"/>
				<stop  offset="1" style="stop-color:#720BDA"/>
			</linearGradient>
			<path opacity="4.901961e-002" fill-rule="evenodd" clip-rule="evenodd" fill="url(#SVGID_104_)" d="M390.4,309.1
				c52.1,0,94.6-42.5,94.6-94.5s-42.5-94.5-94.6-94.5c-52.1,0-94.7,42.5-94.7,94.5S338.3,309.1,390.4,309.1L390.4,309.1z"/>
			<linearGradient id="SVGID_105_" gradientUnits="userSpaceOnUse" x1="390.3852" y1="308.6553" x2="390.3852" y2="120.5127">
				<stop  offset="0" style="stop-color:#FF7C58"/>
				<stop  offset="1" style="stop-color:#720BDA"/>
			</linearGradient>
			<path opacity="5.882353e-002" fill-rule="evenodd" clip-rule="evenodd" fill="url(#SVGID_105_)" d="M390.4,308.7
				c51.9,0,94.2-42.3,94.2-94.1s-42.3-94.1-94.2-94.1c-51.9,0-94.2,42.3-94.2,94.1S338.5,308.7,390.4,308.7L390.4,308.7z"/>
			<linearGradient id="SVGID_106_" gradientUnits="userSpaceOnUse" x1="390.3852" y1="308.2107" x2="390.3852" y2="120.9573">
				<stop  offset="0" style="stop-color:#FF7C58"/>
				<stop  offset="1" style="stop-color:#720BDA"/>
			</linearGradient>
			<path opacity="6.862745e-002" fill-rule="evenodd" clip-rule="evenodd" fill="url(#SVGID_106_)" d="M390.4,308.2
				c51.6,0,93.7-42.1,93.7-93.6S442,121,390.4,121c-51.6,0-93.8,42.1-93.8,93.6S338.8,308.2,390.4,308.2L390.4,308.2z"/>
			<linearGradient id="SVGID_107_" gradientUnits="userSpaceOnUse" x1="390.3852" y1="307.7662" x2="390.3852" y2="121.4018">
				<stop  offset="0" style="stop-color:#FF7C58"/>
				<stop  offset="1" style="stop-color:#720BDA"/>
			</linearGradient>
			<path opacity="7.843138e-002" fill-rule="evenodd" clip-rule="evenodd" fill="url(#SVGID_107_)" d="M390.4,307.8
				c51.4,0,93.3-41.9,93.3-93.2s-41.9-93.2-93.3-93.2c-51.4,0-93.3,41.9-93.3,93.2S339,307.8,390.4,307.8L390.4,307.8z"/>
			<linearGradient id="SVGID_108_" gradientUnits="userSpaceOnUse" x1="390.3852" y1="307.3217" x2="390.3852" y2="121.8463">
				<stop  offset="0" style="stop-color:#FF7C58"/>
				<stop  offset="1" style="stop-color:#720BDA"/>
			</linearGradient>
			<path opacity="8.823530e-002" fill-rule="evenodd" clip-rule="evenodd" fill="url(#SVGID_108_)" d="M390.4,307.3
				c51.1,0,92.8-41.7,92.8-92.7s-41.7-92.7-92.8-92.7c-51.1,0-92.9,41.7-92.9,92.7S339.3,307.3,390.4,307.3L390.4,307.3z"/>
			<linearGradient id="SVGID_109_" gradientUnits="userSpaceOnUse" x1="390.3852" y1="306.8771" x2="390.3852" y2="122.2909">
				<stop  offset="0" style="stop-color:#FF7C58"/>
				<stop  offset="1" style="stop-color:#720BDA"/>
			</linearGradient>
			<path opacity="9.803922e-002" fill-rule="evenodd" clip-rule="evenodd" fill="url(#SVGID_109_)" d="M390.4,306.9
				c50.9,0,92.4-41.5,92.4-92.3s-41.5-92.3-92.4-92.3c-50.9,0-92.4,41.5-92.4,92.3S339.5,306.9,390.4,306.9L390.4,306.9z"/>
			<linearGradient id="SVGID_110_" gradientUnits="userSpaceOnUse" x1="390.3852" y1="306.4326" x2="390.3852" y2="122.7354">
				<stop  offset="0" style="stop-color:#FF7C58"/>
				<stop  offset="1" style="stop-color:#720BDA"/>
			</linearGradient>
			<path opacity="0.1078" fill-rule="evenodd" clip-rule="evenodd" fill="url(#SVGID_110_)" d="M390.4,306.4
				c50.6,0,91.9-41.3,91.9-91.8s-41.3-91.8-91.9-91.8c-50.6,0-92,41.3-92,91.8S339.8,306.4,390.4,306.4L390.4,306.4z"/>
			<linearGradient id="SVGID_111_" gradientUnits="userSpaceOnUse" x1="390.3852" y1="305.988" x2="390.3852" y2="123.1799">
				<stop  offset="0" style="stop-color:#FF7C58"/>
				<stop  offset="1" style="stop-color:#720BDA"/>
			</linearGradient>
			<path opacity="0.1176" fill-rule="evenodd" clip-rule="evenodd" fill="url(#SVGID_111_)" d="M390.4,306
				c50.4,0,91.5-41.1,91.5-91.4s-41.1-91.4-91.5-91.4c-50.4,0-91.5,41.1-91.5,91.4S340,306,390.4,306L390.4,306z"/>
			<linearGradient id="SVGID_112_" gradientUnits="userSpaceOnUse" x1="390.3852" y1="305.5435" x2="390.3852" y2="123.6245">
				<stop  offset="0" style="stop-color:#FF7C58"/>
				<stop  offset="1" style="stop-color:#720BDA"/>
			</linearGradient>
			<path opacity="0.1275" fill-rule="evenodd" clip-rule="evenodd" fill="url(#SVGID_112_)" d="M390.4,305.5
				c50.1,0,91.1-40.9,91.1-91s-40.9-91-91.1-91c-50.2,0-91.1,40.9-91.1,91S340.2,305.5,390.4,305.5L390.4,305.5z"/>
			<linearGradient id="SVGID_113_" gradientUnits="userSpaceOnUse" x1="390.3852" y1="305.099" x2="390.3852" y2="124.069">
				<stop  offset="0" style="stop-color:#FF7C58"/>
				<stop  offset="1" style="stop-color:#720BDA"/>
			</linearGradient>
			<path opacity="0.1373" fill-rule="evenodd" clip-rule="evenodd" fill="url(#SVGID_113_)" d="M390.4,305.1
				c49.9,0,90.6-40.7,90.6-90.5s-40.7-90.5-90.6-90.5c-49.9,0-90.6,40.7-90.6,90.5S340.5,305.1,390.4,305.1L390.4,305.1z"/>
			<linearGradient id="SVGID_114_" gradientUnits="userSpaceOnUse" x1="390.3852" y1="304.6544" x2="390.3852" y2="124.5136">
				<stop  offset="0" style="stop-color:#FF7C58"/>
				<stop  offset="1" style="stop-color:#720BDA"/>
			</linearGradient>
			<path opacity="0.1471" fill-rule="evenodd" clip-rule="evenodd" fill="url(#SVGID_114_)" d="M390.4,304.7
				c49.7,0,90.2-40.5,90.2-90.1s-40.5-90.1-90.2-90.1c-49.7,0-90.2,40.5-90.2,90.1S340.7,304.7,390.4,304.7L390.4,304.7z"/>
			<linearGradient id="SVGID_115_" gradientUnits="userSpaceOnUse" x1="390.3852" y1="304.2099" x2="390.3852" y2="124.9581">
				<stop  offset="0" style="stop-color:#FF7C58"/>
				<stop  offset="1" style="stop-color:#720BDA"/>
			</linearGradient>
			<path opacity="0.1569" fill-rule="evenodd" clip-rule="evenodd" fill="url(#SVGID_115_)" d="M390.4,304.2
				c49.4,0,89.7-40.3,89.7-89.6S439.8,125,390.4,125c-49.4,0-89.8,40.3-89.8,89.6S341,304.2,390.4,304.2L390.4,304.2z"/>
			<linearGradient id="SVGID_116_" gradientUnits="userSpaceOnUse" x1="390.3852" y1="303.7654" x2="390.3852" y2="125.4026">
				<stop  offset="0" style="stop-color:#FF7C58"/>
				<stop  offset="1" style="stop-color:#720BDA"/>
			</linearGradient>
			<path opacity="0.1667" fill-rule="evenodd" clip-rule="evenodd" fill="url(#SVGID_116_)" d="M390.4,303.8
				c49.2,0,89.3-40.1,89.3-89.2s-40.1-89.2-89.3-89.2c-49.2,0-89.3,40.1-89.3,89.2S341.2,303.8,390.4,303.8L390.4,303.8z"/>
			<linearGradient id="SVGID_117_" gradientUnits="userSpaceOnUse" x1="390.3852" y1="303.3208" x2="390.3852" y2="125.8472">
				<stop  offset="0" style="stop-color:#FF7C58"/>
				<stop  offset="1" style="stop-color:#720BDA"/>
			</linearGradient>
			<path opacity="0.1765" fill-rule="evenodd" clip-rule="evenodd" fill="url(#SVGID_117_)" d="M390.4,303.3
				c48.9,0,88.8-39.9,88.8-88.7s-39.9-88.7-88.8-88.7c-48.9,0-88.9,39.9-88.9,88.7S341.5,303.3,390.4,303.3L390.4,303.3z"/>
			<linearGradient id="SVGID_118_" gradientUnits="userSpaceOnUse" x1="390.3852" y1="302.8763" x2="390.3852" y2="126.2917">
				<stop  offset="0" style="stop-color:#FF7C58"/>
				<stop  offset="1" style="stop-color:#720BDA"/>
			</linearGradient>
			<path opacity="0.1863" fill-rule="evenodd" clip-rule="evenodd" fill="url(#SVGID_118_)" d="M390.4,302.9
				c48.7,0,88.4-39.7,88.4-88.3s-39.7-88.3-88.4-88.3c-48.7,0-88.4,39.7-88.4,88.3S341.7,302.9,390.4,302.9L390.4,302.9z"/>
			<linearGradient id="SVGID_119_" gradientUnits="userSpaceOnUse" x1="390.3852" y1="302.4318" x2="390.3852" y2="126.7362">
				<stop  offset="0" style="stop-color:#FF7C58"/>
				<stop  offset="1" style="stop-color:#720BDA"/>
			</linearGradient>
			<path opacity="0.1961" fill-rule="evenodd" clip-rule="evenodd" fill="url(#SVGID_119_)" d="M390.4,302.4
				c48.4,0,87.9-39.5,87.9-87.8s-39.5-87.8-87.9-87.8c-48.4,0-88,39.5-88,87.8S342,302.4,390.4,302.4L390.4,302.4z"/>
			<linearGradient id="SVGID_120_" gradientUnits="userSpaceOnUse" x1="390.3852" y1="301.9872" x2="390.3852" y2="127.1808">
				<stop  offset="0" style="stop-color:#FF7C58"/>
				<stop  offset="1" style="stop-color:#720BDA"/>
			</linearGradient>
			<path opacity="0.2059" fill-rule="evenodd" clip-rule="evenodd" fill="url(#SVGID_120_)" d="M390.4,302
				c48.2,0,87.5-39.3,87.5-87.4s-39.3-87.4-87.5-87.4c-48.2,0-87.5,39.3-87.5,87.4S342.2,302,390.4,302L390.4,302z"/>
			<linearGradient id="SVGID_121_" gradientUnits="userSpaceOnUse" x1="390.3852" y1="301.5427" x2="390.3852" y2="127.6253">
				<stop  offset="0" style="stop-color:#FF7C58"/>
				<stop  offset="1" style="stop-color:#720BDA"/>
			</linearGradient>
			<path opacity="0.2157" fill-rule="evenodd" clip-rule="evenodd" fill="url(#SVGID_121_)" d="M390.4,301.5c47.9,0,87-39.1,87-87
				s-39.1-87-87-87c-48,0-87.1,39.1-87.1,87S342.5,301.5,390.4,301.5L390.4,301.5z"/>
			<linearGradient id="SVGID_122_" gradientUnits="userSpaceOnUse" x1="390.3852" y1="301.0981" x2="390.3852" y2="128.0699">
				<stop  offset="0" style="stop-color:#FF7C58"/>
				<stop  offset="1" style="stop-color:#720BDA"/>
			</linearGradient>
			<path opacity="0.2255" fill-rule="evenodd" clip-rule="evenodd" fill="url(#SVGID_122_)" d="M390.4,301.1
				c47.7,0,86.6-38.9,86.6-86.5s-38.9-86.5-86.6-86.5c-47.7,0-86.6,38.9-86.6,86.5S342.7,301.1,390.4,301.1L390.4,301.1z"/>
			<linearGradient id="SVGID_123_" gradientUnits="userSpaceOnUse" x1="390.3852" y1="300.6536" x2="390.3852" y2="128.5144">
				<stop  offset="0" style="stop-color:#FF7C58"/>
				<stop  offset="1" style="stop-color:#720BDA"/>
			</linearGradient>
			<path opacity="0.2353" fill-rule="evenodd" clip-rule="evenodd" fill="url(#SVGID_123_)" d="M390.4,300.7
				c47.4,0,86.2-38.7,86.2-86.1s-38.7-86.1-86.2-86.1c-47.5,0-86.2,38.7-86.2,86.1S342.9,300.7,390.4,300.7L390.4,300.7z"/>
			<linearGradient id="SVGID_124_" gradientUnits="userSpaceOnUse" x1="390.3852" y1="300.2091" x2="390.3852" y2="128.9589">
				<stop  offset="0" style="stop-color:#FF7C58"/>
				<stop  offset="1" style="stop-color:#720BDA"/>
			</linearGradient>
			<path opacity="0.2451" fill-rule="evenodd" clip-rule="evenodd" fill="url(#SVGID_124_)" d="M390.4,300.2
				c47.2,0,85.7-38.5,85.7-85.6S437.6,129,390.4,129c-47.2,0-85.7,38.5-85.7,85.6S343.2,300.2,390.4,300.2L390.4,300.2z"/>
			<linearGradient id="SVGID_125_" gradientUnits="userSpaceOnUse" x1="390.3852" y1="299.7645" x2="390.3852" y2="129.4035">
				<stop  offset="0" style="stop-color:#FF7C58"/>
				<stop  offset="1" style="stop-color:#720BDA"/>
			</linearGradient>
			<path opacity="0.2549" fill-rule="evenodd" clip-rule="evenodd" fill="url(#SVGID_125_)" d="M390.4,299.8
				c47,0,85.3-38.3,85.3-85.2s-38.3-85.2-85.3-85.2c-47,0-85.3,38.3-85.3,85.2S343.4,299.8,390.4,299.8L390.4,299.8z"/>
			<linearGradient id="SVGID_126_" gradientUnits="userSpaceOnUse" x1="390.3852" y1="299.32" x2="390.3852" y2="129.848">
				<stop  offset="0" style="stop-color:#FF7C58"/>
				<stop  offset="1" style="stop-color:#720BDA"/>
			</linearGradient>
			<path opacity="0.2647" fill-rule="evenodd" clip-rule="evenodd" fill="url(#SVGID_126_)" d="M390.4,299.3
				c46.7,0,84.8-38.1,84.8-84.7s-38.1-84.7-84.8-84.7c-46.7,0-84.8,38.1-84.8,84.7S343.7,299.3,390.4,299.3L390.4,299.3z"/>
			<linearGradient id="SVGID_127_" gradientUnits="userSpaceOnUse" x1="390.3852" y1="298.8755" x2="390.3852" y2="130.2925">
				<stop  offset="0" style="stop-color:#FF7C58"/>
				<stop  offset="1" style="stop-color:#720BDA"/>
			</linearGradient>
			<path opacity="0.2745" fill-rule="evenodd" clip-rule="evenodd" fill="url(#SVGID_127_)" d="M390.4,298.9
				c46.5,0,84.4-37.9,84.4-84.3s-37.9-84.3-84.4-84.3c-46.5,0-84.4,37.9-84.4,84.3S343.9,298.9,390.4,298.9L390.4,298.9z"/>
			<linearGradient id="SVGID_128_" gradientUnits="userSpaceOnUse" x1="390.3852" y1="298.4309" x2="390.3852" y2="130.7371">
				<stop  offset="0" style="stop-color:#FF7C58"/>
				<stop  offset="1" style="stop-color:#720BDA"/>
			</linearGradient>
			<path opacity="0.2843" fill-rule="evenodd" clip-rule="evenodd" fill="url(#SVGID_128_)" d="M390.4,298.4
				c46.2,0,83.9-37.7,83.9-83.8c0-46.2-37.7-83.8-83.9-83.8c-46.2,0-84,37.7-84,83.8C306.4,260.8,344.2,298.4,390.4,298.4
				L390.4,298.4z"/>
			<linearGradient id="SVGID_129_" gradientUnits="userSpaceOnUse" x1="390.3852" y1="297.9864" x2="390.3852" y2="131.1816">
				<stop  offset="0" style="stop-color:#FF7C58"/>
				<stop  offset="1" style="stop-color:#720BDA"/>
			</linearGradient>
			<path opacity="0.2941" fill-rule="evenodd" clip-rule="evenodd" fill="url(#SVGID_129_)" d="M390.4,298c46,0,83.5-37.5,83.5-83.4
				c0-45.9-37.5-83.4-83.5-83.4c-46,0-83.5,37.5-83.5,83.4C306.9,260.5,344.4,298,390.4,298L390.4,298z"/>
			<linearGradient id="SVGID_130_" gradientUnits="userSpaceOnUse" x1="390.3852" y1="297.5418" x2="390.3852" y2="131.6262">
				<stop  offset="0" style="stop-color:#FF7C58"/>
				<stop  offset="1" style="stop-color:#720BDA"/>
			</linearGradient>
			<path opacity="0.3039" fill-rule="evenodd" clip-rule="evenodd" fill="url(#SVGID_130_)" d="M390.4,297.5c45.7,0,83-37.3,83-83
				c0-45.7-37.3-83-83-83c-45.7,0-83.1,37.3-83.1,83C307.3,260.3,344.7,297.5,390.4,297.5L390.4,297.5z"/>
			<linearGradient id="SVGID_131_" gradientUnits="userSpaceOnUse" x1="390.3852" y1="297.0973" x2="390.3852" y2="132.0707">
				<stop  offset="0" style="stop-color:#FF7C58"/>
				<stop  offset="1" style="stop-color:#720BDA"/>
			</linearGradient>
			<path opacity="0.3137" fill-rule="evenodd" clip-rule="evenodd" fill="url(#SVGID_131_)" d="M390.4,297.1
				c45.5,0,82.6-37.1,82.6-82.5c0-45.4-37.1-82.5-82.6-82.5c-45.5,0-82.6,37.1-82.6,82.5C307.8,260,344.9,297.1,390.4,297.1
				L390.4,297.1z"/>
			<linearGradient id="SVGID_132_" gradientUnits="userSpaceOnUse" x1="390.3852" y1="296.6528" x2="390.3852" y2="132.5152">
				<stop  offset="0" style="stop-color:#FF7C58"/>
				<stop  offset="1" style="stop-color:#720BDA"/>
			</linearGradient>
			<path opacity="0.3235" fill-rule="evenodd" clip-rule="evenodd" fill="url(#SVGID_132_)" d="M390.4,296.7
				c45.2,0,82.1-36.9,82.1-82.1c0-45.2-36.9-82.1-82.1-82.1c-45.3,0-82.2,36.9-82.2,82.1C308.2,259.8,345.1,296.7,390.4,296.7
				L390.4,296.7z"/>
			<linearGradient id="SVGID_133_" gradientUnits="userSpaceOnUse" x1="390.3852" y1="296.2082" x2="390.3852" y2="132.9598">
				<stop  offset="0" style="stop-color:#FF7C58"/>
				<stop  offset="1" style="stop-color:#720BDA"/>
			</linearGradient>
			<path opacity="0.3333" fill-rule="evenodd" clip-rule="evenodd" fill="url(#SVGID_133_)" d="M390.4,296.2
				c45,0,81.7-36.7,81.7-81.6c0-45-36.7-81.6-81.7-81.6c-45,0-81.7,36.7-81.7,81.6C308.7,259.5,345.4,296.2,390.4,296.2L390.4,296.2
				z"/>
			<linearGradient id="SVGID_134_" gradientUnits="userSpaceOnUse" x1="390.3852" y1="295.7637" x2="390.3852" y2="133.4043">
				<stop  offset="0" style="stop-color:#FF7C58"/>
				<stop  offset="1" style="stop-color:#720BDA"/>
			</linearGradient>
			<path opacity="0.3431" fill-rule="evenodd" clip-rule="evenodd" fill="url(#SVGID_134_)" d="M390.4,295.8
				c44.7,0,81.2-36.5,81.2-81.2c0-44.7-36.5-81.2-81.2-81.2c-44.8,0-81.3,36.5-81.3,81.2C309.1,259.3,345.6,295.8,390.4,295.8
				L390.4,295.8z"/>
			<linearGradient id="SVGID_135_" gradientUnits="userSpaceOnUse" x1="390.3852" y1="295.3192" x2="390.3852" y2="133.8488">
				<stop  offset="0" style="stop-color:#FF7C58"/>
				<stop  offset="1" style="stop-color:#720BDA"/>
			</linearGradient>
			<path opacity="0.3529" fill-rule="evenodd" clip-rule="evenodd" fill="url(#SVGID_135_)" d="M390.4,295.3
				c44.5,0,80.8-36.3,80.8-80.7c0-44.5-36.3-80.7-80.8-80.7c-44.5,0-80.8,36.3-80.8,80.7C309.6,259.1,345.9,295.3,390.4,295.3
				L390.4,295.3z"/>
			<linearGradient id="SVGID_136_" gradientUnits="userSpaceOnUse" x1="390.3852" y1="294.8746" x2="390.3852" y2="134.2934">
				<stop  offset="0" style="stop-color:#FF7C58"/>
				<stop  offset="1" style="stop-color:#720BDA"/>
			</linearGradient>
			<path opacity="0.3627" fill-rule="evenodd" clip-rule="evenodd" fill="url(#SVGID_136_)" d="M390.4,294.9
				c44.2,0,80.4-36.1,80.4-80.3c0-44.2-36.1-80.3-80.4-80.3c-44.3,0-80.4,36.1-80.4,80.3C310,258.8,346.1,294.9,390.4,294.9
				L390.4,294.9z"/>
			<linearGradient id="SVGID_137_" gradientUnits="userSpaceOnUse" x1="390.3852" y1="294.4301" x2="390.3852" y2="134.7379">
				<stop  offset="0" style="stop-color:#FF7C58"/>
				<stop  offset="1" style="stop-color:#720BDA"/>
			</linearGradient>
			<path opacity="0.3725" fill-rule="evenodd" clip-rule="evenodd" fill="url(#SVGID_137_)" d="M390.4,294.4
				c44,0,79.9-35.9,79.9-79.8c0-44-35.9-79.8-79.9-79.8c-44,0-79.9,35.9-79.9,79.8C310.5,258.6,346.4,294.4,390.4,294.4L390.4,294.4
				z"/>
			<linearGradient id="SVGID_138_" gradientUnits="userSpaceOnUse" x1="390.3852" y1="293.9855" x2="390.3852" y2="135.1824">
				<stop  offset="0" style="stop-color:#FF7C58"/>
				<stop  offset="1" style="stop-color:#720BDA"/>
			</linearGradient>
			<path opacity="0.3824" fill-rule="evenodd" clip-rule="evenodd" fill="url(#SVGID_138_)" d="M390.4,294
				c43.8,0,79.5-35.7,79.5-79.4c0-43.7-35.7-79.4-79.5-79.4c-43.8,0-79.5,35.7-79.5,79.4C310.9,258.3,346.6,294,390.4,294L390.4,294
				z"/>
			<linearGradient id="SVGID_139_" gradientUnits="userSpaceOnUse" x1="390.3852" y1="293.541" x2="390.3852" y2="135.627">
				<stop  offset="0" style="stop-color:#FF7C58"/>
				<stop  offset="1" style="stop-color:#720BDA"/>
			</linearGradient>
			<path opacity="0.3922" fill-rule="evenodd" clip-rule="evenodd" fill="url(#SVGID_139_)" d="M390.4,293.5c43.5,0,79-35.5,79-79
				c0-43.5-35.5-79-79-79c-43.5,0-79.1,35.5-79.1,79C311.3,258.1,346.9,293.5,390.4,293.5L390.4,293.5z"/>
			<linearGradient id="SVGID_140_" gradientUnits="userSpaceOnUse" x1="390.3852" y1="293.0965" x2="390.3852" y2="136.0715">
				<stop  offset="0" style="stop-color:#FF7C58"/>
				<stop  offset="1" style="stop-color:#720BDA"/>
			</linearGradient>
			<path opacity="0.402" fill-rule="evenodd" clip-rule="evenodd" fill="url(#SVGID_140_)" d="M390.4,293.1
				c43.3,0,78.6-35.3,78.6-78.5c0-43.2-35.3-78.5-78.6-78.5c-43.3,0-78.6,35.3-78.6,78.5C311.8,257.8,347.1,293.1,390.4,293.1
				L390.4,293.1z"/>
			<linearGradient id="SVGID_141_" gradientUnits="userSpaceOnUse" x1="390.3852" y1="292.6519" x2="390.3852" y2="136.5161">
				<stop  offset="0" style="stop-color:#FF7C58"/>
				<stop  offset="1" style="stop-color:#720BDA"/>
			</linearGradient>
			<path opacity="0.4118" fill-rule="evenodd" clip-rule="evenodd" fill="url(#SVGID_141_)" d="M390.4,292.7
				c43,0,78.1-35.1,78.1-78.1c0-43-35.1-78.1-78.1-78.1c-43,0-78.2,35.1-78.2,78.1C312.2,257.6,347.4,292.7,390.4,292.7L390.4,292.7
				z"/>
			<linearGradient id="SVGID_142_" gradientUnits="userSpaceOnUse" x1="390.3852" y1="292.2074" x2="390.3852" y2="136.9606">
				<stop  offset="0" style="stop-color:#FF7C58"/>
				<stop  offset="1" style="stop-color:#720BDA"/>
			</linearGradient>
			<path opacity="0.4216" fill-rule="evenodd" clip-rule="evenodd" fill="url(#SVGID_142_)" d="M390.4,292.2
				c42.8,0,77.7-34.9,77.7-77.6c0-42.8-34.9-77.6-77.7-77.6c-42.8,0-77.7,34.9-77.7,77.6C312.7,257.3,347.6,292.2,390.4,292.2
				L390.4,292.2z"/>
			<linearGradient id="SVGID_143_" gradientUnits="userSpaceOnUse" x1="390.3852" y1="291.7628" x2="390.3852" y2="137.4051">
				<stop  offset="0" style="stop-color:#FF7C58"/>
				<stop  offset="1" style="stop-color:#720BDA"/>
			</linearGradient>
			<path opacity="0.4314" fill-rule="evenodd" clip-rule="evenodd" fill="url(#SVGID_143_)" d="M390.4,291.8
				c42.5,0,77.2-34.7,77.2-77.2c0-42.5-34.7-77.2-77.2-77.2c-42.6,0-77.3,34.7-77.3,77.2C313.1,257.1,347.8,291.8,390.4,291.8
				L390.4,291.8z"/>
			<linearGradient id="SVGID_144_" gradientUnits="userSpaceOnUse" x1="390.3852" y1="291.3183" x2="390.3852" y2="137.8497">
				<stop  offset="0" style="stop-color:#FF7C58"/>
				<stop  offset="1" style="stop-color:#720BDA"/>
			</linearGradient>
			<path opacity="0.4412" fill-rule="evenodd" clip-rule="evenodd" fill="url(#SVGID_144_)" d="M390.4,291.3
				c42.3,0,76.8-34.5,76.8-76.7c0-42.3-34.5-76.7-76.8-76.7c-42.3,0-76.8,34.5-76.8,76.7C313.6,256.8,348.1,291.3,390.4,291.3
				L390.4,291.3z"/>
			<linearGradient id="SVGID_145_" gradientUnits="userSpaceOnUse" x1="390.3852" y1="290.8738" x2="390.3852" y2="138.2942">
				<stop  offset="0" style="stop-color:#FF7C58"/>
				<stop  offset="1" style="stop-color:#720BDA"/>
			</linearGradient>
			<path opacity="0.451" fill-rule="evenodd" clip-rule="evenodd" fill="url(#SVGID_145_)" d="M390.4,290.9
				c42,0,76.3-34.3,76.3-76.3c0-42-34.3-76.3-76.3-76.3c-42.1,0-76.4,34.3-76.4,76.3C314,256.6,348.3,290.9,390.4,290.9L390.4,290.9
				z"/>
			<linearGradient id="SVGID_146_" gradientUnits="userSpaceOnUse" x1="390.3852" y1="290.4292" x2="390.3852" y2="138.7388">
				<stop  offset="0" style="stop-color:#FF7C58"/>
				<stop  offset="1" style="stop-color:#720BDA"/>
			</linearGradient>
			<path opacity="0.4608" fill-rule="evenodd" clip-rule="evenodd" fill="url(#SVGID_146_)" d="M390.4,290.4
				c41.8,0,75.9-34.1,75.9-75.8c0-41.8-34.1-75.8-75.9-75.8c-41.8,0-75.9,34.1-75.9,75.8C314.5,256.4,348.6,290.4,390.4,290.4
				L390.4,290.4z"/>
			<linearGradient id="SVGID_147_" gradientUnits="userSpaceOnUse" x1="390.3852" y1="289.9847" x2="390.3852" y2="139.1833">
				<stop  offset="0" style="stop-color:#FF7C58"/>
				<stop  offset="1" style="stop-color:#720BDA"/>
			</linearGradient>
			<path opacity="0.4706" fill-rule="evenodd" clip-rule="evenodd" fill="url(#SVGID_147_)" d="M390.4,290
				c41.5,0,75.5-33.9,75.5-75.4c0-41.5-33.9-75.4-75.5-75.4c-41.6,0-75.5,33.9-75.5,75.4C314.9,256.1,348.8,290,390.4,290L390.4,290
				z"/>
			<linearGradient id="SVGID_148_" gradientUnits="userSpaceOnUse" x1="390.3852" y1="289.5402" x2="390.3852" y2="139.6278">
				<stop  offset="0" style="stop-color:#FF7C58"/>
				<stop  offset="1" style="stop-color:#720BDA"/>
			</linearGradient>
			<path opacity="0.4804" fill-rule="evenodd" clip-rule="evenodd" fill="url(#SVGID_148_)" d="M390.4,289.5c41.3,0,75-33.7,75-75
				c0-41.3-33.7-75-75-75c-41.3,0-75,33.7-75,75C315.4,255.9,349.1,289.5,390.4,289.5L390.4,289.5z"/>
			<linearGradient id="SVGID_149_" gradientUnits="userSpaceOnUse" x1="390.3852" y1="289.0956" x2="390.3852" y2="140.0724">
				<stop  offset="0" style="stop-color:#FF7C58"/>
				<stop  offset="1" style="stop-color:#720BDA"/>
			</linearGradient>
			<path opacity="0.4902" fill-rule="evenodd" clip-rule="evenodd" fill="url(#SVGID_149_)" d="M390.4,289.1
				c41.1,0,74.6-33.5,74.6-74.5c0-41-33.5-74.5-74.6-74.5c-41.1,0-74.6,33.5-74.6,74.5C315.8,255.6,349.3,289.1,390.4,289.1
				L390.4,289.1z"/>
			<linearGradient id="SVGID_150_" gradientUnits="userSpaceOnUse" x1="390.3852" y1="288.6511" x2="390.3852" y2="140.5169">
				<stop  offset="0" style="stop-color:#FF7C58"/>
				<stop  offset="1" style="stop-color:#720BDA"/>
			</linearGradient>
			<path opacity="0.5" fill-rule="evenodd" clip-rule="evenodd" fill="url(#SVGID_150_)" d="M390.4,288.7
				c40.8,0,74.1-33.3,74.1-74.1c0-40.8-33.3-74.1-74.1-74.1c-40.8,0-74.2,33.3-74.2,74.1C316.3,255.4,349.6,288.7,390.4,288.7
				L390.4,288.7z"/>
		</g>
		<g>
			<linearGradient id="SVGID_151_" gradientUnits="userSpaceOnUse" x1="390.385" y1="288.6511" x2="390.385" y2="140.5169">
				<stop  offset="0" style="stop-color:#FF7C58"/>
				<stop  offset="1" style="stop-color:#720BDA"/>
			</linearGradient>
			<path fill-rule="evenodd" clip-rule="evenodd" fill="url(#SVGID_151_)" d="M390.4,288.7c40.8,0,74.1-33.3,74.1-74.1
				c0-40.8-33.3-74.1-74.1-74.1c-40.8,0-74.2,33.3-74.2,74.1C316.3,255.4,349.6,288.7,390.4,288.7L390.4,288.7z"/>
			<linearGradient id="SVGID_152_" gradientUnits="userSpaceOnUse" x1="387.6706" y1="288.6511" x2="387.6706" y2="140.5169">
				<stop  offset="0" style="stop-color:#FF4998"/>
				<stop  offset="1" style="stop-color:#5600AC"/>
			</linearGradient>
			<path fill-rule="evenodd" clip-rule="evenodd" fill="url(#SVGID_152_)" d="M390.4,140.5c6.2,0,12.3,0.8,18,2.2
				c-5.2,6.8-20,16.3-25.3,17.4c-7.5,1.5-17.4-5.2-14.2-12c0.9-1.8,1.6-3.5,2.3-5.1C377.4,141.4,383.8,140.5,390.4,140.5
				L390.4,140.5z M430.9,152.5c12.6,8.2,22.5,20.1,28.2,34.2c-2.2,5-7.3,9.4-12.4,10.5c-7.5,1.5-17.9-0.4-21.8-7
				c-5.7-9.6-9.1-24.7-2.1-33.3C424.8,154.6,427.6,153.2,430.9,152.5L430.9,152.5z M456.6,247.9c-4.5,8.9-10.8,16.8-18.3,23.2
				c-4.5-4.7-10.5-6.7-6.3-11.9C436,254.4,447.1,249.3,456.6,247.9L456.6,247.9z M432.8,275.3c-12,8.4-26.6,13.3-42.4,13.3
				c-0.7,0-1.4,0-2,0c2-2.9,3.1-6.8,1.6-12.5c-1.9-7.4,22.1,4.1,33-6.6C427.1,265.4,431.3,269.8,432.8,275.3L432.8,275.3z
				 M380.5,288c-2.3-0.3-4.5-0.7-6.7-1.2c0.5-3.5,2.9-7.9,3.5-10.8c1.6-7.5,6.8-6.8,7.1-3.3C385.3,280.5,383.1,285.3,380.5,288
				L380.5,288z M366.4,284.7c-13.9-4.8-26-13.6-34.8-25c0.1-4.4,1.3-8.5,3.9-11.7c6.2-7.6,21.2-5.4,29.2,0.2
				c7.4,5.2,9.3,16.9,8.1,25.9C372.3,278,369.7,281.9,366.4,284.7L366.4,284.7z M317.1,225.4c-0.5-3.5-0.8-7.2-0.8-10.8
				c0-11.4,2.6-22.1,7.1-31.7c1.7,0.3,3.2,0.8,4.4,1.6c7.4,5.2-1.8,12.1-3,21.1c-0.9,6.4,4,17.7-2.3,19
				C320.9,224.8,319.1,225.1,317.1,225.4L317.1,225.4z M328.5,173.8c7.8-11.8,18.9-21.3,32-27c4.5,5.9,5.5,15.1,4.6,22.5
				c-0.9,6.4-7.1,12.8-13.5,14.1c-7.5,1.5-17.9-0.4-21.8-6.9C329.4,175.6,329,174.7,328.5,173.8L328.5,173.8z M413.5,164.7
				c-4.1,0.2-7.1-2.2-8.7-6c-1.4-3.3,5.8-7.3,9-8.9C416.2,148.5,415.5,164.6,413.5,164.7L413.5,164.7z M409.9,267
				c-2.1-3.5-1.4-7.3,1.2-10.5c2.3-2.8,9.2,1.6,12.1,3.7C425.5,261.8,411,268.7,409.9,267L409.9,267z M414.6,241.4
				c8.9-18.6,5.7-26.3,12.7-35c6.2-7.5,11.9,2,26.4-0.9c8.9-1.8,3.3,17.9,2.1,26.9c-0.9,6.4-20.8,19.7-27.1,21.1
				C421.3,255,411.3,248.3,414.6,241.4L414.6,241.4z M327.7,246.4c-3-1.9-6.3-9.9-3.7-13c2.3-2.8,11,0.3,12.1,3.7
				C337.5,241.1,329.4,247.5,327.7,246.4L327.7,246.4z M366.7,224.3c-2.1-3.5-1.4-7.3,1.2-10.5c2.3-2.8,9.2,1.6,12.1,3.7
				C382.3,219.1,367.7,226.1,366.7,224.3L366.7,224.3z M375.4,206.1c4.8-18.2-16.8-18-9.7-26.6c6.2-7.5,29.6-15.5,37.5-9.9
				c7.4,5.2,16.6,26.3,15.4,35.3c-0.9,6.4-5.6,12.4-10.2,7.9C397.4,202,373.4,213.5,375.4,206.1L375.4,206.1z M378,258.3
				c4.8-18.1-16.8-18-9.7-26.6c6.2-7.5,29.6-15.5,37.5-10c7.4,5.2-1.8,12.1-3,21.1c-0.9,6.4,4,17.7-2.3,19
				C393,263.3,376.1,265.7,378,258.3L378,258.3z M336.3,231c-5.7-9.6-9.1-24.7-2.1-33.3c6.2-7.5,21.2-5.4,29.2,0.2
				c7.4,5.2-1.8,12.1-3,21.1c-0.8,6.4,4.1,17.7-2.3,19C350.6,239.5,340.2,237.5,336.3,231L336.3,231z"/>
		</g>
	</g>
</g>
</svg>
