<svg xmlns="http://www.w3.org/2000/svg" width="122" height="557" viewBox="0 0 122 557" fill="none">
<path d="M101 19.5096V530.662" stroke="url(#paint0_linear_16_2)" stroke-width="2"/>
<g filter="url(#filter0_d_16_2)">
<path d="M100 37.0683C107.732 37.0683 114 30.954 114 23.4116C114 15.8692 107.732 9.75482 100 9.75482C92.268 9.75482 86 15.8692 86 23.4116C86 30.954 92.268 37.0683 100 37.0683Z" fill="#7F43FD"/>
</g>
<g filter="url(#filter1_d_16_2)">
<path d="M100 295.571C107.732 295.571 114 289.457 114 281.914C114 274.372 107.732 268.257 100 268.257C92.268 268.257 86 274.372 86 281.914C86 289.457 92.268 295.571 100 295.571Z" fill="#7F43FD"/>
</g>
<g filter="url(#filter2_d_16_2)">
<path d="M100 543.343C107.732 543.343 114 537.229 114 529.687C114 522.144 107.732 516.03 100 516.03C92.268 516.03 86 522.144 86 529.687C86 537.229 92.268 543.343 100 543.343Z" fill="#7F43FD"/>
</g>
<path d="M12.78 37.4897C10.452 37.4897 8.46 36.9629 6.804 35.9094C5.14799 34.8325 3.864 33.3459 2.952 31.4495C2.064 29.5298 1.62 27.3057 1.62 24.7772C1.62 22.2722 2.064 20.0598 2.952 18.1401C3.864 16.2203 5.14799 14.7337 6.804 13.6802C8.46 12.6032 10.452 12.0648 12.78 12.0648C15.108 12.0648 17.1 12.6032 18.756 13.6802C20.412 14.7337 21.684 16.2203 22.572 18.1401C23.484 20.0598 23.94 22.2722 23.94 24.7772C23.94 27.3057 23.484 29.5298 22.572 31.4495C21.684 33.3459 20.412 34.8325 18.756 35.9094C17.1 36.9629 15.108 37.4897 12.78 37.4897ZM12.78 33.4512C14.676 33.4512 16.224 32.6786 17.424 31.1335C18.624 29.5883 19.224 27.4696 19.224 24.7772C19.224 22.0849 18.624 19.9662 17.424 18.421C16.224 16.8758 14.676 16.1033 12.78 16.1033C10.86 16.1033 9.3 16.8758 8.1 18.421C6.924 19.9662 6.336 22.0849 6.336 24.7772C6.336 27.4696 6.924 29.5883 8.1 31.1335C9.3 32.6786 10.86 33.4512 12.78 33.4512ZM30.7426 37.0683V17.6133L26.6026 18.5615V15.12L32.6866 12.4862H35.5306V37.0683H30.7426Z" fill="white"/>
<path d="M12.78 295.992C10.452 295.992 8.46 295.466 6.804 294.412C5.14799 293.335 3.864 291.848 2.952 289.952C2.064 288.032 1.62 285.808 1.62 283.28C1.62 280.775 2.064 278.562 2.952 276.643C3.864 274.723 5.14799 273.236 6.804 272.183C8.46 271.106 10.452 270.567 12.78 270.567C15.108 270.567 17.1 271.106 18.756 272.183C20.412 273.236 21.684 274.723 22.572 276.643C23.484 278.562 23.94 280.775 23.94 283.28C23.94 285.808 23.484 288.032 22.572 289.952C21.684 291.848 20.412 293.335 18.756 294.412C17.1 295.466 15.108 295.992 12.78 295.992ZM12.78 291.954C14.676 291.954 16.224 291.181 17.424 289.636C18.624 288.091 19.224 285.972 19.224 283.28C19.224 280.588 18.624 278.469 17.424 276.924C16.224 275.378 14.676 274.606 12.78 274.606C10.86 274.606 9.3 275.378 8.1 276.924C6.924 278.469 6.336 280.588 6.336 283.28C6.336 285.972 6.924 288.091 8.1 289.636C9.3 291.181 10.86 291.954 12.78 291.954ZM27.2188 295.571V292.305C28.7548 291.064 30.2428 289.835 31.6828 288.618C33.1468 287.4 34.4428 286.195 35.5708 285.001C36.7228 283.807 37.6348 282.648 38.3068 281.524C39.0028 280.377 39.3508 279.265 39.3508 278.188C39.3508 277.181 39.0628 276.291 38.4868 275.519C37.9348 274.746 37.0108 274.36 35.7148 274.36C34.3948 274.36 33.3988 274.781 32.7268 275.624C32.0548 276.467 31.7188 277.485 31.7188 278.679H27.2548C27.3028 276.877 27.7108 275.378 28.4788 274.184C29.2468 272.967 30.2668 272.066 31.5388 271.48C32.8108 270.872 34.2388 270.567 35.8228 270.567C38.3908 270.567 40.3828 271.258 41.7988 272.639C43.2388 273.997 43.9588 275.765 43.9588 277.942C43.9588 279.3 43.6348 280.623 42.9868 281.91C42.3628 283.198 41.5348 284.439 40.5028 285.633C39.4708 286.827 38.3548 287.95 37.1548 289.004C35.9548 290.034 34.7908 290.994 33.6628 291.884H44.5708V295.571H27.2188Z" fill="white"/>
<path d="M12.78 543.765C10.452 543.765 8.46 543.238 6.804 542.184C5.14799 541.107 3.864 539.621 2.952 537.725C2.064 535.805 1.62 533.581 1.62 531.052C1.62 528.547 2.064 526.335 2.952 524.415C3.864 522.495 5.14799 521.009 6.804 519.955C8.46 518.878 10.452 518.34 12.78 518.34C15.108 518.34 17.1 518.878 18.756 519.955C20.412 521.009 21.684 522.495 22.572 524.415C23.484 526.335 23.94 528.547 23.94 531.052C23.94 533.581 23.484 535.805 22.572 537.725C21.684 539.621 20.412 541.107 18.756 542.184C17.1 543.238 15.108 543.765 12.78 543.765ZM12.78 539.726C14.676 539.726 16.224 538.954 17.424 537.408C18.624 535.863 19.224 533.745 19.224 531.052C19.224 528.36 18.624 526.241 17.424 524.696C16.224 523.151 14.676 522.378 12.78 522.378C10.86 522.378 9.3 523.151 8.1 524.696C6.924 526.241 6.336 528.36 6.336 531.052C6.336 533.745 6.924 535.863 8.1 537.408C9.3 538.954 10.86 539.726 12.78 539.726ZM36.2506 543.765C34.5946 543.765 33.0946 543.484 31.7506 542.922C30.4066 542.337 29.3266 541.447 28.5106 540.253C27.6946 539.059 27.2626 537.561 27.2146 535.758H31.7506C31.7746 536.952 32.1706 537.959 32.9386 538.778C33.7306 539.574 34.8346 539.972 36.2506 539.972C37.5946 539.972 38.6266 539.609 39.3466 538.883C40.0666 538.158 40.4266 537.245 40.4266 536.144C40.4266 534.857 39.9466 533.885 38.9866 533.23C38.0506 532.551 36.8386 532.211 35.3506 532.211H33.4786V528.524H35.3866C36.6106 528.524 37.6306 528.243 38.4466 527.681C39.2626 527.119 39.6706 526.288 39.6706 525.188C39.6706 524.275 39.3586 523.549 38.7346 523.01C38.1346 522.448 37.2946 522.168 36.2146 522.168C35.0386 522.168 34.1146 522.507 33.4426 523.186C32.7946 523.865 32.4346 524.696 32.3626 525.679H27.8626C27.9586 523.408 28.7626 521.617 30.2746 520.306C31.8106 518.995 33.7906 518.34 36.2146 518.34C37.9426 518.34 39.3946 518.644 40.5706 519.253C41.7706 519.838 42.6706 520.622 43.2706 521.606C43.8946 522.589 44.2066 523.678 44.2066 524.872C44.2066 526.253 43.8106 527.423 43.0186 528.383C42.2506 529.32 41.2906 529.952 40.1386 530.28C41.5546 530.561 42.7066 531.239 43.5946 532.316C44.4826 533.37 44.9266 534.704 44.9266 536.32C44.9266 537.678 44.5906 538.919 43.9186 540.042C43.2466 541.166 42.2626 542.067 40.9666 542.746C39.6946 543.425 38.1226 543.765 36.2506 543.765Z" fill="white"/>
<defs>
<filter id="filter0_d_16_2" x="82" y="9.75482" width="36" height="35.3135" filterUnits="userSpaceOnUse" color-interpolation-filters="sRGB">
<feFlood flood-opacity="0" result="BackgroundImageFix"/>
<feColorMatrix in="SourceAlpha" type="matrix" values="0 0 0 0 0 0 0 0 0 0 0 0 0 0 0 0 0 0 127 0" result="hardAlpha"/>
<feOffset dy="4"/>
<feGaussianBlur stdDeviation="2"/>
<feComposite in2="hardAlpha" operator="out"/>
<feColorMatrix type="matrix" values="0 0 0 0 0 0 0 0 0 0 0 0 0 0 0 0 0 0 0.25 0"/>
<feBlend mode="normal" in2="BackgroundImageFix" result="effect1_dropShadow_16_2"/>
<feBlend mode="normal" in="SourceGraphic" in2="effect1_dropShadow_16_2" result="shape"/>
</filter>
<filter id="filter1_d_16_2" x="82" y="268.257" width="36" height="35.3135" filterUnits="userSpaceOnUse" color-interpolation-filters="sRGB">
<feFlood flood-opacity="0" result="BackgroundImageFix"/>
<feColorMatrix in="SourceAlpha" type="matrix" values="0 0 0 0 0 0 0 0 0 0 0 0 0 0 0 0 0 0 127 0" result="hardAlpha"/>
<feOffset dy="4"/>
<feGaussianBlur stdDeviation="2"/>
<feComposite in2="hardAlpha" operator="out"/>
<feColorMatrix type="matrix" values="0 0 0 0 0 0 0 0 0 0 0 0 0 0 0 0 0 0 0.25 0"/>
<feBlend mode="normal" in2="BackgroundImageFix" result="effect1_dropShadow_16_2"/>
<feBlend mode="normal" in="SourceGraphic" in2="effect1_dropShadow_16_2" result="shape"/>
</filter>
<filter id="filter2_d_16_2" x="82" y="516.03" width="36" height="35.3135" filterUnits="userSpaceOnUse" color-interpolation-filters="sRGB">
<feFlood flood-opacity="0" result="BackgroundImageFix"/>
<feColorMatrix in="SourceAlpha" type="matrix" values="0 0 0 0 0 0 0 0 0 0 0 0 0 0 0 0 0 0 127 0" result="hardAlpha"/>
<feOffset dy="4"/>
<feGaussianBlur stdDeviation="2"/>
<feComposite in2="hardAlpha" operator="out"/>
<feColorMatrix type="matrix" values="0 0 0 0 0 0 0 0 0 0 0 0 0 0 0 0 0 0 0.25 0"/>
<feBlend mode="normal" in2="BackgroundImageFix" result="effect1_dropShadow_16_2"/>
<feBlend mode="normal" in="SourceGraphic" in2="effect1_dropShadow_16_2" result="shape"/>
</filter>
<linearGradient id="paint0_linear_16_2" x1="-nan" y1="-nan" x2="-nan" y2="-nan" gradientUnits="userSpaceOnUse">
<stop stop-color="white"/>
<stop offset="1" stop-color="white" stop-opacity="0"/>
</linearGradient>
</defs>
</svg>