<svg xmlns="http://www.w3.org/2000/svg" width="141" height="192" viewBox="0 0 141 192" fill="none">
<path d="M108.91 88.26L78.62 76.74L78.24 76.59C78.24 76.59 78.35 75.79 78.44 74.59C78.63 72.17 78.73 68.23 77.59 66.9C75.9 64.9 71.12 66.58 66.45 64.44C61.78 62.3 53.15 66.13 53.15 66.13C53.15 66.13 46.91 64.98 44.15 69.48C42.75 73.11 43.23 78.48 43.23 78.48L42.66 78.68C39.05 80.03 19.41 87.42 15.26 90.39C10.67 93.64 5.59001 127.01 3.96001 136.81C2.33001 146.61 -0.570006 155.44 0.899994 158.81C2.36999 162.18 23.47 178.43 35.61 182.62C47.75 186.81 90.8 185.62 90.8 185.62C90.8 185.62 91.5 185.43 92.75 185.03C100.03 182.69 125.86 173.03 139.57 150.35C139.59 150.39 126.31 106.86 108.91 88.26ZM27.07 144.39C24.84 145.97 26.07 152.09 26.07 152.09L22.28 148.75L31.8 125.34L35.86 143.34C35.86 143.34 29.3 142.82 27.07 144.39V144.39ZM103.23 159.26C102.18 159.8 106.23 148.55 104.31 146C102.39 143.45 96.6 143.69 96.6 143.69L97.09 140.62L100.52 123.02L101.66 121.67C101.66 121.67 113.44 141.86 115.55 148.98C115.55 149 102.71 159.26 103.23 159.26Z" fill="#7E57C2"/>
<path d="M51.72 15.25L36.08 31.85C36.08 31.85 33.93 33.76 34.78 38.57C35.63 43.38 37.6301 47.57 39.1401 47.85C40.3354 48.0593 41.5465 48.1663 42.76 48.17C42.76 48.17 46.11 55.43 48.49 58.28C48.49 58.28 49.31 69.49 48.87 72.6C48.87 72.6 54.49 77.51 59.78 78.13C65.07 78.75 73.24 70.65 73.24 70.65L75.24 60.73C75.24 60.73 80.04 53.45 80.36 51.51C80.68 49.57 82.88 50.07 83.96 49.11C85.04 48.15 87.53 43.88 87.96 39.84C88.39 35.8 88.4 31.16 83.71 32.52C79.64 31.43 82.19 22.83 82.19 22.83L75.04 16.53L51.72 15.25Z" fill="white"/>
<path opacity="0.5" d="M78.62 76.74C78.3841 77.358 78.1137 77.9623 77.81 78.55C75.23 83.41 63.99 92.68 63.99 92.68L60.59 82.23L58.73 92.68C54.98 91.04 43.54 81.13 43.54 81.13C43.54 81.13 43.15 80.2 42.68 78.75L43.25 78.55C43.25 78.55 42.77 73.14 44.17 69.55C46.91 65.05 53.17 66.2 53.17 66.2C53.17 66.2 61.8 62.37 66.47 64.51C71.14 66.65 75.92 64.99 77.61 66.97C79.3 68.95 78.26 76.63 78.26 76.63L78.62 76.74Z" fill="white"/>
<path opacity="0.2" d="M108.91 88.26L78.62 76.74L78.24 76.59C78.24 76.59 78.35 75.79 78.44 74.59L77.81 78.52L73.33 84.6C78.1189 86.3633 82.7945 88.4206 87.33 90.76C89.5013 91.9231 91.2726 93.7121 92.414 95.8949C93.5553 98.0777 94.0138 100.553 93.73 103L88.15 150.75L85.86 177.86L92.77 185.03C100.05 182.69 125.88 173.03 139.59 150.35C139.59 150.39 126.31 106.86 108.91 88.26ZM103.23 159.26C102.18 159.8 106.23 148.55 104.31 146C102.39 143.45 96.6 143.69 96.6 143.69L97.09 140.62L100.52 123.02L101.66 121.67C101.66 121.67 113.44 141.86 115.55 148.98C115.55 149 102.71 159.26 103.23 159.26Z" fill="black"/>
<path opacity="0.2" d="M37.87 146L33.16 130.26C33.16 130.26 24.71 101.45 18.92 94.35L20.44 114.61C20.44 114.61 15.44 138.81 10.87 146C6.29997 153.19 5.27997 155 10.87 155C16.46 155 30.07 165.84 30.07 165.84L29.02 156.84L37.87 146ZM26 152.09L22.21 148.75L31.73 125.34L35.79 143.34C35.79 143.34 29.27 142.85 27.04 144.42C24.81 145.99 26 152.09 26 152.09Z" fill="black"/>
<path d="M48.49 58.28C48.49 58.28 49.35 66.77 48.49 70.65" stroke="#263238" stroke-width="1.10311" stroke-linecap="round" stroke-linejoin="round"/>
<path d="M74.11 69.51C74.1193 66.7801 74.4346 64.0597 75.05 61.4" stroke="#263238" stroke-width="1.10311" stroke-linecap="round" stroke-linejoin="round"/>
<path d="M76.38 21.58C76.38 21.58 81.52 28.03 81.25 32.91C80.98 37.79 80.6 43.57 80.73 49.23C80.86 54.89 71.64 66.75 66.9 67.8C62.16 68.85 58.08 69.12 55.05 66.09C52.02 63.06 48.99 58.85 45.05 53.45C41.11 48.05 42.05 36.2 42.05 36.2" stroke="#263238" stroke-width="1.10311" stroke-linecap="round" stroke-linejoin="round"/>
<path d="M64 40.71C63.6869 42.4821 63.5529 44.2811 63.6 46.08C63.4969 47.5961 63.9682 49.0955 64.92 50.28C65.49 50.86 66.31 51.33 66.42 52.13C66.4172 52.4901 66.3173 52.8428 66.1307 53.1508C65.9441 53.4589 65.6779 53.7108 65.36 53.88C64.7187 54.2035 64.1005 54.5711 63.51 54.98" stroke="#263238" stroke-width="1.10311" stroke-linecap="round" stroke-linejoin="round"/>
<path d="M60 59.2272C60 59.2272 62.648 62.0565 67.3349 59.8228" stroke="#263238" stroke-width="1.10311" stroke-linecap="round" stroke-linejoin="round"/>
<path d="M55.14 43C55.14 44.11 54.66 45 54.07 45C53.48 45 53 44.11 53 43C53 41.89 53.48 41 54.07 41C54.66 41 55.14 41.9 55.14 43Z" fill="#263238"/>
<path d="M74.14 42C74.14 43.11 73.66 44 73.07 44C72.48 44 72 43.1 72 42C72 40.9 72.48 40 73.07 40C73.66 40 74.14 40.89 74.14 42Z" fill="#263238"/>
<path d="M68.62 39.26C68.62 39.26 73.62 34.26 77.81 39.84" stroke="#263238" stroke-width="2.20621" stroke-linecap="round" stroke-linejoin="round"/>
<path d="M58.09 39.36C58.09 39.36 54.93 35.82 49.95 39.36" stroke="#263238" stroke-width="2.20621" stroke-linecap="round" stroke-linejoin="round"/>
<path d="M48.87 63.0001C48.87 63.0001 51.92 71.4001 58.73 73.7901C65.54 76.1801 74.58 63.7901 74.58 63.7901L74.11 62.1801C74.11 62.1801 68.18 69.8801 61.59 68.5701C55 67.2601 48.49 58.3201 48.49 58.3201L48.87 63.0001Z" fill="#263238"/>
<path d="M42.76 47.85C42.76 47.85 38.7 49.28 37.62 46.12C36.54 42.96 32.84 34.6301 36.08 31.8501C39.32 29.0701 41.92 35.52 41.92 35.52" stroke="#263238" stroke-width="1.10311" stroke-linecap="round" stroke-linejoin="round"/>
<path d="M80.72 49.57C80.72 49.57 84.49 50.33 85.57 47.17C86.65 44.01 90.35 35.68 87.11 32.9C83.87 30.12 81.27 36.57 81.27 36.57" stroke="#263238" stroke-width="1.10311" stroke-linecap="round" stroke-linejoin="round"/>
<path d="M41.92 43.63C43.3304 43.4077 44.6032 42.6568 45.48 41.53C46.0155 40.541 46.355 39.4578 46.48 38.34C46.8513 36.2134 47.0386 34.0588 47.04 31.9C46.996 31.0567 47.0734 30.2114 47.27 29.39C47.5702 28.5635 48.0326 27.8054 48.63 27.16C50.04 25.5 51.75 24.1 53.1 22.38C53.8237 21.5684 54.3742 20.6177 54.7181 19.5861C55.062 18.5545 55.1919 17.4636 55.1 16.38C58.1937 18.9308 61.8087 20.7729 65.6908 21.7766C69.5728 22.7804 73.6276 22.9215 77.57 22.19C84.72 20.79 91.57 14.52 90.74 6.64004C90.5832 5.31886 90.0167 4.07993 89.12 3.09711C88.2233 2.11429 87.0413 1.43691 85.74 1.16004C82.21 0.28004 79.04 2.16003 75.84 3.37003C70.01 5.57003 64.3 1.79004 58.41 1.16004C53.41 0.61004 47.18 1.24004 44.56 6.25004C44.56 6.25004 35.56 7.31004 31.56 14.75C27.56 22.19 35.13 32.48 35.13 32.48C35.13 32.48 38.13 28.8 42.06 36.24L41.92 43.63Z" fill="#263238"/>
<path d="M77 19.68C77 19.68 74.66 31.88 80.77 37.79C80.77 37.79 82.11 34.12 83.46 33.22C84.4334 31.0549 84.8456 28.6795 84.6586 26.313C84.4716 23.9466 83.6914 21.6654 82.39 19.68C77.87 12.58 77 19.68 77 19.68Z" fill="#263238"/>
<path opacity="0.2" d="M88.14 5.80005C87.6035 7.46468 86.694 8.98486 85.4809 10.2447C84.2678 11.5046 82.7832 12.4709 81.14 13.0701C72.66 16.5301 64.43 12.7 55.93 11.95C49 11.33 41.35 17.5901 40.86 24.7101" stroke="white" stroke-width="1.10311" stroke-linecap="round" stroke-linejoin="round"/>
<path opacity="0.2" d="M35.63 22.83C35.7339 20.0203 36.6354 17.2983 38.2291 14.982C39.8228 12.6658 42.043 10.8511 44.63 9.75" stroke="white" stroke-width="1.10311" stroke-linecap="round" stroke-linejoin="round"/>
<path d="M46.53 69.51C50.2593 73.3964 54.7585 76.4617 59.74 78.51C59.74 78.51 69.89 75.56 75.05 68.51" stroke="#263238" stroke-width="1.10311" stroke-linecap="round" stroke-linejoin="round"/>
<path d="M57.6501 50.0685C62.158 48.0009 64.1363 42.6703 62.0686 38.1623C60.0009 33.6544 54.6702 31.6762 50.1623 33.7439C45.6544 35.8116 43.6762 41.1422 45.7439 45.6501C47.8116 50.1581 53.1422 52.1362 57.6501 50.0685Z" stroke="#263238" stroke-width="1.10311" stroke-linecap="round" stroke-linejoin="round"/>
<path d="M75.0512 50.8591C79.9737 50.2546 83.4743 45.7742 82.8699 40.8516C82.2655 35.9291 77.785 32.4285 72.8624 33.0329C67.9399 33.6373 64.4393 38.1178 65.0437 43.0404C65.6481 47.9629 70.1286 51.4635 75.0512 50.8591Z" stroke="#263238" stroke-width="1.10311" stroke-linecap="round" stroke-linejoin="round"/>
<path d="M48.49 66.16C47.5802 66.3989 46.7279 66.8186 45.9839 67.3942C45.2399 67.9697 44.6196 68.6894 44.16 69.51C42.57 72.31 43.53 81.12 43.53 81.12C43.53 81.12 51.74 89.24 58.73 92.67L60.79 81.08L63.99 92.67C63.99 92.67 74.81 85.02 77.81 78.55C77.81 78.55 78.81 71 77.81 68.55C77.5827 67.8695 77.15 67.2762 76.5715 66.8518C75.9931 66.4274 75.2973 66.1927 74.58 66.18" stroke="#263238" stroke-width="1.10311" stroke-linecap="round" stroke-linejoin="round"/>
<path d="M35.63 143.7C35.63 143.7 32.42 122.2 28.15 113.43" stroke="#263238" stroke-width="1.10311" stroke-linecap="round" stroke-linejoin="round"/>
<path d="M18.92 94.35C21.4062 97.8834 23.6256 101.597 25.56 105.46" stroke="#263238" stroke-width="1.10311" stroke-linecap="round" stroke-linejoin="round"/>
<path d="M103.23 110.4C104.092 106.805 105.273 103.295 106.76 99.91" stroke="#263238" stroke-width="1.10311" stroke-linecap="round" stroke-linejoin="round"/>
<path d="M96.6 143.7C96.6 143.7 98.91 128.96 101.67 116.82" stroke="#263238" stroke-width="1.10311" stroke-linecap="round" stroke-linejoin="round"/>
<path d="M100.52 123C102.753 120.04 105.892 117.89 109.46 116.88" stroke="#263238" stroke-width="1.10311" stroke-linecap="round" stroke-linejoin="round"/>
<path d="M78.25 76.59C78.25 76.59 96.88 84.04 108.91 88.27C108.91 88.27 123.71 102.18 139.58 150.39C139.58 150.39 125.04 174.85 97.38 182.69" stroke="#263238" stroke-width="1.10311" stroke-linecap="round" stroke-linejoin="round"/>
<path d="M102.18 160.13L115.55 149C115.55 149 122.62 143.63 129.97 147.3" stroke="#263238" stroke-width="1.10311" stroke-linecap="round" stroke-linejoin="round"/>
<path d="M101.67 121.67C101.67 121.67 112.72 138 115.55 149" stroke="#263238" stroke-width="1.10311" stroke-linecap="round" stroke-linejoin="round"/>
<path d="M26.15 152.71L22.24 149C22.24 149 16.44 148 9.85999 152.39" stroke="#263238" stroke-width="1.10311" stroke-linecap="round" stroke-linejoin="round"/>
<path d="M22.24 149C22.24 149 27.1 133 31.89 124.81" stroke="#263238" stroke-width="1.10311" stroke-linecap="round" stroke-linejoin="round"/>
<path d="M43.25 78.55C43.25 78.55 16.44 88.61 13.81 91.55C11.18 94.49 1.18998 150.74 0.919975 157.18C0.689975 162.94 21.57 175.87 31.92 181.32" stroke="#263238" stroke-width="1.10311" stroke-linecap="round" stroke-linejoin="round"/>
<path d="M63.3 97.5601C63.3 97.9101 63.1962 98.2523 63.0017 98.5434C62.8072 98.8345 62.5308 99.0614 62.2073 99.1953C61.8839 99.3293 61.528 99.3643 61.1847 99.296C60.8414 99.2278 60.526 99.0592 60.2784 98.8116C60.0309 98.5641 59.8623 98.2487 59.794 97.9054C59.7257 97.562 59.7608 97.2061 59.8948 96.8827C60.0287 96.5593 60.2556 96.2828 60.5466 96.0883C60.8377 95.8939 61.1799 95.7901 61.53 95.7901C61.7628 95.7887 61.9936 95.8336 62.2089 95.9221C62.4243 96.0106 62.6199 96.1409 62.7846 96.3055C62.9492 96.4701 63.0795 96.6658 63.168 96.8811C63.2565 97.0965 63.3013 97.3272 63.3 97.5601V97.5601Z" fill="#263238"/>
<path d="M94.32 191.78H33.32C32.9407 191.78 32.577 191.629 32.3088 191.361C32.0407 191.093 31.89 190.729 31.89 190.35C31.89 189.971 32.0407 189.607 32.3088 189.339C32.577 189.071 32.9407 188.92 33.32 188.92H94.32C94.6993 188.92 95.063 189.071 95.3312 189.339C95.5994 189.607 95.75 189.971 95.75 190.35C95.75 190.729 95.5994 191.093 95.3312 191.361C95.063 191.629 94.6993 191.78 94.32 191.78Z" fill="#263238"/>
<path d="M96.46 187L104.63 148.6C104.757 148.005 104.749 147.388 104.607 146.797C104.464 146.205 104.191 145.652 103.808 145.179C103.424 144.707 102.94 144.326 102.39 144.065C101.84 143.803 101.239 143.669 100.63 143.67H29.33C28.7264 143.67 28.1304 143.804 27.5849 144.062C27.0394 144.321 26.558 144.697 26.1754 145.164C25.7927 145.63 25.5185 146.176 25.3723 146.762C25.2261 147.347 25.2116 147.958 25.33 148.55L32.66 185.67C32.8397 186.582 33.3252 187.405 34.0362 188.003C34.7472 188.601 35.641 188.939 36.57 188.96L92.36 190.24C93.3136 190.261 94.2447 189.949 94.9931 189.358C95.7414 188.766 96.2602 187.933 96.46 187V187Z" fill="white" stroke="#263238" stroke-width="1.10311" stroke-linecap="round" stroke-linejoin="round"/>
<path d="M70.44 165.83C70.438 166.955 70.1026 168.054 69.4762 168.988C68.8498 169.923 67.9604 170.651 66.9206 171.08C65.8807 171.509 64.7369 171.62 63.6338 171.399C62.5307 171.179 61.5178 170.636 60.723 169.84C59.9283 169.044 59.3873 168.03 59.1686 166.926C58.9499 165.823 59.0631 164.679 59.4941 163.64C59.925 162.601 60.6543 161.713 61.5898 161.088C62.5253 160.463 63.625 160.13 64.75 160.13C65.4981 160.13 66.2388 160.278 66.9298 160.564C67.6208 160.851 68.2485 161.271 68.777 161.8C69.3055 162.33 69.7244 162.958 70.0097 163.649C70.2951 164.341 70.4413 165.082 70.44 165.83Z" fill="#263238"/>
<path d="M81.63 147.34H90.1" stroke="#263238" stroke-width="1.10311" stroke-linecap="round" stroke-linejoin="round"/>
<path d="M41.18 147.34H73.33" stroke="#263238" stroke-width="1.10311" stroke-linecap="round" stroke-linejoin="round"/>
<path d="M62.8774 43.3461H65.2674" stroke="#263238" stroke-width="1.10311" stroke-linecap="round" stroke-linejoin="round"/>
</svg>