<svg xml:space="preserve" viewBox="0 0 100 100" y="0" x="0" xmlns="http://www.w3.org/2000/svg" id="圖層_1" version="1.1" style="height: 100%; width: 100%; background: rgba(255, 255, 255, 0);" width="200px" height="200px"><g class="ldl-scale" style="transform-origin: 50% 50%; transform: rotate(0deg) scale(0.8, 0.8);"><g class="ldl-ani"><g class="ldl-layer"><g class="ldl-ani" style="transform: scale(0.91); transform-origin: 50px 50px; animation: 1.11111s linear -0.648148s infinite normal forwards running breath-8ce95b77-6456-49a8-89f6-717974691f9f;"><circle fill="#6079bd" r="32.5" cy="50" cx="50" style="fill: rgb(96, 121, 189);"></circle></g></g><g class="ldl-layer"><g class="ldl-ani" style="transform: scale(0.91); transform-origin: 50px 50px; animation: 1.11111s linear -0.740741s infinite normal forwards running breath-8ce95b77-6456-49a8-89f6-717974691f9f;"><ellipse fill="#405a9e" ry="7.2" rx="9" cy="49.9" cx="41" style="fill: rgb(64, 90, 158);"></ellipse></g></g><g class="ldl-layer"><g class="ldl-ani"><g><g class="ldl-layer"><g class="ldl-ani" style="transform: scale(0.91); transform-origin: 50px 50px; animation: 1.11111s linear -0.833333s infinite normal forwards running breath-8ce95b77-6456-49a8-89f6-717974691f9f;"><path fill="#e6e6e6" d="M62.1 56.5c-2.5 1-5.1 1.6-7.8 2.1-2.6.5-5.3.7-8 .8-2.7.1-5.4-.1-8-.5-2.7-.4-5.3-1.1-7.7-2.4l7.9-.2 7.8-.2c2.6-.1 5.2-.1 7.8-.1 2.7 0 5.3.1 8 .5z" style="fill: rgb(230, 230, 230);"></path></g></g></g></g></g><g class="ldl-layer"><g class="ldl-ani" style="transform: scale(0.91); transform-origin: 50px 50px; animation: 1.11111s linear -0.925926s infinite normal forwards running breath-8ce95b77-6456-49a8-89f6-717974691f9f;"><path fill="#405a9e" d="M77.5 67.4c-1.5 0-3.1 0-4.6.1-5.2.1-10.3.3-15.5.6-2.6.1-5.1.4-7.7.9-2.6.5-5.1 1.2-7.7 1.7-1.3.2-2.6.5-3.9.6-1.3.2-2.6.2-3.9.4l-4 .2c-1.3.1-2.6.1-4 .1l3.9.9 3.9.8c2.6.5 5.2 1 7.9 1.6 2.7.6 5.3 1.2 8 1.6 2.7.4 5.4.4 8.1.2 4.4-.4 8.7-1.2 13-2.3 2.5-2.2 4.7-4.6 6.5-7.4z" style="fill: rgb(64, 90, 158);"></path></g></g><g class="ldl-layer"><g class="ldl-ani" style="transform: scale(0.91); transform-origin: 50px 50px; animation: 1.11111s linear -1.01852s infinite normal forwards running breath-8ce95b77-6456-49a8-89f6-717974691f9f;"><path fill="#405a9e" d="M45.5 29.9c5.6-.4 11.2-.7 16.8-.7 4.2-.1 8.5 0 12.8.1-.5-.6-1-1.1-1.5-1.7-3.6-.9-7.3-1.6-11.1-2-5.7-.6-11.6-.7-17.3-.2-5.8.5-11.5 1.5-17.1 3-1 .3-2.1.6-3.1.9-.9 1.1-1.8 2.3-2.6 3.6 2.1-.4 4.3-.7 6.4-1 5.6-.9 11.1-1.6 16.7-2z" style="fill: rgb(64, 90, 158);"></path></g></g><g class="ldl-layer"><g class="ldl-ani"><g><g class="ldl-layer"><g class="ldl-ani" style="transform: scale(0.91); transform-origin: 50px 50px; animation: 1.11111s linear -1.11111s infinite normal forwards running breath-8ce95b77-6456-49a8-89f6-717974691f9f;"><path fill="#e6e6e6" d="M41 28.9c1.8-.6 3.7-.9 5.6-1.2 1.9-.3 3.8-.4 5.7-.5 1.9 0 3.8 0 5.7.3 1.9.2 3.8.7 5.5 1.4-1.9-.1-3.8-.2-5.6-.2-1.9 0-3.7 0-5.6.1l-5.6.1c-1.9.1-3.8.1-5.7 0z" style="fill: rgb(230, 230, 230);"></path></g></g></g></g></g><metadata xmlns:d="https://loading.io/stock/">
<d:name>neptune</d:name>
<d:tags>star,solar system,planet,neptune,astrology</d:tags>
<d:license>by</d:license>
<d:slug>ud16ha</d:slug>
</metadata></g></g></svg>