<svg xml:space="preserve" viewBox="0 0 100 100" y="0" x="0" xmlns="http://www.w3.org/2000/svg" id="圖層_1" version="1.1" style="height: 100%; width: 100%; background: rgba(255, 255, 255, 0);" width="200px" height="200px"><g class="ldl-scale" style="transform-origin: 50% 50%; transform: rotate(0deg) scale(0.8, 0.8);"><g class="ldl-ani"><g class="ldl-layer"><g class="ldl-ani" style="transform: scale(0.91); transform-origin: 50px 50px; animation: 1.11111s linear -0.666667s infinite normal forwards running breath-99ecb8bd-3a03-4cb7-915b-bdb7bf3182a7;"><circle fill="#f47e60" r="32.5" cy="50" cx="50" style="fill: rgb(244, 126, 96);"></circle></g></g><g class="ldl-layer"><g class="ldl-ani" style="transform: scale(0.91); transform-origin: 50px 50px; animation: 1.11111s linear -0.777778s infinite normal forwards running breath-99ecb8bd-3a03-4cb7-915b-bdb7bf3182a7;"><path fill="#cc632f" d="M40.9 41.7c.9 5.7 4.1 11.3 9.3 13.9.6.3 1.2.5 1.8.5 1.2 0 2.2-1 3-1.9 7.1-7.2 16.1-12 24.7-17.4-5-11.4-16.4-19.3-29.7-19.3-1.5 0-3 .1-4.5.3-.5 2.3-1.4 4.6-2.2 6.8-2 5.5-3.2 11.3-2.4 17.1z" style="fill: rgb(204, 99, 47);"></path></g></g><g class="ldl-layer"><g class="ldl-ani" style="transform: scale(0.91); transform-origin: 50px 50px; animation: 1.11111s linear -0.888889s infinite normal forwards running breath-99ecb8bd-3a03-4cb7-915b-bdb7bf3182a7;"><path fill="#cc632f" d="M71.2 53c-.5.4-1 1-1 1.6.1 1 1.3 1.6 2.3 1.4 1-.1 1.9-.7 2.9-1 2.1-.6 4.3.3 6.5 1.1.3-1.7.5-3.4.6-5.1-.1 0-.2.1-.4.1-3.6 1.2-7.9-.3-10.9 1.9z" style="fill: rgb(204, 99, 47);"></path></g></g><g class="ldl-layer"><g class="ldl-ani" style="transform: scale(0.91); transform-origin: 50px 50px; animation: 1.11111s linear -1s infinite normal forwards running breath-99ecb8bd-3a03-4cb7-915b-bdb7bf3182a7;"><path fill="#f47e60" d="M75.4 55.1c-1 .3-1.9.9-2.9 1-1 .1-2.3-.4-2.3-1.4 0-.7.4-1.2 1-1.6 3-2.3 7.3-.7 10.9-1.8.1 0 .2-.1.4-.1v-1.1c0-4.7-1-9.1-2.8-13.2-8.5 5.4-17.6 10.2-24.7 17.4-.9.9-1.8 1.8-3 1.9-.6 0-1.2-.2-1.8-.5-5.2-2.6-8.4-8.2-9.3-13.9s.4-11.6 2.4-17.1c.8-2.2 1.7-4.5 2.2-6.8-15.8 2.2-28 15.8-28 32.2v1.5c.5.2 1 .3 1.5.5 3.6 1 7.7 1.3 10.5 3.8 1.6 1.4 2.6 3.3 4.2 4.6 1.2 1 2.6 1.7 4 2.3 2.7 1.2 5.4 2.5 8.4 2.4 3.9 0 8.1-2.3 11.5-.5 1.4.7 2.4 2 3.7 2.9 2.7 1.8 6.3 1.4 9.3.3 3-1.1 5.7-3 8.8-4.1h.1c1.1-2.3 1.9-4.8 2.4-7.4-2.2-1-4.3-1.9-6.5-1.3z" style="fill: rgb(244, 126, 96);"></path></g></g><g class="ldl-layer"><g class="ldl-ani" style="transform: scale(0.91); transform-origin: 50px 50px; animation: 1.11111s linear -1.11111s infinite normal forwards running breath-99ecb8bd-3a03-4cb7-915b-bdb7bf3182a7;"><path fill="#cc632f" d="M70.6 67.8c-3 1.1-6.6 1.5-9.3-.3-1.3-.8-2.3-2.1-3.7-2.9-3.5-1.8-7.6.4-11.5.5-2.9 0-5.7-1.2-8.4-2.4-1.4-.6-2.8-1.3-4-2.3-1.6-1.4-2.6-3.3-4.2-4.6-2.8-2.5-6.9-2.9-10.5-3.8-.5-.1-1-.3-1.5-.5.8 17.2 15 31 32.5 31 13.1 0 24.3-7.7 29.5-18.9h-.1c-3.1 1.2-5.8 3.1-8.8 4.2z" style="fill: rgb(204, 99, 47);"></path></g></g><metadata xmlns:d="https://loading.io/stock/">
<d:name>mars</d:name>
<d:tags>star,solar system,planet,mars,astrology</d:tags>
<d:license>by</d:license>
<d:slug>pzpu9f</d:slug>
</metadata></g></g></svg>