<svg xml:space="preserve" viewBox="0 0 100 100" y="0" x="0" xmlns="http://www.w3.org/2000/svg" id="圖層_1" version="1.1" style="height: 100%; width: 100%; background: rgba(255, 255, 255, 0);" width="200px" height="200px"><g class="ldl-scale" style="transform-origin: 50% 50%; transform: rotate(0deg) scale(0.8, 0.8);"><g class="ldl-ani"><g class="ldl-layer"><g class="ldl-ani" style="transform: scale(0.91); transform-origin: 50px 50px; animation: 1.11111s linear -0.694444s infinite normal forwards running breath-ee3d55ea-5bcd-47b8-82d9-e7486b047deb;"><path fill="#f47e60" d="M50 40.6c-23.5 0-42.5 4.2-42.5 9.4h14.2c0-3.5 12.7-6.3 28.3-6.3s28.3 2.8 28.3 6.3h14.2c0-5.2-19-9.4-42.5-9.4z" style="fill: rgb(244, 126, 96);"></path></g></g><g class="ldl-layer"><g class="ldl-ani" style="transform: scale(0.91); transform-origin: 50px 50px; animation: 1.11111s linear -0.833333s infinite normal forwards running breath-ee3d55ea-5bcd-47b8-82d9-e7486b047deb;"><circle fill="#f8b26a" r="25.7" cy="50" cx="50" style="fill: rgb(248, 178, 106);"></circle></g></g><g class="ldl-layer"><g class="ldl-ani" style="transform: scale(0.91); transform-origin: 50px 50px; animation: 1.11111s linear -0.972222s infinite normal forwards running breath-ee3d55ea-5bcd-47b8-82d9-e7486b047deb;"><path fill="none" d="M50 56.3c15.6 0 28.3-2.8 28.3-6.3H21.7c0 3.5 12.7 6.3 28.3 6.3z"></path></g></g><g class="ldl-layer"><g class="ldl-ani" style="transform: scale(0.91); transform-origin: 50px 50px; animation: 1.11111s linear -1.11111s infinite normal forwards running breath-ee3d55ea-5bcd-47b8-82d9-e7486b047deb;"><path fill="#f47e60" d="M50 56.3c-15.6 0-28.3-2.8-28.3-6.3H7.5c0 5.2 19 9.4 42.5 9.4s42.5-4.2 42.5-9.4H78.3c0 3.5-12.7 6.3-28.3 6.3z" style="fill: rgb(244, 126, 96);"></path></g></g><metadata xmlns:d="https://loading.io/stock/">
<d:name>saturn</d:name>
<d:tags>star,solar system,planet,saturn,astrology</d:tags>
<d:license>by</d:license>
<d:slug>2ez0ua</d:slug>
</metadata></g></g></svg>